%
M48
M72
T01C0.0118
T02C0.0276
T03C0.0315
T04C0.0320
T05C0.0360
T06C0.0400
T07C0.0433
T08C0.1260
%
T01
X9680Y3000
X9680Y5500
X12680Y2000
X15180Y3000
X16180Y6000
X17180Y7000
X15680Y7500
X16180Y8500
X15180Y10000
X15680Y11000
X18180Y13500
X18680Y14500
X18680Y15500
X18680Y16500
X15930Y16500
X15430Y16500
X14930Y16500
X14180Y15000
X13180Y14500
X12680Y15500
X12680Y16000
X10680Y18000
X10680Y18750
X11180Y18750
X11680Y18750
X12180Y18750
X12680Y18500
X15680Y14000
T02
X15230Y18500
X14230Y18500
X3430Y5250
X2430Y5250
X5180Y4000
X6180Y4000
T03
X6180Y9500
X5180Y9500
X4180Y9500
T04
X4180Y11500
X6180Y11500
X6180Y13500
X6180Y15500
X6180Y17000
X6180Y19000
X14180Y16500
X14180Y14500
X14180Y13200
X14180Y11200
X13680Y6750
X14680Y6750
X14680Y1750
X13680Y1750
X6180Y7250
X4180Y7250
T05
X2680Y7250
X1180Y7250
X14180Y8750
X14180Y10250
X14180Y5250
X14180Y3750
T06
X16680Y3750
X16680Y2750
X17680Y2750
X17680Y3750
X17680Y4750
X16680Y4750
X16680Y8000
X16680Y9000
X16680Y10000
X16680Y11000
X16680Y12000
X16680Y13000
X16680Y14000
X16680Y15000
X16680Y16000
X16680Y17000
X17680Y17000
X17680Y16000
X17680Y15000
X17680Y14000
X17680Y13000
X17680Y12000
X17680Y11000
X17680Y10000
X17680Y9000
X17680Y8000
X5180Y1500
X4180Y1500
X3180Y1500
X756Y3186
X756Y4186
X790Y8670
X2570Y8670
X2570Y11230
X790Y11230
X4180Y14000
X4180Y15000
X4180Y16000
X4180Y17000
X4180Y18000
X4180Y19000
T07
X8680Y16000
X8680Y15000
X8680Y14000
X8680Y13000
X8680Y12000
X8680Y11000
X8680Y10000
X8680Y9000
X8680Y8000
X8680Y7000
X8680Y6000
X8680Y5000
X8680Y4000
X8680Y3000
X11680Y3000
X11680Y4000
X11680Y5000
X11680Y6000
X11680Y7000
X11680Y8000
X11680Y9000
X11680Y10000
X11680Y11000
X11680Y12000
X11680Y13000
X11680Y14000
X11680Y15000
X11680Y16000
T08
X1430Y1750
X1430Y19000
X18680Y19000
M30
