G75*
G70*
%OFA0B0*%
%FSLAX24Y24*%
%IPPOS*%
%LPD*%
%AMOC8*
5,1,8,0,0,1.08239X$1,22.5*
%
%ADD10C,0.0650*%
%ADD11OC8,0.0560*%
%ADD12C,0.0740*%
%ADD13OC8,0.0520*%
%ADD14C,0.0650*%
%ADD15R,0.0650X0.0650*%
%ADD16C,0.0600*%
%ADD17OC8,0.0740*%
%ADD18C,0.0400*%
%ADD19C,0.0160*%
%ADD20C,0.0238*%
%ADD21C,0.0060*%
D10*
X008355Y003000D02*
X009005Y003000D01*
X009005Y004000D02*
X008355Y004000D01*
X008355Y005000D02*
X009005Y005000D01*
X009005Y006000D02*
X008355Y006000D01*
X008355Y007000D02*
X009005Y007000D01*
X009005Y008000D02*
X008355Y008000D01*
X008355Y009000D02*
X009005Y009000D01*
X009005Y010000D02*
X008355Y010000D01*
X008355Y011000D02*
X009005Y011000D01*
X009005Y012000D02*
X008355Y012000D01*
X008355Y013000D02*
X009005Y013000D01*
X009005Y014000D02*
X008355Y014000D01*
X008355Y015000D02*
X009005Y015000D01*
X009005Y016000D02*
X008355Y016000D01*
X011355Y016000D02*
X012005Y016000D01*
X012005Y015000D02*
X011355Y015000D01*
X011355Y014000D02*
X012005Y014000D01*
X012005Y013000D02*
X011355Y013000D01*
X011355Y012000D02*
X012005Y012000D01*
X012005Y011000D02*
X011355Y011000D01*
X011355Y010000D02*
X012005Y010000D01*
X012005Y009000D02*
X011355Y009000D01*
X011355Y008000D02*
X012005Y008000D01*
X012005Y007000D02*
X011355Y007000D01*
X011355Y006000D02*
X012005Y006000D01*
X012005Y005000D02*
X011355Y005000D01*
X011355Y004000D02*
X012005Y004000D01*
X012005Y003000D02*
X011355Y003000D01*
D11*
X014180Y003750D03*
X014180Y005250D03*
X014180Y008750D03*
X014180Y010250D03*
X002680Y007250D03*
X001180Y007250D03*
D12*
X000790Y008670D03*
X002570Y008670D03*
X004180Y009500D03*
X005180Y009500D03*
X006180Y009500D03*
X002570Y011230D03*
X000790Y011230D03*
X004180Y014000D03*
X004180Y015000D03*
X004180Y016000D03*
X004180Y017000D03*
X004180Y018000D03*
X004180Y019000D03*
X013680Y006750D03*
X014680Y006750D03*
X014680Y001750D03*
X013680Y001750D03*
X000756Y003186D03*
X000756Y004186D03*
D13*
X004180Y007250D03*
X006180Y007250D03*
X006180Y011500D03*
X006180Y013500D03*
X006180Y015500D03*
X006180Y017000D03*
X006180Y019000D03*
X004180Y011500D03*
X014180Y011200D03*
X014180Y013200D03*
X014180Y014500D03*
X014180Y016500D03*
D14*
X015230Y018500D03*
X003430Y005250D03*
X006180Y004000D03*
D15*
X005180Y004000D03*
X002430Y005250D03*
X014230Y018500D03*
D16*
X005180Y001800D02*
X005180Y001200D01*
X004180Y001200D02*
X004180Y001800D01*
X003180Y001800D02*
X003180Y001200D01*
D17*
X016680Y002750D03*
X016680Y003750D03*
X016680Y004750D03*
X017680Y004750D03*
X017680Y003750D03*
X017680Y002750D03*
X017680Y008000D03*
X017680Y009000D03*
X017680Y010000D03*
X017680Y011000D03*
X017680Y012000D03*
X017680Y013000D03*
X017680Y014000D03*
X017680Y015000D03*
X017680Y016000D03*
X017680Y017000D03*
X016680Y017000D03*
X016680Y016000D03*
X016680Y015000D03*
X016680Y014000D03*
X016680Y013000D03*
X016680Y012000D03*
X016680Y011000D03*
X016680Y010000D03*
X016680Y009000D03*
X016680Y008000D03*
D18*
X014180Y007750D02*
X014180Y008750D01*
X014180Y007750D02*
X013680Y007250D01*
X013680Y006750D01*
X014180Y003750D02*
X014180Y003000D01*
X013680Y002500D01*
X013680Y001750D01*
X008680Y007000D02*
X007430Y007000D01*
X007180Y007250D01*
X006180Y007250D01*
X005180Y008250D01*
X004430Y008250D01*
X004180Y008500D01*
X004180Y009500D01*
X004680Y010500D02*
X004180Y011000D01*
X004180Y011500D01*
X004680Y010500D02*
X005680Y010500D01*
X006180Y010000D01*
X006180Y009500D01*
X006180Y008750D01*
X006930Y008000D01*
X008680Y008000D01*
X005180Y004000D02*
X005180Y001500D01*
X003180Y001500D02*
X003180Y003250D01*
X002430Y004000D01*
X002430Y005250D01*
X001930Y005250D01*
X001180Y006000D01*
X001180Y007250D01*
X002570Y008670D02*
X002570Y011230D01*
X002570Y011640D01*
X003680Y012750D01*
X004930Y012750D01*
X005180Y013000D01*
X005180Y016500D01*
X005680Y017000D01*
X006180Y017000D01*
X007680Y017000D01*
X008680Y016000D01*
X008680Y015000D02*
X009430Y015000D01*
X009930Y015500D01*
X009930Y018500D01*
X008680Y019750D01*
X003430Y019750D01*
X003180Y019500D01*
X003180Y017250D01*
X003430Y017000D01*
X004180Y017000D01*
X004180Y019000D02*
X006180Y019000D01*
X002570Y008670D02*
X002680Y008560D01*
X002680Y007250D01*
D19*
X000567Y000887D02*
X000781Y000732D01*
X001032Y000650D01*
X001164Y000640D01*
X018881Y000640D01*
X019013Y000650D01*
X019264Y000732D01*
X019478Y000887D01*
X019633Y001101D01*
X019715Y001352D01*
X019725Y001484D01*
X019725Y019190D01*
X019697Y019336D01*
X019571Y019614D01*
X019364Y019839D01*
X019099Y019990D01*
X018800Y020051D01*
X018691Y020047D01*
X018689Y020045D01*
X018639Y020045D01*
X018589Y020039D01*
X018582Y020045D01*
X008856Y020045D01*
X008873Y020038D01*
X008968Y019943D01*
X010218Y018693D01*
X010270Y018568D01*
X010270Y015432D01*
X010218Y015307D01*
X010123Y015212D01*
X009623Y014712D01*
X009498Y014660D01*
X009322Y014660D01*
X009268Y014606D01*
X009097Y014535D01*
X008263Y014535D01*
X008092Y014606D01*
X007961Y014737D01*
X007890Y014908D01*
X007890Y015092D01*
X007961Y015263D01*
X008092Y015394D01*
X008263Y015465D01*
X009097Y015465D01*
X009268Y015394D01*
X009306Y015356D01*
X009590Y015641D01*
X009590Y018359D01*
X008539Y019410D01*
X004491Y019410D01*
X004561Y019340D01*
X005954Y019340D01*
X006014Y019400D01*
X006346Y019400D01*
X006580Y019166D01*
X006580Y018834D01*
X006346Y018600D01*
X006014Y018600D01*
X005954Y018660D01*
X004561Y018660D01*
X004469Y018568D01*
X004306Y018500D01*
X004469Y018432D01*
X004612Y018289D01*
X004690Y018101D01*
X004690Y017899D01*
X004612Y017711D01*
X004469Y017568D01*
X004306Y017500D01*
X004469Y017432D01*
X004612Y017289D01*
X004690Y017101D01*
X004690Y016899D01*
X004612Y016711D01*
X004469Y016568D01*
X004306Y016500D01*
X004469Y016432D01*
X004612Y016289D01*
X004690Y016101D01*
X004690Y015899D01*
X004612Y015711D01*
X004469Y015568D01*
X004356Y015521D01*
X004391Y015510D01*
X004468Y015470D01*
X004538Y015420D01*
X004600Y015358D01*
X004650Y015288D01*
X004690Y015211D01*
X004716Y015129D01*
X004730Y015043D01*
X004730Y015020D01*
X004200Y015020D01*
X004200Y014980D01*
X004730Y014980D01*
X004730Y014957D01*
X004716Y014871D01*
X004690Y014789D01*
X004650Y014712D01*
X004600Y014642D01*
X004538Y014580D01*
X004468Y014530D01*
X004410Y014500D01*
X004468Y014470D01*
X004538Y014420D01*
X004600Y014358D01*
X004650Y014288D01*
X004690Y014211D01*
X004716Y014129D01*
X004730Y014043D01*
X004730Y014020D01*
X004200Y014020D01*
X004200Y013980D01*
X004730Y013980D01*
X004730Y013957D01*
X004716Y013871D01*
X004690Y013789D01*
X004650Y013712D01*
X004600Y013642D01*
X004538Y013580D01*
X004468Y013530D01*
X004391Y013490D01*
X004309Y013464D01*
X004223Y013450D01*
X004200Y013450D01*
X004200Y013980D01*
X004160Y013980D01*
X003630Y013980D01*
X003630Y013957D01*
X003644Y013871D01*
X003670Y013789D01*
X003710Y013712D01*
X003760Y013642D01*
X003822Y013580D01*
X003892Y013530D01*
X003969Y013490D01*
X004051Y013464D01*
X004137Y013450D01*
X004160Y013450D01*
X004160Y013980D01*
X004160Y014020D01*
X004160Y014550D01*
X004160Y014980D01*
X003630Y014980D01*
X003630Y014957D01*
X003644Y014871D01*
X003670Y014789D01*
X003710Y014712D01*
X003760Y014642D01*
X003822Y014580D01*
X003892Y014530D01*
X003950Y014500D01*
X003892Y014470D01*
X003822Y014420D01*
X003760Y014358D01*
X003710Y014288D01*
X003670Y014211D01*
X003644Y014129D01*
X003630Y014043D01*
X003630Y014020D01*
X004160Y014020D01*
X004200Y014020D01*
X004200Y014980D01*
X004160Y014980D01*
X004160Y015020D01*
X003630Y015020D01*
X003630Y015043D01*
X003644Y015129D01*
X003670Y015211D01*
X003710Y015288D01*
X003760Y015358D01*
X003822Y015420D01*
X003892Y015470D01*
X003969Y015510D01*
X004004Y015521D01*
X003891Y015568D01*
X003748Y015711D01*
X003670Y015899D01*
X003670Y016101D01*
X003748Y016289D01*
X003891Y016432D01*
X004054Y016500D01*
X003891Y016568D01*
X003799Y016660D01*
X003362Y016660D01*
X003237Y016712D01*
X003142Y016807D01*
X003142Y016807D01*
X002987Y016962D01*
X002987Y016962D01*
X002892Y017057D01*
X002840Y017182D01*
X002840Y019568D01*
X002892Y019693D01*
X002987Y019788D01*
X003237Y020038D01*
X003254Y020045D01*
X000928Y020045D01*
X000823Y020021D01*
X000760Y019990D01*
X000645Y019914D01*
X000511Y019794D01*
X000409Y019674D01*
X000349Y019560D01*
X000311Y019335D01*
X000316Y019263D01*
X000320Y019259D01*
X000320Y019211D01*
X000327Y019164D01*
X000320Y019154D01*
X000320Y011519D01*
X000370Y011588D01*
X000432Y011650D01*
X000502Y011700D01*
X000579Y011740D01*
X000661Y011766D01*
X000747Y011780D01*
X000770Y011780D01*
X000770Y011250D01*
X000810Y011250D01*
X000810Y011780D01*
X000833Y011780D01*
X000919Y011766D01*
X001001Y011740D01*
X001078Y011700D01*
X001148Y011650D01*
X001210Y011588D01*
X001260Y011518D01*
X001300Y011441D01*
X001326Y011359D01*
X001340Y011273D01*
X001340Y011250D01*
X000810Y011250D01*
X000810Y011210D01*
X001340Y011210D01*
X001340Y011187D01*
X001326Y011101D01*
X001300Y011019D01*
X001260Y010942D01*
X001210Y010872D01*
X001148Y010810D01*
X001078Y010760D01*
X001001Y010720D01*
X000919Y010694D01*
X000833Y010680D01*
X000810Y010680D01*
X000810Y011210D01*
X000770Y011210D01*
X000770Y010680D01*
X000747Y010680D01*
X000661Y010694D01*
X000579Y010720D01*
X000502Y010760D01*
X000432Y010810D01*
X000370Y010872D01*
X000320Y010941D01*
X000320Y008959D01*
X000370Y009028D01*
X000432Y009090D01*
X000502Y009140D01*
X000579Y009180D01*
X000661Y009206D01*
X000747Y009220D01*
X000770Y009220D01*
X000770Y008690D01*
X000810Y008690D01*
X000810Y009220D01*
X000833Y009220D01*
X000919Y009206D01*
X001001Y009180D01*
X001078Y009140D01*
X001148Y009090D01*
X001210Y009028D01*
X001260Y008958D01*
X001300Y008881D01*
X001326Y008799D01*
X001340Y008713D01*
X001340Y008690D01*
X000810Y008690D01*
X000810Y008650D01*
X001340Y008650D01*
X001340Y008627D01*
X001326Y008541D01*
X001300Y008459D01*
X001260Y008382D01*
X001210Y008312D01*
X001148Y008250D01*
X001078Y008200D01*
X001001Y008160D01*
X000919Y008134D01*
X000833Y008120D01*
X000810Y008120D01*
X000810Y008650D01*
X000770Y008650D01*
X000770Y008120D01*
X000747Y008120D01*
X000661Y008134D01*
X000579Y008160D01*
X000502Y008200D01*
X000432Y008250D01*
X000370Y008312D01*
X000320Y008381D01*
X000320Y004522D01*
X000336Y004544D01*
X000398Y004606D01*
X000468Y004656D01*
X000545Y004696D01*
X000627Y004723D01*
X000713Y004736D01*
X000736Y004736D01*
X000736Y004206D01*
X000776Y004206D01*
X001306Y004206D01*
X001306Y004229D01*
X001292Y004315D01*
X001266Y004397D01*
X001226Y004474D01*
X001175Y004544D01*
X001114Y004606D01*
X001044Y004656D01*
X000967Y004696D01*
X000885Y004723D01*
X000799Y004736D01*
X000776Y004736D01*
X000776Y004206D01*
X000776Y004166D01*
X001306Y004166D01*
X001306Y004143D01*
X001292Y004057D01*
X001266Y003975D01*
X001226Y003898D01*
X001175Y003828D01*
X001114Y003767D01*
X001044Y003716D01*
X000967Y003676D01*
X000932Y003665D01*
X001045Y003618D01*
X001188Y003475D01*
X001266Y003288D01*
X001266Y003085D01*
X001188Y002897D01*
X001045Y002754D01*
X000857Y002676D01*
X000655Y002676D01*
X000467Y002754D01*
X000324Y002897D01*
X000320Y002906D01*
X000320Y001484D01*
X000330Y001352D01*
X000412Y001101D01*
X000567Y000887D01*
X000503Y000976D02*
X002797Y000976D01*
X002807Y000951D02*
X002931Y000827D01*
X003092Y000760D01*
X003268Y000760D01*
X003429Y000827D01*
X003553Y000951D01*
X003620Y001112D01*
X003620Y001888D01*
X003553Y002049D01*
X003520Y002082D01*
X003520Y003318D01*
X003468Y003443D01*
X002770Y004141D01*
X002770Y004785D01*
X002813Y004785D01*
X002895Y004867D01*
X002895Y005633D01*
X002813Y005715D01*
X002047Y005715D01*
X001996Y005664D01*
X001520Y006141D01*
X001520Y006996D01*
X001600Y007076D01*
X001600Y007424D01*
X001354Y007670D01*
X001006Y007670D01*
X000760Y007424D01*
X000760Y007076D01*
X000840Y006996D01*
X000840Y005932D01*
X000892Y005807D01*
X000987Y005712D01*
X001737Y004962D01*
X001862Y004910D01*
X001965Y004910D01*
X001965Y004867D01*
X002047Y004785D01*
X002090Y004785D01*
X002090Y003932D01*
X002142Y003807D01*
X002237Y003712D01*
X002840Y003109D01*
X002840Y002082D01*
X002807Y002049D01*
X002740Y001888D01*
X002740Y001112D01*
X002807Y000951D01*
X002740Y001134D02*
X001903Y001134D01*
X001866Y001097D02*
X002083Y001314D01*
X002200Y001597D01*
X002200Y001903D01*
X002083Y002186D01*
X001866Y002403D01*
X001583Y002520D01*
X001277Y002520D01*
X000994Y002403D01*
X000777Y002186D01*
X000660Y001903D01*
X000660Y001597D01*
X000777Y001314D01*
X000994Y001097D01*
X001277Y000980D01*
X001583Y000980D01*
X001866Y001097D01*
X002061Y001293D02*
X002740Y001293D01*
X002740Y001451D02*
X002140Y001451D01*
X002200Y001610D02*
X002740Y001610D01*
X002740Y001768D02*
X002200Y001768D01*
X002190Y001927D02*
X002756Y001927D01*
X002840Y002085D02*
X002125Y002085D01*
X002025Y002244D02*
X002840Y002244D01*
X002840Y002402D02*
X001867Y002402D01*
X001246Y003036D02*
X002840Y003036D01*
X002840Y002878D02*
X001169Y002878D01*
X000961Y002719D02*
X002840Y002719D01*
X002840Y002561D02*
X000320Y002561D01*
X000320Y002719D02*
X000551Y002719D01*
X000343Y002878D02*
X000320Y002878D01*
X000320Y002402D02*
X000993Y002402D01*
X000835Y002244D02*
X000320Y002244D01*
X000320Y002085D02*
X000735Y002085D01*
X000670Y001927D02*
X000320Y001927D01*
X000320Y001768D02*
X000660Y001768D01*
X000660Y001610D02*
X000320Y001610D01*
X000323Y001451D02*
X000720Y001451D01*
X000799Y001293D02*
X000350Y001293D01*
X000401Y001134D02*
X000957Y001134D01*
X000664Y000817D02*
X002955Y000817D01*
X003405Y000817D02*
X003891Y000817D01*
X003867Y000834D02*
X003928Y000789D01*
X003996Y000755D01*
X004068Y000732D01*
X004142Y000720D01*
X004160Y000720D01*
X004160Y001480D01*
X003700Y001480D01*
X003700Y001162D01*
X003712Y001088D01*
X003735Y001016D01*
X003769Y000948D01*
X003814Y000887D01*
X003867Y000834D01*
X003756Y000976D02*
X003563Y000976D01*
X003620Y001134D02*
X003704Y001134D01*
X003700Y001293D02*
X003620Y001293D01*
X003620Y001451D02*
X003700Y001451D01*
X003700Y001520D02*
X004160Y001520D01*
X004160Y002280D01*
X004142Y002280D01*
X004068Y002268D01*
X003996Y002245D01*
X003928Y002211D01*
X003867Y002166D01*
X003814Y002113D01*
X003769Y002052D01*
X003735Y001984D01*
X003712Y001912D01*
X003700Y001838D01*
X003700Y001520D01*
X003700Y001610D02*
X003620Y001610D01*
X003620Y001768D02*
X003700Y001768D01*
X003716Y001927D02*
X003604Y001927D01*
X003520Y002085D02*
X003794Y002085D01*
X003993Y002244D02*
X003520Y002244D01*
X003520Y002402D02*
X004840Y002402D01*
X004840Y002244D02*
X004367Y002244D01*
X004364Y002245D02*
X004292Y002268D01*
X004218Y002280D01*
X004200Y002280D01*
X004200Y001520D01*
X004160Y001520D01*
X004160Y001480D01*
X004200Y001480D01*
X004200Y001520D01*
X004660Y001520D01*
X004660Y001838D01*
X004648Y001912D01*
X004625Y001984D01*
X004591Y002052D01*
X004546Y002113D01*
X004493Y002166D01*
X004432Y002211D01*
X004364Y002245D01*
X004200Y002244D02*
X004160Y002244D01*
X004160Y002085D02*
X004200Y002085D01*
X004200Y001927D02*
X004160Y001927D01*
X004160Y001768D02*
X004200Y001768D01*
X004200Y001610D02*
X004160Y001610D01*
X004200Y001480D02*
X004660Y001480D01*
X004660Y001162D01*
X004648Y001088D01*
X004625Y001016D01*
X004591Y000948D01*
X004546Y000887D01*
X004493Y000834D01*
X004432Y000789D01*
X004364Y000755D01*
X004292Y000732D01*
X004218Y000720D01*
X004200Y000720D01*
X004200Y001480D01*
X004200Y001451D02*
X004160Y001451D01*
X004160Y001293D02*
X004200Y001293D01*
X004200Y001134D02*
X004160Y001134D01*
X004160Y000976D02*
X004200Y000976D01*
X004200Y000817D02*
X004160Y000817D01*
X004469Y000817D02*
X004955Y000817D01*
X004931Y000827D02*
X005092Y000760D01*
X005268Y000760D01*
X005429Y000827D01*
X005553Y000951D01*
X005620Y001112D01*
X005620Y001888D01*
X005553Y002049D01*
X005520Y002082D01*
X005520Y003535D01*
X005563Y003535D01*
X005645Y003617D01*
X005645Y004383D01*
X005563Y004465D01*
X004797Y004465D01*
X004715Y004383D01*
X004715Y003617D01*
X004797Y003535D01*
X004840Y003535D01*
X004840Y002082D01*
X004807Y002049D01*
X004740Y001888D01*
X004740Y001112D01*
X004807Y000951D01*
X004931Y000827D01*
X004797Y000976D02*
X004604Y000976D01*
X004656Y001134D02*
X004740Y001134D01*
X004740Y001293D02*
X004660Y001293D01*
X004660Y001451D02*
X004740Y001451D01*
X004740Y001610D02*
X004660Y001610D01*
X004660Y001768D02*
X004740Y001768D01*
X004756Y001927D02*
X004644Y001927D01*
X004566Y002085D02*
X004840Y002085D01*
X004840Y002561D02*
X003520Y002561D01*
X003520Y002719D02*
X004840Y002719D01*
X004840Y002878D02*
X003520Y002878D01*
X003520Y003036D02*
X004840Y003036D01*
X004840Y003195D02*
X003520Y003195D01*
X003505Y003353D02*
X004840Y003353D01*
X004840Y003512D02*
X003399Y003512D01*
X003241Y003670D02*
X004715Y003670D01*
X004715Y003829D02*
X003082Y003829D01*
X002924Y003987D02*
X004715Y003987D01*
X004715Y004146D02*
X002770Y004146D01*
X002770Y004304D02*
X004715Y004304D01*
X004795Y004463D02*
X002770Y004463D01*
X002770Y004621D02*
X008077Y004621D01*
X008092Y004606D02*
X008263Y004535D01*
X009097Y004535D01*
X009268Y004606D01*
X009399Y004737D01*
X009470Y004908D01*
X009470Y004970D01*
X009510Y004930D01*
X009510Y003196D01*
X009460Y003147D01*
X009454Y003131D01*
X009399Y003263D01*
X009268Y003394D01*
X009097Y003465D01*
X008263Y003465D01*
X008092Y003394D01*
X007961Y003263D01*
X007890Y003092D01*
X007890Y002908D01*
X007961Y002737D01*
X008092Y002606D01*
X008263Y002535D01*
X009097Y002535D01*
X009268Y002606D01*
X009399Y002737D01*
X009454Y002869D01*
X009460Y002853D01*
X009533Y002780D01*
X009628Y002741D01*
X009732Y002741D01*
X009827Y002780D01*
X009900Y002853D01*
X009939Y002948D01*
X009939Y003052D01*
X009900Y003147D01*
X009850Y003196D01*
X009850Y005070D01*
X009750Y005170D01*
X009679Y005241D01*
X009732Y005241D01*
X009827Y005280D01*
X009900Y005353D01*
X009939Y005448D01*
X009939Y005552D01*
X009900Y005647D01*
X009850Y005696D01*
X009850Y006070D01*
X009350Y006570D01*
X009291Y006629D01*
X009399Y006737D01*
X009470Y006908D01*
X009470Y007092D01*
X009399Y007263D01*
X009268Y007394D01*
X009097Y007465D01*
X008263Y007465D01*
X008092Y007394D01*
X008038Y007340D01*
X007571Y007340D01*
X007468Y007443D01*
X007373Y007538D01*
X007248Y007590D01*
X006406Y007590D01*
X006346Y007650D01*
X006261Y007650D01*
X005468Y008443D01*
X005373Y008538D01*
X005248Y008590D01*
X004571Y008590D01*
X004520Y008641D01*
X004520Y009119D01*
X004612Y009211D01*
X004659Y009324D01*
X004670Y009289D01*
X004710Y009212D01*
X004760Y009142D01*
X004822Y009080D01*
X004892Y009030D01*
X004969Y008990D01*
X005051Y008964D01*
X005137Y008950D01*
X005180Y008950D01*
X005223Y008950D01*
X005309Y008964D01*
X005391Y008990D01*
X005468Y009030D01*
X005538Y009080D01*
X005600Y009142D01*
X005650Y009212D01*
X005690Y009289D01*
X005701Y009324D01*
X005748Y009211D01*
X005840Y009119D01*
X005840Y008682D01*
X005892Y008557D01*
X005987Y008462D01*
X006737Y007712D01*
X006862Y007660D01*
X008038Y007660D01*
X008092Y007606D01*
X008263Y007535D01*
X009097Y007535D01*
X009268Y007606D01*
X009399Y007737D01*
X009470Y007908D01*
X009470Y008092D01*
X009399Y008263D01*
X009268Y008394D01*
X009097Y008465D01*
X008263Y008465D01*
X008092Y008394D01*
X008038Y008340D01*
X007071Y008340D01*
X006520Y008891D01*
X006520Y009119D01*
X006612Y009211D01*
X006690Y009399D01*
X006690Y009601D01*
X006612Y009789D01*
X006520Y009881D01*
X006520Y010068D01*
X006468Y010193D01*
X005968Y010693D01*
X005873Y010788D01*
X005748Y010840D01*
X004821Y010840D01*
X004520Y011141D01*
X004520Y011274D01*
X004580Y011334D01*
X004580Y011666D01*
X004346Y011900D01*
X004014Y011900D01*
X003780Y011666D01*
X003780Y011334D01*
X003840Y011274D01*
X003840Y010932D01*
X003892Y010807D01*
X003987Y010712D01*
X004487Y010212D01*
X004612Y010160D01*
X005539Y010160D01*
X005829Y009870D01*
X005748Y009789D01*
X005701Y009676D01*
X005690Y009711D01*
X005650Y009788D01*
X005600Y009858D01*
X005538Y009920D01*
X005468Y009970D01*
X005391Y010010D01*
X005309Y010036D01*
X005223Y010050D01*
X005180Y010050D01*
X005180Y009500D01*
X005180Y009500D01*
X005180Y010050D01*
X005137Y010050D01*
X005051Y010036D01*
X004969Y010010D01*
X004892Y009970D01*
X004822Y009920D01*
X004760Y009858D01*
X004710Y009788D01*
X004670Y009711D01*
X004659Y009676D01*
X004612Y009789D01*
X004469Y009932D01*
X004281Y010010D01*
X004079Y010010D01*
X003891Y009932D01*
X003748Y009789D01*
X003670Y009601D01*
X003670Y009399D01*
X003748Y009211D01*
X003840Y009119D01*
X003840Y008432D01*
X003892Y008307D01*
X003987Y008212D01*
X004237Y007962D01*
X004362Y007910D01*
X005039Y007910D01*
X005780Y007169D01*
X005780Y007084D01*
X006014Y006850D01*
X006346Y006850D01*
X006406Y006910D01*
X007039Y006910D01*
X007237Y006712D01*
X007338Y006670D01*
X002850Y006670D01*
X002850Y006830D01*
X002854Y006830D01*
X003100Y007076D01*
X003100Y007424D01*
X003020Y007504D01*
X003020Y008424D01*
X003080Y008569D01*
X003080Y008771D01*
X003002Y008959D01*
X002910Y009051D01*
X002910Y010849D01*
X003002Y010941D01*
X003080Y011129D01*
X003080Y011331D01*
X003002Y011519D01*
X002966Y011555D01*
X003821Y012410D01*
X004998Y012410D01*
X005123Y012462D01*
X005373Y012712D01*
X005468Y012807D01*
X005520Y012932D01*
X005520Y016359D01*
X005821Y016660D01*
X005954Y016660D01*
X006014Y016600D01*
X006346Y016600D01*
X006406Y016660D01*
X007539Y016660D01*
X007954Y016245D01*
X007890Y016092D01*
X007890Y015908D01*
X007961Y015737D01*
X008092Y015606D01*
X008263Y015535D01*
X009097Y015535D01*
X009268Y015606D01*
X009399Y015737D01*
X009470Y015908D01*
X009470Y016092D01*
X009399Y016263D01*
X009268Y016394D01*
X009097Y016465D01*
X008696Y016465D01*
X007873Y017288D01*
X007748Y017340D01*
X006406Y017340D01*
X006346Y017400D01*
X006014Y017400D01*
X005954Y017340D01*
X005612Y017340D01*
X005487Y017288D01*
X005392Y017193D01*
X004892Y016693D01*
X004840Y016568D01*
X004840Y013141D01*
X004789Y013090D01*
X003612Y013090D01*
X003487Y013038D01*
X003392Y012943D01*
X002282Y011833D01*
X002230Y011708D01*
X002230Y011611D01*
X002138Y011519D01*
X002060Y011331D01*
X002060Y011129D01*
X002138Y010941D01*
X002230Y010849D01*
X002230Y009051D01*
X002138Y008959D01*
X002060Y008771D01*
X002060Y008569D01*
X002138Y008381D01*
X002281Y008238D01*
X002340Y008213D01*
X002340Y007504D01*
X002260Y007424D01*
X002260Y007076D01*
X002506Y006830D01*
X002510Y006830D01*
X002510Y006430D01*
X002610Y006330D01*
X008028Y006330D01*
X007961Y006263D01*
X007890Y006092D01*
X007890Y005908D01*
X007961Y005737D01*
X008092Y005606D01*
X008263Y005535D01*
X008904Y005535D01*
X008975Y005465D01*
X008263Y005465D01*
X008092Y005394D01*
X007961Y005263D01*
X007890Y005092D01*
X007890Y004908D01*
X007961Y004737D01*
X008092Y004606D01*
X008092Y004394D02*
X007961Y004263D01*
X007890Y004092D01*
X007890Y003908D01*
X007961Y003737D01*
X008092Y003606D01*
X008263Y003535D01*
X009097Y003535D01*
X009268Y003606D01*
X009399Y003737D01*
X009470Y003908D01*
X009470Y004092D01*
X009399Y004263D01*
X009268Y004394D01*
X009097Y004465D01*
X008263Y004465D01*
X008092Y004394D01*
X008002Y004304D02*
X006583Y004304D01*
X006565Y004329D02*
X006509Y004385D01*
X006445Y004432D01*
X006374Y004468D01*
X006298Y004493D01*
X006220Y004505D01*
X006180Y004505D01*
X006180Y004000D01*
X006685Y004000D01*
X006685Y004040D01*
X006673Y004118D01*
X006648Y004194D01*
X006612Y004265D01*
X006565Y004329D01*
X006664Y004146D02*
X007912Y004146D01*
X007890Y003987D02*
X006685Y003987D01*
X006685Y004000D02*
X006180Y004000D01*
X006180Y004000D01*
X006180Y004000D01*
X006180Y003495D01*
X006220Y003495D01*
X006298Y003507D01*
X006374Y003532D01*
X006445Y003568D01*
X006509Y003615D01*
X006565Y003671D01*
X006612Y003735D01*
X006648Y003806D01*
X006673Y003882D01*
X006685Y003960D01*
X006685Y004000D01*
X006655Y003829D02*
X007923Y003829D01*
X008028Y003670D02*
X006564Y003670D01*
X006311Y003512D02*
X009510Y003512D01*
X009510Y003670D02*
X009332Y003670D01*
X009437Y003829D02*
X009510Y003829D01*
X009510Y003987D02*
X009470Y003987D01*
X009448Y004146D02*
X009510Y004146D01*
X009510Y004304D02*
X009358Y004304D01*
X009510Y004463D02*
X009103Y004463D01*
X009283Y004621D02*
X009510Y004621D01*
X009510Y004780D02*
X009417Y004780D01*
X009470Y004938D02*
X009502Y004938D01*
X009824Y005097D02*
X010010Y005097D01*
X010010Y005255D02*
X009765Y005255D01*
X009925Y005414D02*
X010010Y005414D01*
X010010Y005572D02*
X009931Y005572D01*
X010010Y005731D02*
X009850Y005731D01*
X009850Y005889D02*
X010010Y005889D01*
X010010Y006048D02*
X009850Y006048D01*
X009714Y006206D02*
X010010Y006206D01*
X010010Y006365D02*
X009556Y006365D01*
X009397Y006523D02*
X010010Y006523D01*
X010010Y006682D02*
X009344Y006682D01*
X009442Y006840D02*
X010010Y006840D01*
X010010Y006999D02*
X009470Y006999D01*
X009443Y007157D02*
X010010Y007157D01*
X010010Y007316D02*
X009347Y007316D01*
X009295Y007633D02*
X010010Y007633D01*
X010010Y007791D02*
X009421Y007791D01*
X009470Y007950D02*
X010010Y007950D01*
X010010Y008108D02*
X009463Y008108D01*
X009396Y008267D02*
X010010Y008267D01*
X010010Y008425D02*
X009193Y008425D01*
X009199Y008532D02*
X009269Y008568D01*
X009334Y008615D01*
X009390Y008671D01*
X009437Y008735D01*
X009473Y008806D01*
X009497Y008882D01*
X009510Y008960D01*
X009510Y008972D01*
X008708Y008972D01*
X008708Y008495D01*
X009045Y008495D01*
X009123Y008508D01*
X009199Y008532D01*
X009290Y008584D02*
X010010Y008584D01*
X010010Y008742D02*
X009440Y008742D01*
X009500Y008901D02*
X010010Y008901D01*
X010010Y009059D02*
X009507Y009059D01*
X009510Y009040D02*
X009497Y009118D01*
X009473Y009194D01*
X009437Y009265D01*
X009390Y009329D01*
X009334Y009385D01*
X009269Y009432D01*
X009199Y009468D01*
X009123Y009492D01*
X009045Y009505D01*
X008708Y009505D01*
X008708Y009028D01*
X008652Y009028D01*
X008652Y008972D01*
X008708Y008972D01*
X008708Y009028D01*
X009510Y009028D01*
X009510Y009040D01*
X009461Y009218D02*
X010010Y009218D01*
X010010Y009376D02*
X009343Y009376D01*
X009268Y009606D02*
X009399Y009737D01*
X009470Y009908D01*
X009470Y009970D01*
X010010Y009430D01*
X010010Y003430D01*
X012510Y000930D01*
X012610Y000830D01*
X019250Y000830D01*
X019350Y000930D01*
X019350Y012570D01*
X018439Y013481D01*
X018439Y013552D01*
X018400Y013647D01*
X018327Y013720D01*
X018232Y013759D01*
X018160Y013759D01*
X018190Y013789D01*
X018190Y014211D01*
X017901Y014500D01*
X018190Y014789D01*
X018190Y015211D01*
X017901Y015500D01*
X018190Y015789D01*
X018190Y016211D01*
X017930Y016472D01*
X018230Y016772D01*
X018230Y016980D01*
X017700Y016980D01*
X017700Y017020D01*
X017660Y017020D01*
X017660Y017550D01*
X017452Y017550D01*
X017152Y017250D01*
X016891Y017510D01*
X016469Y017510D01*
X016350Y017391D01*
X016350Y019070D01*
X016250Y019170D01*
X013610Y019170D01*
X013510Y019070D01*
X013010Y018570D01*
X013010Y016570D01*
X012699Y016259D01*
X012628Y016259D01*
X012533Y016220D01*
X012460Y016147D01*
X012454Y016131D01*
X012399Y016263D01*
X012291Y016371D01*
X012750Y016830D01*
X012850Y016930D01*
X012850Y018304D01*
X012900Y018353D01*
X012939Y018448D01*
X012939Y018552D01*
X012900Y018647D01*
X012827Y018720D01*
X012732Y018759D01*
X012628Y018759D01*
X012533Y018720D01*
X012460Y018647D01*
X012421Y018552D01*
X012421Y018448D01*
X012460Y018353D01*
X012510Y018304D01*
X012510Y017070D01*
X011904Y016465D01*
X011263Y016465D01*
X011092Y016394D01*
X010961Y016263D01*
X010890Y016092D01*
X010890Y015908D01*
X010961Y015737D01*
X011092Y015606D01*
X011263Y015535D01*
X012097Y015535D01*
X012268Y015606D01*
X012399Y015737D01*
X012454Y015869D01*
X012460Y015853D01*
X012533Y015780D01*
X012607Y015750D01*
X012533Y015720D01*
X012460Y015647D01*
X012421Y015552D01*
X012421Y015448D01*
X012460Y015353D01*
X012510Y015304D01*
X012510Y012070D01*
X012470Y012030D01*
X012470Y012092D01*
X012399Y012263D01*
X012268Y012394D01*
X012097Y012465D01*
X011263Y012465D01*
X011092Y012394D01*
X010961Y012263D01*
X010890Y012092D01*
X010890Y011908D01*
X010961Y011737D01*
X011092Y011606D01*
X011263Y011535D01*
X011975Y011535D01*
X011904Y011465D01*
X011263Y011465D01*
X011092Y011394D01*
X010961Y011263D01*
X010890Y011092D01*
X010890Y010908D01*
X010961Y010737D01*
X011092Y010606D01*
X011263Y010535D01*
X012097Y010535D01*
X012268Y010606D01*
X012399Y010737D01*
X012470Y010908D01*
X012470Y011092D01*
X012399Y011263D01*
X012291Y011371D01*
X012750Y011830D01*
X012850Y011930D01*
X012850Y015304D01*
X012900Y015353D01*
X012939Y015448D01*
X012939Y015552D01*
X012900Y015647D01*
X012827Y015720D01*
X012753Y015750D01*
X012827Y015780D01*
X012900Y015853D01*
X012939Y015948D01*
X012939Y016019D01*
X013250Y016330D01*
X013350Y016430D01*
X013350Y018430D01*
X013750Y018830D01*
X013765Y018830D01*
X013765Y018325D01*
X013610Y018170D01*
X013510Y018070D01*
X013510Y010070D01*
X012470Y009030D01*
X012470Y009092D01*
X012399Y009263D01*
X012291Y009371D01*
X013350Y010430D01*
X013350Y014304D01*
X013400Y014353D01*
X013439Y014448D01*
X013510Y014448D01*
X013439Y014448D02*
X013439Y014552D01*
X013400Y014647D01*
X013327Y014720D01*
X013232Y014759D01*
X013128Y014759D01*
X013033Y014720D01*
X012960Y014647D01*
X012921Y014552D01*
X012921Y014448D01*
X012850Y014448D01*
X012921Y014448D02*
X012960Y014353D01*
X013010Y014304D01*
X013010Y010570D01*
X012505Y010066D01*
X012497Y010118D01*
X012473Y010194D01*
X012437Y010265D01*
X012390Y010329D01*
X012334Y010385D01*
X012269Y010432D01*
X012199Y010468D01*
X012123Y010492D01*
X012045Y010505D01*
X011708Y010505D01*
X011708Y010028D01*
X011652Y010028D01*
X011652Y009972D01*
X011708Y009972D01*
X011708Y009495D01*
X011935Y009495D01*
X011904Y009465D01*
X011263Y009465D01*
X011092Y009394D01*
X010961Y009263D01*
X010890Y009092D01*
X010890Y008908D01*
X010961Y008737D01*
X011092Y008606D01*
X011263Y008535D01*
X011975Y008535D01*
X011904Y008465D01*
X011263Y008465D01*
X011092Y008394D01*
X010961Y008263D01*
X010890Y008092D01*
X010890Y007908D01*
X010961Y007737D01*
X011092Y007606D01*
X011263Y007535D01*
X012097Y007535D01*
X012268Y007606D01*
X012399Y007737D01*
X012470Y007908D01*
X012470Y008092D01*
X012399Y008263D01*
X012291Y008371D01*
X013750Y009830D01*
X013850Y009930D01*
X013850Y009986D01*
X013888Y009948D01*
X012610Y008670D01*
X012510Y008570D01*
X012510Y005070D01*
X012470Y005030D01*
X012470Y005092D01*
X012399Y005263D01*
X012268Y005394D01*
X012097Y005465D01*
X011263Y005465D01*
X011092Y005394D01*
X010961Y005263D01*
X010890Y005092D01*
X010890Y004908D01*
X010961Y004737D01*
X011069Y004629D01*
X010610Y004170D01*
X010510Y004070D01*
X010510Y003930D01*
X011010Y003430D01*
X011069Y003371D01*
X010961Y003263D01*
X010890Y003092D01*
X010890Y003030D01*
X010350Y003570D01*
X010350Y009570D01*
X010250Y009670D01*
X009291Y010629D01*
X009399Y010737D01*
X009470Y010908D01*
X009470Y011092D01*
X009399Y011263D01*
X009268Y011394D01*
X009097Y011465D01*
X008263Y011465D01*
X008092Y011394D01*
X007961Y011263D01*
X007890Y011092D01*
X007890Y010908D01*
X007961Y010737D01*
X008092Y010606D01*
X008263Y010535D01*
X008904Y010535D01*
X008975Y010465D01*
X008263Y010465D01*
X008092Y010394D01*
X007961Y010263D01*
X007890Y010092D01*
X007890Y009908D01*
X007961Y009737D01*
X008092Y009606D01*
X008263Y009535D01*
X009097Y009535D01*
X009268Y009606D01*
X009355Y009693D02*
X009747Y009693D01*
X009905Y009535D02*
X006690Y009535D01*
X006681Y009376D02*
X008017Y009376D01*
X008026Y009385D02*
X007970Y009329D01*
X007923Y009265D01*
X007887Y009194D01*
X007863Y009118D01*
X007850Y009040D01*
X007850Y009028D01*
X008652Y009028D01*
X008652Y009505D01*
X008315Y009505D01*
X008237Y009492D01*
X008161Y009468D01*
X008091Y009432D01*
X008026Y009385D01*
X007899Y009218D02*
X006615Y009218D01*
X006520Y009059D02*
X007853Y009059D01*
X007850Y008972D02*
X007850Y008960D01*
X007863Y008882D01*
X007887Y008806D01*
X007923Y008735D01*
X007970Y008671D01*
X008026Y008615D01*
X008091Y008568D01*
X008161Y008532D01*
X008237Y008508D01*
X008315Y008495D01*
X008652Y008495D01*
X008652Y008972D01*
X007850Y008972D01*
X007860Y008901D02*
X006520Y008901D01*
X006669Y008742D02*
X007920Y008742D01*
X008070Y008584D02*
X006827Y008584D01*
X006986Y008425D02*
X008167Y008425D01*
X008652Y008584D02*
X008708Y008584D01*
X008708Y008742D02*
X008652Y008742D01*
X008652Y008901D02*
X008708Y008901D01*
X008708Y009059D02*
X008652Y009059D01*
X008652Y009218D02*
X008708Y009218D01*
X008708Y009376D02*
X008652Y009376D01*
X008005Y009693D02*
X006652Y009693D01*
X006550Y009852D02*
X007914Y009852D01*
X007890Y010010D02*
X006520Y010010D01*
X006478Y010169D02*
X007922Y010169D01*
X008025Y010327D02*
X006334Y010327D01*
X006175Y010486D02*
X008954Y010486D01*
X009306Y010644D02*
X011054Y010644D01*
X010934Y010803D02*
X009426Y010803D01*
X009470Y010961D02*
X010890Y010961D01*
X010902Y011120D02*
X009458Y011120D01*
X009384Y011278D02*
X010976Y011278D01*
X011194Y011437D02*
X009166Y011437D01*
X009097Y011535D02*
X009268Y011606D01*
X009399Y011737D01*
X009470Y011908D01*
X009470Y012092D01*
X009399Y012263D01*
X009268Y012394D01*
X009097Y012465D01*
X008263Y012465D01*
X008092Y012394D01*
X007961Y012263D01*
X007890Y012092D01*
X007890Y011908D01*
X007961Y011737D01*
X008092Y011606D01*
X008263Y011535D01*
X009097Y011535D01*
X009242Y011595D02*
X011118Y011595D01*
X010954Y011754D02*
X009406Y011754D01*
X009470Y011912D02*
X010890Y011912D01*
X010890Y012071D02*
X009470Y012071D01*
X009413Y012229D02*
X010947Y012229D01*
X011085Y012388D02*
X009275Y012388D01*
X009268Y012606D02*
X009097Y012535D01*
X008263Y012535D01*
X008092Y012606D01*
X007961Y012737D01*
X007890Y012908D01*
X007890Y013092D01*
X007961Y013263D01*
X008092Y013394D01*
X008263Y013465D01*
X008904Y013465D01*
X008975Y013535D01*
X008263Y013535D01*
X008092Y013606D01*
X007961Y013737D01*
X007890Y013908D01*
X007890Y014092D01*
X007961Y014263D01*
X008092Y014394D01*
X008263Y014465D01*
X009097Y014465D01*
X009268Y014394D01*
X009399Y014263D01*
X009470Y014092D01*
X009470Y014030D01*
X010510Y015070D01*
X010510Y017804D01*
X010460Y017853D01*
X010421Y017948D01*
X010421Y018052D01*
X010460Y018147D01*
X010533Y018220D01*
X010628Y018259D01*
X010732Y018259D01*
X010827Y018220D01*
X010900Y018147D01*
X010939Y018052D01*
X010939Y017948D01*
X010900Y017853D01*
X010850Y017804D01*
X010850Y014930D01*
X010750Y014830D01*
X009291Y013371D01*
X009399Y013263D01*
X009470Y013092D01*
X009470Y012908D01*
X009399Y012737D01*
X009268Y012606D01*
X009367Y012705D02*
X010993Y012705D01*
X010961Y012737D02*
X011092Y012606D01*
X011263Y012535D01*
X012097Y012535D01*
X012268Y012606D01*
X012399Y012737D01*
X012470Y012908D01*
X012470Y013092D01*
X012399Y013263D01*
X012268Y013394D01*
X012097Y013465D01*
X011263Y013465D01*
X011092Y013394D01*
X010961Y013263D01*
X010890Y013092D01*
X010890Y012908D01*
X010961Y012737D01*
X010909Y012863D02*
X009451Y012863D01*
X009470Y013022D02*
X010890Y013022D01*
X010927Y013180D02*
X009433Y013180D01*
X009324Y013339D02*
X011036Y013339D01*
X011092Y013606D02*
X011263Y013535D01*
X012097Y013535D01*
X012268Y013606D01*
X012399Y013737D01*
X012470Y013908D01*
X012470Y014092D01*
X012399Y014263D01*
X012268Y014394D01*
X012097Y014465D01*
X011263Y014465D01*
X011092Y014394D01*
X010961Y014263D01*
X010890Y014092D01*
X010890Y013908D01*
X010961Y013737D01*
X011092Y013606D01*
X011042Y013656D02*
X009576Y013656D01*
X009734Y013814D02*
X010929Y013814D01*
X010890Y013973D02*
X009893Y013973D01*
X010051Y014131D02*
X010906Y014131D01*
X010987Y014290D02*
X010210Y014290D01*
X010368Y014448D02*
X011222Y014448D01*
X011263Y014535D02*
X011092Y014606D01*
X010961Y014737D01*
X010890Y014908D01*
X010890Y015092D01*
X010961Y015263D01*
X011092Y015394D01*
X011263Y015465D01*
X012097Y015465D01*
X012268Y015394D01*
X012399Y015263D01*
X012470Y015092D01*
X012470Y014908D01*
X012399Y014737D01*
X012268Y014606D01*
X012097Y014535D01*
X011263Y014535D01*
X011091Y014607D02*
X010527Y014607D01*
X010685Y014765D02*
X010949Y014765D01*
X010890Y014924D02*
X010844Y014924D01*
X010850Y015082D02*
X010890Y015082D01*
X010850Y015241D02*
X010952Y015241D01*
X010850Y015399D02*
X011104Y015399D01*
X011209Y015558D02*
X010850Y015558D01*
X010850Y015716D02*
X010982Y015716D01*
X010904Y015875D02*
X010850Y015875D01*
X010850Y016033D02*
X010890Y016033D01*
X010850Y016192D02*
X010931Y016192D01*
X010850Y016350D02*
X011048Y016350D01*
X010850Y016509D02*
X011948Y016509D01*
X012107Y016667D02*
X010850Y016667D01*
X010850Y016826D02*
X012265Y016826D01*
X012424Y016984D02*
X010850Y016984D01*
X010850Y017143D02*
X012510Y017143D01*
X012510Y017301D02*
X010850Y017301D01*
X010850Y017460D02*
X012510Y017460D01*
X012510Y017618D02*
X010850Y017618D01*
X010850Y017777D02*
X012510Y017777D01*
X012510Y017935D02*
X010933Y017935D01*
X010922Y018094D02*
X012510Y018094D01*
X012510Y018252D02*
X010748Y018252D01*
X010612Y018252D02*
X010270Y018252D01*
X010270Y018094D02*
X010438Y018094D01*
X010427Y017935D02*
X010270Y017935D01*
X010270Y017777D02*
X010510Y017777D01*
X010510Y017618D02*
X010270Y017618D01*
X010270Y017460D02*
X010510Y017460D01*
X010510Y017301D02*
X010270Y017301D01*
X010270Y017143D02*
X010510Y017143D01*
X010510Y016984D02*
X010270Y016984D01*
X010270Y016826D02*
X010510Y016826D01*
X010510Y016667D02*
X010270Y016667D01*
X010270Y016509D02*
X010510Y016509D01*
X010510Y016350D02*
X010270Y016350D01*
X010270Y016192D02*
X010510Y016192D01*
X010510Y016033D02*
X010270Y016033D01*
X010270Y015875D02*
X010510Y015875D01*
X010510Y015716D02*
X010270Y015716D01*
X010270Y015558D02*
X010510Y015558D01*
X010510Y015399D02*
X010256Y015399D01*
X010151Y015241D02*
X010510Y015241D01*
X010510Y015082D02*
X009993Y015082D01*
X009834Y014924D02*
X010363Y014924D01*
X010205Y014765D02*
X009676Y014765D01*
X009888Y014448D02*
X009138Y014448D01*
X009269Y014607D02*
X010046Y014607D01*
X009729Y014290D02*
X009373Y014290D01*
X009454Y014131D02*
X009571Y014131D01*
X009417Y013497D02*
X012510Y013497D01*
X012510Y013339D02*
X012324Y013339D01*
X012433Y013180D02*
X012510Y013180D01*
X012510Y013022D02*
X012470Y013022D01*
X012451Y012863D02*
X012510Y012863D01*
X012510Y012705D02*
X012367Y012705D01*
X012510Y012546D02*
X012123Y012546D01*
X012275Y012388D02*
X012510Y012388D01*
X012510Y012229D02*
X012413Y012229D01*
X012470Y012071D02*
X012510Y012071D01*
X012850Y012071D02*
X013010Y012071D01*
X013010Y012229D02*
X012850Y012229D01*
X012850Y012388D02*
X013010Y012388D01*
X013010Y012546D02*
X012850Y012546D01*
X012850Y012705D02*
X013010Y012705D01*
X013010Y012863D02*
X012850Y012863D01*
X012850Y013022D02*
X013010Y013022D01*
X013010Y013180D02*
X012850Y013180D01*
X012850Y013339D02*
X013010Y013339D01*
X013010Y013497D02*
X012850Y013497D01*
X012850Y013656D02*
X013010Y013656D01*
X013010Y013814D02*
X012850Y013814D01*
X012850Y013973D02*
X013010Y013973D01*
X013010Y014131D02*
X012850Y014131D01*
X012850Y014290D02*
X013010Y014290D01*
X012944Y014607D02*
X012850Y014607D01*
X012850Y014765D02*
X013510Y014765D01*
X013510Y014607D02*
X013416Y014607D01*
X013350Y014290D02*
X013510Y014290D01*
X013510Y014131D02*
X013350Y014131D01*
X013350Y013973D02*
X013510Y013973D01*
X013510Y013814D02*
X013350Y013814D01*
X013350Y013656D02*
X013510Y013656D01*
X013510Y013497D02*
X013350Y013497D01*
X013350Y013339D02*
X013510Y013339D01*
X013510Y013180D02*
X013350Y013180D01*
X013350Y013022D02*
X013510Y013022D01*
X013510Y012863D02*
X013350Y012863D01*
X013350Y012705D02*
X013510Y012705D01*
X013510Y012546D02*
X013350Y012546D01*
X013350Y012388D02*
X013510Y012388D01*
X013510Y012229D02*
X013350Y012229D01*
X013350Y012071D02*
X013510Y012071D01*
X013510Y011912D02*
X013350Y011912D01*
X013350Y011754D02*
X013510Y011754D01*
X013510Y011595D02*
X013350Y011595D01*
X013350Y011437D02*
X013510Y011437D01*
X013510Y011278D02*
X013350Y011278D01*
X013350Y011120D02*
X013510Y011120D01*
X013510Y010961D02*
X013350Y010961D01*
X013350Y010803D02*
X013510Y010803D01*
X013510Y010644D02*
X013350Y010644D01*
X013350Y010486D02*
X013510Y010486D01*
X013510Y010327D02*
X013247Y010327D01*
X013089Y010169D02*
X013510Y010169D01*
X013450Y010010D02*
X012930Y010010D01*
X012772Y009852D02*
X013291Y009852D01*
X013133Y009693D02*
X012613Y009693D01*
X012455Y009535D02*
X012974Y009535D01*
X012816Y009376D02*
X012296Y009376D01*
X012418Y009218D02*
X012657Y009218D01*
X012499Y009059D02*
X012470Y009059D01*
X012821Y008901D02*
X012840Y008901D01*
X012979Y009059D02*
X012999Y009059D01*
X013138Y009218D02*
X013157Y009218D01*
X013296Y009376D02*
X013316Y009376D01*
X013455Y009535D02*
X013474Y009535D01*
X013613Y009693D02*
X013633Y009693D01*
X013772Y009852D02*
X013791Y009852D01*
X013955Y009535D02*
X014510Y009535D01*
X014510Y009693D02*
X014113Y009693D01*
X014250Y009830D02*
X014354Y009830D01*
X014510Y009986D01*
X014510Y009014D01*
X014354Y009170D01*
X014006Y009170D01*
X013760Y008924D01*
X013760Y008576D01*
X013840Y008496D01*
X013840Y007891D01*
X013392Y007443D01*
X013340Y007318D01*
X013340Y007131D01*
X013248Y007039D01*
X013170Y006851D01*
X013170Y006649D01*
X013248Y006461D01*
X013391Y006318D01*
X013579Y006240D01*
X013781Y006240D01*
X013969Y006318D01*
X014010Y006359D01*
X014010Y005670D01*
X014006Y005670D01*
X013760Y005424D01*
X013760Y005076D01*
X014006Y004830D01*
X014354Y004830D01*
X014600Y005076D01*
X014600Y005424D01*
X014354Y005670D01*
X014350Y005670D01*
X014350Y006310D01*
X014392Y006280D01*
X014469Y006240D01*
X014551Y006214D01*
X014637Y006200D01*
X014680Y006200D01*
X014723Y006200D01*
X014809Y006214D01*
X014891Y006240D01*
X014968Y006280D01*
X015010Y006310D01*
X015010Y003196D01*
X014960Y003147D01*
X014921Y003052D01*
X014921Y002999D01*
X014850Y003070D01*
X014850Y004570D01*
X014750Y004670D01*
X014110Y004670D01*
X014010Y004570D01*
X013510Y004070D01*
X013510Y003670D01*
X012332Y003670D01*
X012399Y003737D01*
X012470Y003908D01*
X012470Y004092D01*
X012399Y004263D01*
X012291Y004371D01*
X012850Y004930D01*
X012850Y005070D01*
X012850Y008430D01*
X014250Y009830D01*
X014375Y009852D02*
X014510Y009852D01*
X014850Y009852D02*
X014962Y009852D01*
X014960Y009853D02*
X015010Y009804D01*
X015010Y007190D01*
X014968Y007220D01*
X014891Y007260D01*
X014809Y007286D01*
X014723Y007300D01*
X014720Y007300D01*
X014750Y007330D01*
X014850Y007430D01*
X014850Y010570D01*
X014483Y010937D01*
X014580Y011034D01*
X014580Y011366D01*
X014346Y011600D01*
X014014Y011600D01*
X013850Y011436D01*
X013850Y012908D01*
X013998Y012760D01*
X014180Y012760D01*
X014362Y012760D01*
X014620Y013018D01*
X014620Y013200D01*
X014620Y013382D01*
X014362Y013640D01*
X014180Y013640D01*
X014180Y013200D01*
X014180Y013200D01*
X014620Y013200D01*
X014180Y013200D01*
X014180Y013200D01*
X014180Y013640D01*
X013998Y013640D01*
X013850Y013492D01*
X013850Y014264D01*
X014014Y014100D01*
X014346Y014100D01*
X014580Y014334D01*
X014580Y014360D01*
X015510Y013430D01*
X015510Y011196D01*
X015460Y011147D01*
X015421Y011052D01*
X015421Y010948D01*
X015460Y010853D01*
X015533Y010780D01*
X015628Y010741D01*
X015732Y010741D01*
X015827Y010780D01*
X015900Y010853D01*
X015939Y010948D01*
X015939Y011052D01*
X015900Y011147D01*
X015850Y011196D01*
X015850Y013570D01*
X015750Y013670D01*
X015679Y013741D01*
X015699Y013741D01*
X016010Y013430D01*
X016110Y013330D01*
X016289Y013330D01*
X016170Y013211D01*
X016170Y012789D01*
X016459Y012500D01*
X016170Y012211D01*
X016170Y011789D01*
X016459Y011500D01*
X016170Y011211D01*
X016170Y010789D01*
X016199Y010760D01*
X016010Y010570D01*
X016010Y008696D01*
X015960Y008647D01*
X015921Y008552D01*
X015921Y008448D01*
X015960Y008353D01*
X016033Y008280D01*
X016128Y008241D01*
X016200Y008241D01*
X016170Y008211D01*
X016170Y007789D01*
X016469Y007490D01*
X016891Y007490D01*
X017010Y007609D01*
X017010Y007196D01*
X016960Y007147D01*
X016921Y007052D01*
X016921Y006948D01*
X016960Y006853D01*
X017033Y006780D01*
X017128Y006741D01*
X017232Y006741D01*
X017327Y006780D01*
X017400Y006853D01*
X017439Y006948D01*
X017439Y007052D01*
X017400Y007147D01*
X017350Y007196D01*
X017350Y007609D01*
X017469Y007490D01*
X017510Y007490D01*
X017510Y005260D01*
X017469Y005260D01*
X017180Y004971D01*
X016891Y005260D01*
X016850Y005260D01*
X016850Y005570D01*
X016750Y005670D01*
X016439Y005981D01*
X016439Y006052D01*
X016400Y006147D01*
X016327Y006220D01*
X016232Y006259D01*
X016128Y006259D01*
X016033Y006220D01*
X015960Y006147D01*
X015921Y006052D01*
X015921Y005948D01*
X015960Y005853D01*
X016033Y005780D01*
X016128Y005741D01*
X016199Y005741D01*
X016510Y005430D01*
X016510Y005260D01*
X016469Y005260D01*
X016170Y004961D01*
X016170Y004750D01*
X015850Y005070D01*
X015850Y007304D01*
X015900Y007353D01*
X015939Y007448D01*
X015939Y007552D01*
X015900Y007647D01*
X015827Y007720D01*
X015732Y007759D01*
X015628Y007759D01*
X015533Y007720D01*
X015460Y007647D01*
X015421Y007552D01*
X015421Y007448D01*
X015460Y007353D01*
X015510Y007304D01*
X015510Y004930D01*
X016324Y004115D01*
X016170Y003961D01*
X016170Y003539D01*
X016459Y003250D01*
X016170Y002961D01*
X016170Y002539D01*
X016469Y002240D01*
X016891Y002240D01*
X017010Y002359D01*
X017010Y001670D01*
X016250Y001670D01*
X015179Y002741D01*
X015232Y002741D01*
X015327Y002780D01*
X015400Y002853D01*
X015439Y002948D01*
X015439Y003052D01*
X015400Y003147D01*
X015350Y003196D01*
X015350Y009804D01*
X015400Y009853D01*
X015439Y009948D01*
X015439Y010052D01*
X015400Y010147D01*
X015327Y010220D01*
X015232Y010259D01*
X015128Y010259D01*
X015033Y010220D01*
X014960Y010147D01*
X014921Y010052D01*
X014921Y009948D01*
X014960Y009853D01*
X014921Y010010D02*
X014850Y010010D01*
X014850Y010169D02*
X014982Y010169D01*
X014850Y010327D02*
X016010Y010327D01*
X016010Y010169D02*
X015378Y010169D01*
X015439Y010010D02*
X016010Y010010D01*
X016010Y009852D02*
X015398Y009852D01*
X015350Y009693D02*
X016010Y009693D01*
X016010Y009535D02*
X015350Y009535D01*
X015350Y009376D02*
X016010Y009376D01*
X016010Y009218D02*
X015350Y009218D01*
X015350Y009059D02*
X016010Y009059D01*
X016010Y008901D02*
X015350Y008901D01*
X015350Y008742D02*
X016010Y008742D01*
X015934Y008584D02*
X015350Y008584D01*
X015350Y008425D02*
X015931Y008425D01*
X016067Y008267D02*
X015350Y008267D01*
X015350Y008108D02*
X016170Y008108D01*
X016170Y007950D02*
X015350Y007950D01*
X015350Y007791D02*
X016170Y007791D01*
X016326Y007633D02*
X015906Y007633D01*
X015939Y007474D02*
X017010Y007474D01*
X017010Y007316D02*
X015862Y007316D01*
X015850Y007157D02*
X016971Y007157D01*
X016921Y006999D02*
X015850Y006999D01*
X015850Y006840D02*
X016974Y006840D01*
X017386Y006840D02*
X017510Y006840D01*
X017510Y006682D02*
X015850Y006682D01*
X015850Y006523D02*
X017510Y006523D01*
X017510Y006365D02*
X015850Y006365D01*
X015850Y006206D02*
X016020Y006206D01*
X015921Y006048D02*
X015850Y006048D01*
X015850Y005889D02*
X015946Y005889D01*
X015850Y005731D02*
X016209Y005731D01*
X016368Y005572D02*
X015850Y005572D01*
X015850Y005414D02*
X016510Y005414D01*
X016464Y005255D02*
X015850Y005255D01*
X015850Y005097D02*
X016305Y005097D01*
X016170Y004938D02*
X015982Y004938D01*
X016141Y004780D02*
X016170Y004780D01*
X015977Y004463D02*
X015350Y004463D01*
X015350Y004621D02*
X015819Y004621D01*
X015660Y004780D02*
X015350Y004780D01*
X015350Y004938D02*
X015510Y004938D01*
X015510Y005097D02*
X015350Y005097D01*
X015350Y005255D02*
X015510Y005255D01*
X015510Y005414D02*
X015350Y005414D01*
X015350Y005572D02*
X015510Y005572D01*
X015510Y005731D02*
X015350Y005731D01*
X015350Y005889D02*
X015510Y005889D01*
X015510Y006048D02*
X015350Y006048D01*
X015350Y006206D02*
X015510Y006206D01*
X015510Y006365D02*
X015350Y006365D01*
X015350Y006523D02*
X015510Y006523D01*
X015510Y006682D02*
X015350Y006682D01*
X015350Y006840D02*
X015510Y006840D01*
X015510Y006999D02*
X015350Y006999D01*
X015350Y007157D02*
X015510Y007157D01*
X015498Y007316D02*
X015350Y007316D01*
X015350Y007474D02*
X015421Y007474D01*
X015454Y007633D02*
X015350Y007633D01*
X015010Y007633D02*
X014850Y007633D01*
X014850Y007791D02*
X015010Y007791D01*
X015010Y007950D02*
X014850Y007950D01*
X014850Y008108D02*
X015010Y008108D01*
X015010Y008267D02*
X014850Y008267D01*
X014850Y008425D02*
X015010Y008425D01*
X015010Y008584D02*
X014850Y008584D01*
X014850Y008742D02*
X015010Y008742D01*
X015010Y008901D02*
X014850Y008901D01*
X014850Y009059D02*
X015010Y009059D01*
X015010Y009218D02*
X014850Y009218D01*
X014850Y009376D02*
X015010Y009376D01*
X015010Y009535D02*
X014850Y009535D01*
X014850Y009693D02*
X015010Y009693D01*
X014510Y009376D02*
X013796Y009376D01*
X013638Y009218D02*
X014510Y009218D01*
X014510Y009059D02*
X014465Y009059D01*
X013895Y009059D02*
X013479Y009059D01*
X013321Y008901D02*
X013760Y008901D01*
X013760Y008742D02*
X013162Y008742D01*
X013004Y008584D02*
X013760Y008584D01*
X013840Y008425D02*
X012850Y008425D01*
X012850Y008267D02*
X013840Y008267D01*
X013840Y008108D02*
X012850Y008108D01*
X012850Y007950D02*
X013840Y007950D01*
X013740Y007791D02*
X012850Y007791D01*
X012850Y007633D02*
X013582Y007633D01*
X013423Y007474D02*
X012850Y007474D01*
X012850Y007316D02*
X013340Y007316D01*
X013340Y007157D02*
X012850Y007157D01*
X012850Y006999D02*
X013231Y006999D01*
X013170Y006840D02*
X012850Y006840D01*
X012850Y006682D02*
X013170Y006682D01*
X013222Y006523D02*
X012850Y006523D01*
X012850Y006365D02*
X013344Y006365D01*
X012850Y006206D02*
X014010Y006206D01*
X014010Y006048D02*
X012850Y006048D01*
X012850Y005889D02*
X014010Y005889D01*
X014010Y005731D02*
X012850Y005731D01*
X012850Y005572D02*
X013908Y005572D01*
X013760Y005414D02*
X012850Y005414D01*
X012850Y005255D02*
X013760Y005255D01*
X013760Y005097D02*
X012850Y005097D01*
X012850Y004938D02*
X013898Y004938D01*
X014061Y004621D02*
X012541Y004621D01*
X012383Y004463D02*
X013902Y004463D01*
X014010Y004570D02*
X014010Y004570D01*
X013744Y004304D02*
X012358Y004304D01*
X012448Y004146D02*
X013585Y004146D01*
X013510Y003987D02*
X012470Y003987D01*
X012437Y003829D02*
X013510Y003829D01*
X013510Y003670D02*
X012332Y003670D01*
X012332Y003330D02*
X013750Y003330D01*
X013840Y003420D01*
X013840Y003141D01*
X013392Y002693D01*
X013340Y002568D01*
X013340Y002131D01*
X013248Y002039D01*
X013170Y001851D01*
X013170Y001649D01*
X013248Y001461D01*
X013391Y001318D01*
X013579Y001240D01*
X013781Y001240D01*
X013969Y001318D01*
X014112Y001461D01*
X014159Y001574D01*
X014170Y001539D01*
X014210Y001462D01*
X014260Y001392D01*
X014322Y001330D01*
X014392Y001280D01*
X014469Y001240D01*
X014551Y001214D01*
X014637Y001200D01*
X014680Y001200D01*
X014723Y001200D01*
X014809Y001214D01*
X014891Y001240D01*
X014968Y001280D01*
X015038Y001330D01*
X015100Y001392D01*
X015150Y001462D01*
X015190Y001539D01*
X015216Y001621D01*
X015230Y001707D01*
X015230Y001750D01*
X015230Y001793D01*
X015216Y001879D01*
X015190Y001961D01*
X015150Y002038D01*
X015100Y002108D01*
X015038Y002170D01*
X014968Y002220D01*
X014891Y002260D01*
X014809Y002286D01*
X014723Y002300D01*
X014680Y002300D01*
X014680Y001750D01*
X014680Y001750D01*
X015230Y001750D01*
X014680Y001750D01*
X014680Y001750D01*
X014680Y002300D01*
X014637Y002300D01*
X014551Y002286D01*
X014469Y002260D01*
X014392Y002220D01*
X014322Y002170D01*
X014260Y002108D01*
X014210Y002038D01*
X014170Y001961D01*
X014159Y001926D01*
X014112Y002039D01*
X014020Y002131D01*
X014020Y002359D01*
X014373Y002712D01*
X014468Y002807D01*
X014516Y002923D01*
X016010Y001430D01*
X016110Y001330D01*
X017250Y001330D01*
X017350Y001430D01*
X017350Y002302D01*
X017452Y002200D01*
X017660Y002200D01*
X017660Y002730D01*
X017700Y002730D01*
X017700Y002770D01*
X018230Y002770D01*
X018230Y002978D01*
X017930Y003278D01*
X018190Y003539D01*
X018190Y003961D01*
X017901Y004250D01*
X018190Y004539D01*
X018190Y004961D01*
X017891Y005260D01*
X017850Y005260D01*
X017850Y007490D01*
X017891Y007490D01*
X018190Y007789D01*
X018190Y008211D01*
X017901Y008500D01*
X018190Y008789D01*
X018190Y009211D01*
X017901Y009500D01*
X018190Y009789D01*
X018190Y010211D01*
X017901Y010500D01*
X018190Y010789D01*
X018190Y011211D01*
X017901Y011500D01*
X018190Y011789D01*
X018190Y012211D01*
X017901Y012500D01*
X018190Y012789D01*
X018190Y013211D01*
X018160Y013241D01*
X018199Y013241D01*
X019010Y012430D01*
X019010Y001170D01*
X012750Y001170D01*
X011385Y002535D01*
X011904Y002535D01*
X012421Y002019D01*
X012421Y001948D01*
X012460Y001853D01*
X012533Y001780D01*
X012628Y001741D01*
X012732Y001741D01*
X012827Y001780D01*
X012900Y001853D01*
X012939Y001948D01*
X012939Y002052D01*
X012900Y002147D01*
X012827Y002220D01*
X012732Y002259D01*
X012661Y002259D01*
X012291Y002629D01*
X012399Y002737D01*
X012470Y002908D01*
X012470Y003092D01*
X012399Y003263D01*
X012332Y003330D01*
X012427Y003195D02*
X013840Y003195D01*
X013840Y003353D02*
X013773Y003353D01*
X013735Y003036D02*
X012470Y003036D01*
X012457Y002878D02*
X013577Y002878D01*
X013418Y002719D02*
X012381Y002719D01*
X012360Y002561D02*
X013340Y002561D01*
X013340Y002402D02*
X012518Y002402D01*
X012769Y002244D02*
X013340Y002244D01*
X013294Y002085D02*
X012925Y002085D01*
X012930Y001927D02*
X013201Y001927D01*
X013170Y001768D02*
X012797Y001768D01*
X012563Y001768D02*
X012152Y001768D01*
X011994Y001927D02*
X012430Y001927D01*
X012355Y002085D02*
X011835Y002085D01*
X011677Y002244D02*
X012196Y002244D01*
X012038Y002402D02*
X011518Y002402D01*
X011355Y002085D02*
X005520Y002085D01*
X005520Y002244D02*
X011196Y002244D01*
X011038Y002402D02*
X005520Y002402D01*
X005520Y002561D02*
X008202Y002561D01*
X007979Y002719D02*
X005520Y002719D01*
X005520Y002878D02*
X007903Y002878D01*
X007890Y003036D02*
X005520Y003036D01*
X005520Y003195D02*
X007933Y003195D01*
X008051Y003353D02*
X005520Y003353D01*
X005520Y003512D02*
X006049Y003512D01*
X006062Y003507D02*
X006140Y003495D01*
X006180Y003495D01*
X006180Y004000D01*
X006180Y004000D01*
X006180Y004000D01*
X005675Y004000D01*
X005675Y004040D01*
X005687Y004118D01*
X005712Y004194D01*
X005748Y004265D01*
X005795Y004329D01*
X005851Y004385D01*
X005915Y004432D01*
X005986Y004468D01*
X006062Y004493D01*
X006140Y004505D01*
X006180Y004505D01*
X006180Y004000D01*
X005675Y004000D01*
X005675Y003960D01*
X005687Y003882D01*
X005712Y003806D01*
X005748Y003735D01*
X005795Y003671D01*
X005851Y003615D01*
X005915Y003568D01*
X005986Y003532D01*
X006062Y003507D01*
X006180Y003512D02*
X006180Y003512D01*
X006180Y003670D02*
X006180Y003670D01*
X006180Y003829D02*
X006180Y003829D01*
X006180Y003987D02*
X006180Y003987D01*
X006180Y004146D02*
X006180Y004146D01*
X006180Y004304D02*
X006180Y004304D01*
X006180Y004463D02*
X006180Y004463D01*
X005975Y004463D02*
X005565Y004463D01*
X005645Y004304D02*
X005777Y004304D01*
X005696Y004146D02*
X005645Y004146D01*
X005645Y003987D02*
X005675Y003987D01*
X005645Y003829D02*
X005705Y003829D01*
X005645Y003670D02*
X005796Y003670D01*
X006385Y004463D02*
X008257Y004463D01*
X007943Y004780D02*
X003616Y004780D01*
X003624Y004782D02*
X003695Y004818D01*
X003759Y004865D01*
X003815Y004921D01*
X003862Y004985D01*
X003898Y005056D01*
X003923Y005132D01*
X003935Y005210D01*
X003935Y005250D01*
X003935Y005290D01*
X003923Y005368D01*
X003898Y005444D01*
X003862Y005515D01*
X003815Y005579D01*
X003759Y005635D01*
X003695Y005682D01*
X003624Y005718D01*
X003548Y005743D01*
X003470Y005755D01*
X003430Y005755D01*
X003430Y005250D01*
X003935Y005250D01*
X003430Y005250D01*
X003430Y005250D01*
X003430Y005250D01*
X003430Y004745D01*
X003470Y004745D01*
X003548Y004757D01*
X003624Y004782D01*
X003430Y004780D02*
X003430Y004780D01*
X003430Y004745D02*
X003430Y005250D01*
X003430Y005250D01*
X003430Y005250D01*
X002925Y005250D01*
X002925Y005290D01*
X002937Y005368D01*
X002962Y005444D01*
X002998Y005515D01*
X003045Y005579D01*
X003101Y005635D01*
X003165Y005682D01*
X003236Y005718D01*
X003312Y005743D01*
X003390Y005755D01*
X003430Y005755D01*
X003430Y005250D01*
X002925Y005250D01*
X002925Y005210D01*
X002937Y005132D01*
X002962Y005056D01*
X002998Y004985D01*
X003045Y004921D01*
X003101Y004865D01*
X003165Y004818D01*
X003236Y004782D01*
X003312Y004757D01*
X003390Y004745D01*
X003430Y004745D01*
X003244Y004780D02*
X002770Y004780D01*
X002895Y004938D02*
X003032Y004938D01*
X002949Y005097D02*
X002895Y005097D01*
X002895Y005255D02*
X002925Y005255D01*
X002895Y005414D02*
X002952Y005414D01*
X002895Y005572D02*
X003040Y005572D01*
X003275Y005731D02*
X001930Y005731D01*
X001772Y005889D02*
X007898Y005889D01*
X007890Y006048D02*
X001613Y006048D01*
X001520Y006206D02*
X007937Y006206D01*
X007967Y005731D02*
X003585Y005731D01*
X003430Y005731D02*
X003430Y005731D01*
X003430Y005572D02*
X003430Y005572D01*
X003430Y005414D02*
X003430Y005414D01*
X003430Y005255D02*
X003430Y005255D01*
X003430Y005097D02*
X003430Y005097D01*
X003430Y004938D02*
X003430Y004938D01*
X003828Y004938D02*
X007890Y004938D01*
X007892Y005097D02*
X003911Y005097D01*
X003935Y005255D02*
X007958Y005255D01*
X008139Y005414D02*
X003908Y005414D01*
X003820Y005572D02*
X008174Y005572D01*
X007310Y006682D02*
X002850Y006682D01*
X002864Y006840D02*
X003968Y006840D01*
X003998Y006810D02*
X004180Y006810D01*
X004362Y006810D01*
X004620Y007068D01*
X004620Y007250D01*
X004620Y007432D01*
X004362Y007690D01*
X004180Y007690D01*
X004180Y007250D01*
X004620Y007250D01*
X004180Y007250D01*
X004180Y007250D01*
X004180Y007250D01*
X004180Y006810D01*
X004180Y007250D01*
X004180Y007250D01*
X004180Y007250D01*
X003740Y007250D01*
X003740Y007432D01*
X003998Y007690D01*
X004180Y007690D01*
X004180Y007250D01*
X003740Y007250D01*
X003740Y007068D01*
X003998Y006810D01*
X004180Y006840D02*
X004180Y006840D01*
X004180Y006999D02*
X004180Y006999D01*
X004180Y007157D02*
X004180Y007157D01*
X004180Y007316D02*
X004180Y007316D01*
X004180Y007474D02*
X004180Y007474D01*
X004180Y007633D02*
X004180Y007633D01*
X003940Y007633D02*
X003020Y007633D01*
X003020Y007791D02*
X005158Y007791D01*
X005317Y007633D02*
X004420Y007633D01*
X004578Y007474D02*
X005475Y007474D01*
X005634Y007316D02*
X004620Y007316D01*
X004620Y007157D02*
X005780Y007157D01*
X005866Y006999D02*
X004551Y006999D01*
X004392Y006840D02*
X007109Y006840D01*
X007437Y007474D02*
X010010Y007474D01*
X010350Y007474D02*
X012510Y007474D01*
X012510Y007316D02*
X012347Y007316D01*
X012399Y007263D02*
X012268Y007394D01*
X012097Y007465D01*
X011263Y007465D01*
X011092Y007394D01*
X010961Y007263D01*
X010890Y007092D01*
X010890Y006908D01*
X010961Y006737D01*
X011092Y006606D01*
X011263Y006535D01*
X012097Y006535D01*
X012268Y006606D01*
X012399Y006737D01*
X012470Y006908D01*
X012470Y007092D01*
X012399Y007263D01*
X012443Y007157D02*
X012510Y007157D01*
X012510Y006999D02*
X012470Y006999D01*
X012442Y006840D02*
X012510Y006840D01*
X012510Y006682D02*
X012344Y006682D01*
X012510Y006523D02*
X010350Y006523D01*
X010350Y006365D02*
X011062Y006365D01*
X011092Y006394D02*
X010961Y006263D01*
X010890Y006092D01*
X010890Y005908D01*
X010961Y005737D01*
X011092Y005606D01*
X011263Y005535D01*
X012097Y005535D01*
X012268Y005606D01*
X012399Y005737D01*
X012470Y005908D01*
X012470Y006092D01*
X012399Y006263D01*
X012268Y006394D01*
X012097Y006465D01*
X011263Y006465D01*
X011092Y006394D01*
X010937Y006206D02*
X010350Y006206D01*
X010350Y006048D02*
X010890Y006048D01*
X010898Y005889D02*
X010350Y005889D01*
X010350Y005731D02*
X010967Y005731D01*
X011174Y005572D02*
X010350Y005572D01*
X010350Y005414D02*
X011139Y005414D01*
X010958Y005255D02*
X010350Y005255D01*
X010350Y005097D02*
X010892Y005097D01*
X010890Y004938D02*
X010350Y004938D01*
X010350Y004780D02*
X010943Y004780D01*
X011061Y004621D02*
X010350Y004621D01*
X010350Y004463D02*
X010902Y004463D01*
X010744Y004304D02*
X010350Y004304D01*
X010350Y004146D02*
X010585Y004146D01*
X010510Y003987D02*
X010350Y003987D01*
X010350Y003829D02*
X010611Y003829D01*
X010770Y003670D02*
X010350Y003670D01*
X010409Y003512D02*
X010928Y003512D01*
X011051Y003353D02*
X010567Y003353D01*
X010726Y003195D02*
X010933Y003195D01*
X010890Y003036D02*
X010884Y003036D01*
X010721Y002719D02*
X009381Y002719D01*
X009158Y002561D02*
X010879Y002561D01*
X010562Y002878D02*
X009910Y002878D01*
X009939Y003036D02*
X010404Y003036D01*
X010245Y003195D02*
X009852Y003195D01*
X009850Y003353D02*
X010087Y003353D01*
X010010Y003512D02*
X009850Y003512D01*
X009850Y003670D02*
X010010Y003670D01*
X010010Y003829D02*
X009850Y003829D01*
X009850Y003987D02*
X010010Y003987D01*
X010010Y004146D02*
X009850Y004146D01*
X009850Y004304D02*
X010010Y004304D01*
X010010Y004463D02*
X009850Y004463D01*
X009850Y004621D02*
X010010Y004621D01*
X010010Y004780D02*
X009850Y004780D01*
X009850Y004938D02*
X010010Y004938D01*
X009510Y003353D02*
X009309Y003353D01*
X009427Y003195D02*
X009508Y003195D01*
X011513Y001927D02*
X005604Y001927D01*
X005620Y001768D02*
X011672Y001768D01*
X011830Y001610D02*
X005620Y001610D01*
X005620Y001451D02*
X011989Y001451D01*
X012147Y001293D02*
X005620Y001293D01*
X005620Y001134D02*
X012306Y001134D01*
X012464Y000976D02*
X005563Y000976D01*
X005405Y000817D02*
X019381Y000817D01*
X019350Y000976D02*
X019542Y000976D01*
X019644Y001134D02*
X019350Y001134D01*
X019350Y001293D02*
X019695Y001293D01*
X019722Y001451D02*
X019350Y001451D01*
X019350Y001610D02*
X019725Y001610D01*
X019725Y001768D02*
X019350Y001768D01*
X019350Y001927D02*
X019725Y001927D01*
X019725Y002085D02*
X019350Y002085D01*
X019350Y002244D02*
X019725Y002244D01*
X019725Y002402D02*
X019350Y002402D01*
X019350Y002561D02*
X019725Y002561D01*
X019725Y002719D02*
X019350Y002719D01*
X019350Y002878D02*
X019725Y002878D01*
X019725Y003036D02*
X019350Y003036D01*
X019350Y003195D02*
X019725Y003195D01*
X019725Y003353D02*
X019350Y003353D01*
X019350Y003512D02*
X019725Y003512D01*
X019725Y003670D02*
X019350Y003670D01*
X019350Y003829D02*
X019725Y003829D01*
X019725Y003987D02*
X019350Y003987D01*
X019350Y004146D02*
X019725Y004146D01*
X019725Y004304D02*
X019350Y004304D01*
X019350Y004463D02*
X019725Y004463D01*
X019725Y004621D02*
X019350Y004621D01*
X019350Y004780D02*
X019725Y004780D01*
X019725Y004938D02*
X019350Y004938D01*
X019350Y005097D02*
X019725Y005097D01*
X019725Y005255D02*
X019350Y005255D01*
X019350Y005414D02*
X019725Y005414D01*
X019725Y005572D02*
X019350Y005572D01*
X019350Y005731D02*
X019725Y005731D01*
X019725Y005889D02*
X019350Y005889D01*
X019350Y006048D02*
X019725Y006048D01*
X019725Y006206D02*
X019350Y006206D01*
X019350Y006365D02*
X019725Y006365D01*
X019725Y006523D02*
X019350Y006523D01*
X019350Y006682D02*
X019725Y006682D01*
X019725Y006840D02*
X019350Y006840D01*
X019350Y006999D02*
X019725Y006999D01*
X019725Y007157D02*
X019350Y007157D01*
X019350Y007316D02*
X019725Y007316D01*
X019725Y007474D02*
X019350Y007474D01*
X019350Y007633D02*
X019725Y007633D01*
X019725Y007791D02*
X019350Y007791D01*
X019350Y007950D02*
X019725Y007950D01*
X019725Y008108D02*
X019350Y008108D01*
X019350Y008267D02*
X019725Y008267D01*
X019725Y008425D02*
X019350Y008425D01*
X019350Y008584D02*
X019725Y008584D01*
X019725Y008742D02*
X019350Y008742D01*
X019350Y008901D02*
X019725Y008901D01*
X019725Y009059D02*
X019350Y009059D01*
X019350Y009218D02*
X019725Y009218D01*
X019725Y009376D02*
X019350Y009376D01*
X019350Y009535D02*
X019725Y009535D01*
X019725Y009693D02*
X019350Y009693D01*
X019350Y009852D02*
X019725Y009852D01*
X019725Y010010D02*
X019350Y010010D01*
X019350Y010169D02*
X019725Y010169D01*
X019725Y010327D02*
X019350Y010327D01*
X019350Y010486D02*
X019725Y010486D01*
X019725Y010644D02*
X019350Y010644D01*
X019350Y010803D02*
X019725Y010803D01*
X019725Y010961D02*
X019350Y010961D01*
X019350Y011120D02*
X019725Y011120D01*
X019725Y011278D02*
X019350Y011278D01*
X019350Y011437D02*
X019725Y011437D01*
X019725Y011595D02*
X019350Y011595D01*
X019350Y011754D02*
X019725Y011754D01*
X019725Y011912D02*
X019350Y011912D01*
X019350Y012071D02*
X019725Y012071D01*
X019725Y012229D02*
X019350Y012229D01*
X019350Y012388D02*
X019725Y012388D01*
X019725Y012546D02*
X019350Y012546D01*
X019216Y012705D02*
X019725Y012705D01*
X019725Y012863D02*
X019057Y012863D01*
X018899Y013022D02*
X019725Y013022D01*
X019725Y013180D02*
X018740Y013180D01*
X018582Y013339D02*
X019725Y013339D01*
X019725Y013497D02*
X018439Y013497D01*
X018391Y013656D02*
X019725Y013656D01*
X019725Y013814D02*
X018190Y013814D01*
X018190Y013973D02*
X019725Y013973D01*
X019725Y014131D02*
X018190Y014131D01*
X018112Y014290D02*
X019725Y014290D01*
X019725Y014448D02*
X017953Y014448D01*
X018008Y014607D02*
X019725Y014607D01*
X019725Y014765D02*
X018166Y014765D01*
X018190Y014924D02*
X019725Y014924D01*
X019725Y015082D02*
X018190Y015082D01*
X018161Y015241D02*
X019725Y015241D01*
X019725Y015399D02*
X018002Y015399D01*
X017959Y015558D02*
X019725Y015558D01*
X019725Y015716D02*
X018117Y015716D01*
X018190Y015875D02*
X019725Y015875D01*
X019725Y016033D02*
X018190Y016033D01*
X018190Y016192D02*
X019725Y016192D01*
X019725Y016350D02*
X018051Y016350D01*
X017966Y016509D02*
X019725Y016509D01*
X019725Y016667D02*
X018125Y016667D01*
X018230Y016826D02*
X019725Y016826D01*
X019725Y016984D02*
X017700Y016984D01*
X017700Y017020D02*
X018230Y017020D01*
X018230Y017228D01*
X017908Y017550D01*
X017700Y017550D01*
X017700Y017020D01*
X017700Y017143D02*
X017660Y017143D01*
X017660Y017301D02*
X017700Y017301D01*
X017700Y017460D02*
X017660Y017460D01*
X017362Y017460D02*
X016942Y017460D01*
X017100Y017301D02*
X017203Y017301D01*
X016418Y017460D02*
X016350Y017460D01*
X016350Y017618D02*
X019725Y017618D01*
X019725Y017460D02*
X017998Y017460D01*
X018157Y017301D02*
X019725Y017301D01*
X019725Y017143D02*
X018230Y017143D01*
X018527Y018230D02*
X018833Y018230D01*
X019116Y018347D01*
X019333Y018564D01*
X019450Y018847D01*
X019450Y019153D01*
X019333Y019436D01*
X019116Y019653D01*
X018833Y019770D01*
X018527Y019770D01*
X018244Y019653D01*
X018027Y019436D01*
X017910Y019153D01*
X017910Y018847D01*
X018027Y018564D01*
X018244Y018347D01*
X018527Y018230D01*
X018474Y018252D02*
X016350Y018252D01*
X016350Y018094D02*
X019725Y018094D01*
X019725Y018252D02*
X018886Y018252D01*
X019179Y018411D02*
X019725Y018411D01*
X019725Y018569D02*
X019335Y018569D01*
X019400Y018728D02*
X019725Y018728D01*
X019725Y018886D02*
X019450Y018886D01*
X019450Y019045D02*
X019725Y019045D01*
X019722Y019203D02*
X019429Y019203D01*
X019364Y019362D02*
X019685Y019362D01*
X019613Y019520D02*
X019249Y019520D01*
X019054Y019679D02*
X019511Y019679D01*
X019366Y019837D02*
X009074Y019837D01*
X009232Y019679D02*
X018306Y019679D01*
X018111Y019520D02*
X009391Y019520D01*
X009549Y019362D02*
X017996Y019362D01*
X017931Y019203D02*
X009708Y019203D01*
X009866Y019045D02*
X013484Y019045D01*
X013326Y018886D02*
X010025Y018886D01*
X010183Y018728D02*
X012552Y018728D01*
X012428Y018569D02*
X010269Y018569D01*
X010270Y018411D02*
X012437Y018411D01*
X012850Y018252D02*
X013010Y018252D01*
X013010Y018094D02*
X012850Y018094D01*
X012850Y017935D02*
X013010Y017935D01*
X013010Y017777D02*
X012850Y017777D01*
X012850Y017618D02*
X013010Y017618D01*
X013010Y017460D02*
X012850Y017460D01*
X012850Y017301D02*
X013010Y017301D01*
X013010Y017143D02*
X012850Y017143D01*
X012850Y016984D02*
X013010Y016984D01*
X013010Y016826D02*
X012746Y016826D01*
X012587Y016667D02*
X013010Y016667D01*
X012948Y016509D02*
X012429Y016509D01*
X012312Y016350D02*
X012790Y016350D01*
X012505Y016192D02*
X012429Y016192D01*
X012378Y015716D02*
X012530Y015716D01*
X012423Y015558D02*
X012151Y015558D01*
X012256Y015399D02*
X012441Y015399D01*
X012408Y015241D02*
X012510Y015241D01*
X012510Y015082D02*
X012470Y015082D01*
X012470Y014924D02*
X012510Y014924D01*
X012510Y014765D02*
X012411Y014765D01*
X012510Y014607D02*
X012269Y014607D01*
X012138Y014448D02*
X012510Y014448D01*
X012510Y014290D02*
X012373Y014290D01*
X012454Y014131D02*
X012510Y014131D01*
X012510Y013973D02*
X012470Y013973D01*
X012431Y013814D02*
X012510Y013814D01*
X012510Y013656D02*
X012318Y013656D01*
X012850Y014924D02*
X013510Y014924D01*
X013510Y015082D02*
X012850Y015082D01*
X012850Y015241D02*
X013510Y015241D01*
X013510Y015399D02*
X012919Y015399D01*
X012937Y015558D02*
X013510Y015558D01*
X013510Y015716D02*
X012830Y015716D01*
X012908Y015875D02*
X013510Y015875D01*
X013510Y016033D02*
X012953Y016033D01*
X013112Y016192D02*
X013510Y016192D01*
X013510Y016350D02*
X013270Y016350D01*
X013350Y016509D02*
X013510Y016509D01*
X013510Y016667D02*
X013350Y016667D01*
X013350Y016826D02*
X013510Y016826D01*
X013510Y016984D02*
X013350Y016984D01*
X013350Y017143D02*
X013510Y017143D01*
X013510Y017301D02*
X013350Y017301D01*
X013350Y017460D02*
X013510Y017460D01*
X013510Y017618D02*
X013350Y017618D01*
X013350Y017777D02*
X013510Y017777D01*
X013510Y017935D02*
X013350Y017935D01*
X013350Y018094D02*
X013533Y018094D01*
X013692Y018252D02*
X013350Y018252D01*
X013350Y018411D02*
X013765Y018411D01*
X013765Y018569D02*
X013489Y018569D01*
X013648Y018728D02*
X013765Y018728D01*
X013167Y018728D02*
X012808Y018728D01*
X012932Y018569D02*
X013010Y018569D01*
X013010Y018411D02*
X012923Y018411D01*
X013850Y017930D02*
X013955Y018035D01*
X014613Y018035D01*
X014695Y018117D01*
X014695Y018830D01*
X014846Y018830D01*
X014845Y018829D01*
X014798Y018765D01*
X014762Y018694D01*
X014737Y018618D01*
X014725Y018540D01*
X014725Y018500D01*
X015230Y018500D01*
X015735Y018500D01*
X015735Y018540D01*
X015723Y018618D01*
X015698Y018694D01*
X015662Y018765D01*
X015615Y018829D01*
X015614Y018830D01*
X016010Y018830D01*
X016010Y014430D01*
X016199Y014240D01*
X016170Y014211D01*
X016170Y013789D01*
X016289Y013670D01*
X016250Y013670D01*
X015939Y013981D01*
X015939Y014052D01*
X015900Y014147D01*
X015827Y014220D01*
X015732Y014259D01*
X015628Y014259D01*
X015533Y014220D01*
X015460Y014147D01*
X015421Y014052D01*
X015421Y013999D01*
X014439Y014981D01*
X014439Y015052D01*
X014400Y015147D01*
X014327Y015220D01*
X014232Y015259D01*
X014128Y015259D01*
X014033Y015220D01*
X013960Y015147D01*
X013921Y015052D01*
X013921Y014948D01*
X013960Y014853D01*
X013964Y014850D01*
X013850Y014736D01*
X013850Y016208D01*
X013998Y016060D01*
X014180Y016060D01*
X014362Y016060D01*
X014620Y016318D01*
X014620Y016500D01*
X014620Y016682D01*
X014362Y016940D01*
X014180Y016940D01*
X014180Y016500D01*
X014180Y016500D01*
X014620Y016500D01*
X014180Y016500D01*
X014180Y016500D01*
X014180Y016940D01*
X013998Y016940D01*
X013850Y016792D01*
X013850Y017930D01*
X013855Y017935D02*
X016010Y017935D01*
X016010Y017777D02*
X013850Y017777D01*
X013850Y017618D02*
X016010Y017618D01*
X016010Y017460D02*
X013850Y017460D01*
X013850Y017301D02*
X016010Y017301D01*
X016010Y017143D02*
X013850Y017143D01*
X013850Y016984D02*
X016010Y016984D01*
X016010Y016826D02*
X014477Y016826D01*
X014620Y016667D02*
X016010Y016667D01*
X016010Y016509D02*
X014620Y016509D01*
X014620Y016350D02*
X016010Y016350D01*
X016010Y016192D02*
X014494Y016192D01*
X014180Y016192D02*
X014180Y016192D01*
X014180Y016060D02*
X014180Y016500D01*
X014180Y016500D01*
X014180Y016060D01*
X013866Y016192D02*
X013850Y016192D01*
X013850Y016033D02*
X016010Y016033D01*
X016010Y015875D02*
X013850Y015875D01*
X013850Y015716D02*
X016010Y015716D01*
X016010Y015558D02*
X013850Y015558D01*
X013850Y015399D02*
X016010Y015399D01*
X016010Y015241D02*
X014276Y015241D01*
X014084Y015241D02*
X013850Y015241D01*
X013850Y015082D02*
X013934Y015082D01*
X013931Y014924D02*
X013850Y014924D01*
X013850Y014765D02*
X013879Y014765D01*
X014426Y015082D02*
X016010Y015082D01*
X016010Y014924D02*
X014497Y014924D01*
X014655Y014765D02*
X016010Y014765D01*
X016010Y014607D02*
X014814Y014607D01*
X014972Y014448D02*
X016010Y014448D01*
X016150Y014290D02*
X015131Y014290D01*
X015289Y014131D02*
X015454Y014131D01*
X015126Y013814D02*
X013850Y013814D01*
X013850Y013656D02*
X015284Y013656D01*
X015443Y013497D02*
X014505Y013497D01*
X014620Y013339D02*
X015510Y013339D01*
X015510Y013180D02*
X014620Y013180D01*
X014620Y013022D02*
X015510Y013022D01*
X015510Y012863D02*
X014465Y012863D01*
X014180Y012863D02*
X014180Y012863D01*
X014180Y012760D02*
X014180Y013200D01*
X014180Y013200D01*
X014180Y012760D01*
X014180Y013022D02*
X014180Y013022D01*
X014180Y013180D02*
X014180Y013180D01*
X014180Y013339D02*
X014180Y013339D01*
X014180Y013497D02*
X014180Y013497D01*
X013855Y013497D02*
X013850Y013497D01*
X013850Y013973D02*
X014967Y013973D01*
X014809Y014131D02*
X014377Y014131D01*
X014535Y014290D02*
X014650Y014290D01*
X013983Y014131D02*
X013850Y014131D01*
X013850Y012863D02*
X013895Y012863D01*
X013850Y012705D02*
X015510Y012705D01*
X015510Y012546D02*
X013850Y012546D01*
X013850Y012388D02*
X015510Y012388D01*
X015510Y012229D02*
X013850Y012229D01*
X013850Y012071D02*
X015510Y012071D01*
X015510Y011912D02*
X013850Y011912D01*
X013850Y011754D02*
X015510Y011754D01*
X015510Y011595D02*
X014351Y011595D01*
X014509Y011437D02*
X015510Y011437D01*
X015510Y011278D02*
X014580Y011278D01*
X014580Y011120D02*
X015449Y011120D01*
X015421Y010961D02*
X014507Y010961D01*
X014618Y010803D02*
X015511Y010803D01*
X015849Y010803D02*
X016170Y010803D01*
X016170Y010961D02*
X015939Y010961D01*
X015911Y011120D02*
X016170Y011120D01*
X016237Y011278D02*
X015850Y011278D01*
X015850Y011437D02*
X016395Y011437D01*
X016364Y011595D02*
X015850Y011595D01*
X015850Y011754D02*
X016205Y011754D01*
X016170Y011912D02*
X015850Y011912D01*
X015850Y012071D02*
X016170Y012071D01*
X016188Y012229D02*
X015850Y012229D01*
X015850Y012388D02*
X016346Y012388D01*
X016413Y012546D02*
X015850Y012546D01*
X015850Y012705D02*
X016254Y012705D01*
X016170Y012863D02*
X015850Y012863D01*
X015850Y013022D02*
X016170Y013022D01*
X016170Y013180D02*
X015850Y013180D01*
X015850Y013339D02*
X016101Y013339D01*
X015943Y013497D02*
X015850Y013497D01*
X015784Y013656D02*
X015765Y013656D01*
X015948Y013973D02*
X016170Y013973D01*
X016170Y014131D02*
X015906Y014131D01*
X016106Y013814D02*
X016170Y013814D01*
X017947Y012546D02*
X018894Y012546D01*
X019010Y012388D02*
X018014Y012388D01*
X018172Y012229D02*
X019010Y012229D01*
X019010Y012071D02*
X018190Y012071D01*
X018190Y011912D02*
X019010Y011912D01*
X019010Y011754D02*
X018155Y011754D01*
X017996Y011595D02*
X019010Y011595D01*
X019010Y011437D02*
X017965Y011437D01*
X018123Y011278D02*
X019010Y011278D01*
X019010Y011120D02*
X018190Y011120D01*
X018190Y010961D02*
X019010Y010961D01*
X019010Y010803D02*
X018190Y010803D01*
X018045Y010644D02*
X019010Y010644D01*
X019010Y010486D02*
X017916Y010486D01*
X018074Y010327D02*
X019010Y010327D01*
X019010Y010169D02*
X018190Y010169D01*
X018190Y010010D02*
X019010Y010010D01*
X019010Y009852D02*
X018190Y009852D01*
X018094Y009693D02*
X019010Y009693D01*
X019010Y009535D02*
X017936Y009535D01*
X018025Y009376D02*
X019010Y009376D01*
X019010Y009218D02*
X018184Y009218D01*
X018190Y009059D02*
X019010Y009059D01*
X019010Y008901D02*
X018190Y008901D01*
X018143Y008742D02*
X019010Y008742D01*
X019010Y008584D02*
X017985Y008584D01*
X017976Y008425D02*
X019010Y008425D01*
X019010Y008267D02*
X018135Y008267D01*
X018190Y008108D02*
X019010Y008108D01*
X019010Y007950D02*
X018190Y007950D01*
X018190Y007791D02*
X019010Y007791D01*
X019010Y007633D02*
X018034Y007633D01*
X017850Y007474D02*
X019010Y007474D01*
X019010Y007316D02*
X017850Y007316D01*
X017850Y007157D02*
X019010Y007157D01*
X019010Y006999D02*
X017850Y006999D01*
X017850Y006840D02*
X019010Y006840D01*
X019010Y006682D02*
X017850Y006682D01*
X017850Y006523D02*
X019010Y006523D01*
X019010Y006365D02*
X017850Y006365D01*
X017850Y006206D02*
X019010Y006206D01*
X019010Y006048D02*
X017850Y006048D01*
X017850Y005889D02*
X019010Y005889D01*
X019010Y005731D02*
X017850Y005731D01*
X017850Y005572D02*
X019010Y005572D01*
X019010Y005414D02*
X017850Y005414D01*
X017896Y005255D02*
X019010Y005255D01*
X019010Y005097D02*
X018055Y005097D01*
X018190Y004938D02*
X019010Y004938D01*
X019010Y004780D02*
X018190Y004780D01*
X018190Y004621D02*
X019010Y004621D01*
X019010Y004463D02*
X018114Y004463D01*
X017955Y004304D02*
X019010Y004304D01*
X019010Y004146D02*
X018006Y004146D01*
X018164Y003987D02*
X019010Y003987D01*
X019010Y003829D02*
X018190Y003829D01*
X018190Y003670D02*
X019010Y003670D01*
X019010Y003512D02*
X018163Y003512D01*
X018004Y003353D02*
X019010Y003353D01*
X019010Y003195D02*
X018013Y003195D01*
X018172Y003036D02*
X019010Y003036D01*
X019010Y002878D02*
X018230Y002878D01*
X018230Y002730D02*
X017700Y002730D01*
X017700Y002200D01*
X017908Y002200D01*
X018230Y002522D01*
X018230Y002730D01*
X018230Y002719D02*
X019010Y002719D01*
X019010Y002561D02*
X018230Y002561D01*
X018110Y002402D02*
X019010Y002402D01*
X019010Y002244D02*
X017951Y002244D01*
X017700Y002244D02*
X017660Y002244D01*
X017660Y002402D02*
X017700Y002402D01*
X017700Y002561D02*
X017660Y002561D01*
X017660Y002719D02*
X017700Y002719D01*
X017409Y002244D02*
X017350Y002244D01*
X017350Y002085D02*
X019010Y002085D01*
X019010Y001927D02*
X017350Y001927D01*
X017350Y001768D02*
X019010Y001768D01*
X019010Y001610D02*
X017350Y001610D01*
X017350Y001451D02*
X019010Y001451D01*
X019010Y001293D02*
X014986Y001293D01*
X015143Y001451D02*
X015989Y001451D01*
X015830Y001610D02*
X015213Y001610D01*
X015230Y001768D02*
X015672Y001768D01*
X015513Y001927D02*
X015201Y001927D01*
X015116Y002085D02*
X015355Y002085D01*
X015196Y002244D02*
X014923Y002244D01*
X015038Y002402D02*
X014063Y002402D01*
X014020Y002244D02*
X014437Y002244D01*
X014244Y002085D02*
X014066Y002085D01*
X014159Y001927D02*
X014159Y001927D01*
X014102Y001451D02*
X014217Y001451D01*
X014374Y001293D02*
X013908Y001293D01*
X013452Y001293D02*
X012628Y001293D01*
X012469Y001451D02*
X013258Y001451D01*
X013186Y001610D02*
X012311Y001610D01*
X014221Y002561D02*
X014879Y002561D01*
X014721Y002719D02*
X014380Y002719D01*
X014497Y002878D02*
X014562Y002878D01*
X014850Y003195D02*
X015008Y003195D01*
X015010Y003353D02*
X014850Y003353D01*
X014850Y003512D02*
X015010Y003512D01*
X015010Y003670D02*
X014850Y003670D01*
X014850Y003829D02*
X015010Y003829D01*
X015010Y003987D02*
X014850Y003987D01*
X014850Y004146D02*
X015010Y004146D01*
X015010Y004304D02*
X014850Y004304D01*
X014850Y004463D02*
X015010Y004463D01*
X015010Y004621D02*
X014799Y004621D01*
X015010Y004780D02*
X012700Y004780D01*
X012510Y005097D02*
X012468Y005097D01*
X012510Y005255D02*
X012402Y005255D01*
X012510Y005414D02*
X012221Y005414D01*
X012186Y005572D02*
X012510Y005572D01*
X012510Y005731D02*
X012393Y005731D01*
X012462Y005889D02*
X012510Y005889D01*
X012510Y006048D02*
X012470Y006048D01*
X012510Y006206D02*
X012423Y006206D01*
X012510Y006365D02*
X012298Y006365D01*
X012295Y007633D02*
X012510Y007633D01*
X012510Y007791D02*
X012421Y007791D01*
X012470Y007950D02*
X012510Y007950D01*
X012510Y008108D02*
X012463Y008108D01*
X012510Y008267D02*
X012396Y008267D01*
X012345Y008425D02*
X012510Y008425D01*
X012504Y008584D02*
X012523Y008584D01*
X012662Y008742D02*
X012682Y008742D01*
X011708Y009535D02*
X011652Y009535D01*
X011652Y009495D02*
X011652Y009972D01*
X010850Y009972D01*
X010850Y009960D01*
X010863Y009882D01*
X010887Y009806D01*
X010923Y009735D01*
X010970Y009671D01*
X011026Y009615D01*
X011091Y009568D01*
X011161Y009532D01*
X011237Y009508D01*
X011315Y009495D01*
X011652Y009495D01*
X011652Y009693D02*
X011708Y009693D01*
X011708Y009852D02*
X011652Y009852D01*
X011652Y010010D02*
X009910Y010010D01*
X009752Y010169D02*
X010879Y010169D01*
X010887Y010194D02*
X010863Y010118D01*
X010850Y010040D01*
X010850Y010028D01*
X011652Y010028D01*
X011652Y010505D01*
X011315Y010505D01*
X011237Y010492D01*
X011161Y010468D01*
X011091Y010432D01*
X011026Y010385D01*
X010970Y010329D01*
X010923Y010265D01*
X010887Y010194D01*
X010969Y010327D02*
X009593Y010327D01*
X009435Y010486D02*
X011216Y010486D01*
X011652Y010486D02*
X011708Y010486D01*
X011708Y010327D02*
X011652Y010327D01*
X011652Y010169D02*
X011708Y010169D01*
X012144Y010486D02*
X012925Y010486D01*
X013010Y010644D02*
X012306Y010644D01*
X012426Y010803D02*
X013010Y010803D01*
X013010Y010961D02*
X012470Y010961D01*
X012458Y011120D02*
X013010Y011120D01*
X013010Y011278D02*
X012384Y011278D01*
X012357Y011437D02*
X013010Y011437D01*
X013010Y011595D02*
X012515Y011595D01*
X012674Y011754D02*
X013010Y011754D01*
X013010Y011912D02*
X012832Y011912D01*
X013850Y011595D02*
X014009Y011595D01*
X013851Y011437D02*
X013850Y011437D01*
X014776Y010644D02*
X016084Y010644D01*
X016010Y010486D02*
X014850Y010486D01*
X012767Y010327D02*
X012391Y010327D01*
X012481Y010169D02*
X012608Y010169D01*
X011157Y009535D02*
X010350Y009535D01*
X010350Y009376D02*
X011074Y009376D01*
X010942Y009218D02*
X010350Y009218D01*
X010350Y009059D02*
X010890Y009059D01*
X010893Y008901D02*
X010350Y008901D01*
X010350Y008742D02*
X010959Y008742D01*
X011146Y008584D02*
X010350Y008584D01*
X010350Y008425D02*
X011167Y008425D01*
X010964Y008267D02*
X010350Y008267D01*
X010350Y008108D02*
X010897Y008108D01*
X010890Y007950D02*
X010350Y007950D01*
X010350Y007791D02*
X010939Y007791D01*
X011065Y007633D02*
X010350Y007633D01*
X010350Y007316D02*
X011013Y007316D01*
X010917Y007157D02*
X010350Y007157D01*
X010350Y006999D02*
X010890Y006999D01*
X010918Y006840D02*
X010350Y006840D01*
X010350Y006682D02*
X011016Y006682D01*
X008065Y007633D02*
X006363Y007633D01*
X006120Y007791D02*
X006658Y007791D01*
X006500Y007950D02*
X005961Y007950D01*
X005803Y008108D02*
X006341Y008108D01*
X006183Y008267D02*
X005644Y008267D01*
X005486Y008425D02*
X006024Y008425D01*
X005881Y008584D02*
X005263Y008584D01*
X005180Y008950D02*
X005180Y009500D01*
X005180Y009500D01*
X005180Y008950D01*
X005180Y009059D02*
X005180Y009059D01*
X005180Y009218D02*
X005180Y009218D01*
X005180Y009376D02*
X005180Y009376D01*
X005180Y009535D02*
X005180Y009535D01*
X005180Y009693D02*
X005180Y009693D01*
X005180Y009852D02*
X005180Y009852D01*
X005180Y010010D02*
X005180Y010010D01*
X004970Y010010D02*
X002910Y010010D01*
X002910Y009852D02*
X003810Y009852D01*
X003708Y009693D02*
X002910Y009693D01*
X002910Y009535D02*
X003670Y009535D01*
X003679Y009376D02*
X002910Y009376D01*
X002910Y009218D02*
X003745Y009218D01*
X003840Y009059D02*
X002910Y009059D01*
X003027Y008901D02*
X003840Y008901D01*
X003840Y008742D02*
X003080Y008742D01*
X003080Y008584D02*
X003840Y008584D01*
X003843Y008425D02*
X003021Y008425D01*
X003020Y008267D02*
X003933Y008267D01*
X004091Y008108D02*
X003020Y008108D01*
X003020Y007950D02*
X004267Y007950D01*
X003782Y007474D02*
X003050Y007474D01*
X003100Y007316D02*
X003740Y007316D01*
X003740Y007157D02*
X003100Y007157D01*
X003022Y006999D02*
X003809Y006999D01*
X002496Y006840D02*
X001520Y006840D01*
X001520Y006682D02*
X002510Y006682D01*
X002510Y006523D02*
X001520Y006523D01*
X001520Y006365D02*
X002575Y006365D01*
X002338Y006999D02*
X001522Y006999D01*
X001600Y007157D02*
X002260Y007157D01*
X002260Y007316D02*
X001600Y007316D01*
X001550Y007474D02*
X002310Y007474D01*
X002340Y007633D02*
X001391Y007633D01*
X000969Y007633D02*
X000320Y007633D01*
X000320Y007791D02*
X002340Y007791D01*
X002340Y007950D02*
X000320Y007950D01*
X000320Y008108D02*
X002340Y008108D01*
X002252Y008267D02*
X001164Y008267D01*
X001282Y008425D02*
X002119Y008425D01*
X002060Y008584D02*
X001333Y008584D01*
X001335Y008742D02*
X002060Y008742D01*
X002113Y008901D02*
X001290Y008901D01*
X001179Y009059D02*
X002230Y009059D01*
X002230Y009218D02*
X000849Y009218D01*
X000810Y009218D02*
X000770Y009218D01*
X000731Y009218D02*
X000320Y009218D01*
X000320Y009376D02*
X002230Y009376D01*
X002230Y009535D02*
X000320Y009535D01*
X000320Y009693D02*
X002230Y009693D01*
X002230Y009852D02*
X000320Y009852D01*
X000320Y010010D02*
X002230Y010010D01*
X002230Y010169D02*
X000320Y010169D01*
X000320Y010327D02*
X002230Y010327D01*
X002230Y010486D02*
X000320Y010486D01*
X000320Y010644D02*
X002230Y010644D01*
X002230Y010803D02*
X001137Y010803D01*
X001270Y010961D02*
X002129Y010961D01*
X002064Y011120D02*
X001329Y011120D01*
X001339Y011278D02*
X002060Y011278D01*
X002104Y011437D02*
X001301Y011437D01*
X001203Y011595D02*
X002214Y011595D01*
X002249Y011754D02*
X000959Y011754D01*
X000810Y011754D02*
X000770Y011754D01*
X000621Y011754D02*
X000320Y011754D01*
X000320Y011912D02*
X002361Y011912D01*
X002520Y012071D02*
X000320Y012071D01*
X000320Y012229D02*
X002678Y012229D01*
X002837Y012388D02*
X000320Y012388D01*
X000320Y012546D02*
X002995Y012546D01*
X003154Y012705D02*
X000320Y012705D01*
X000320Y012863D02*
X003312Y012863D01*
X003471Y013022D02*
X000320Y013022D01*
X000320Y013180D02*
X004840Y013180D01*
X004840Y013339D02*
X000320Y013339D01*
X000320Y013497D02*
X003956Y013497D01*
X004160Y013497D02*
X004200Y013497D01*
X004200Y013656D02*
X004160Y013656D01*
X004160Y013814D02*
X004200Y013814D01*
X004200Y013973D02*
X004160Y013973D01*
X004160Y014131D02*
X004200Y014131D01*
X004200Y014290D02*
X004160Y014290D01*
X004160Y014448D02*
X004200Y014448D01*
X004200Y014607D02*
X004160Y014607D01*
X004160Y014765D02*
X004200Y014765D01*
X004200Y014924D02*
X004160Y014924D01*
X003796Y014607D02*
X000320Y014607D01*
X000320Y014765D02*
X003682Y014765D01*
X003635Y014924D02*
X000320Y014924D01*
X000320Y015082D02*
X003636Y015082D01*
X003685Y015241D02*
X000320Y015241D01*
X000320Y015399D02*
X003801Y015399D01*
X003916Y015558D02*
X000320Y015558D01*
X000320Y015716D02*
X003746Y015716D01*
X003680Y015875D02*
X000320Y015875D01*
X000320Y016033D02*
X003670Y016033D01*
X003707Y016192D02*
X000320Y016192D01*
X000320Y016350D02*
X003809Y016350D01*
X004034Y016509D02*
X000320Y016509D01*
X000320Y016667D02*
X003345Y016667D01*
X003124Y016826D02*
X000320Y016826D01*
X000320Y016984D02*
X002965Y016984D01*
X002857Y017143D02*
X000320Y017143D01*
X000320Y017301D02*
X002840Y017301D01*
X002840Y017460D02*
X000320Y017460D01*
X000320Y017618D02*
X002840Y017618D01*
X002840Y017777D02*
X000320Y017777D01*
X000320Y017935D02*
X002840Y017935D01*
X002840Y018094D02*
X000320Y018094D01*
X000320Y018252D02*
X001224Y018252D01*
X001277Y018230D02*
X001583Y018230D01*
X001866Y018347D01*
X002083Y018564D01*
X002200Y018847D01*
X002200Y019153D01*
X002083Y019436D01*
X001866Y019653D01*
X001583Y019770D01*
X001277Y019770D01*
X000994Y019653D01*
X000777Y019436D01*
X000660Y019153D01*
X000660Y018847D01*
X000777Y018564D01*
X000994Y018347D01*
X001277Y018230D01*
X001636Y018252D02*
X002840Y018252D01*
X002840Y018411D02*
X001929Y018411D01*
X002085Y018569D02*
X002840Y018569D01*
X002840Y018728D02*
X002150Y018728D01*
X002200Y018886D02*
X002840Y018886D01*
X002840Y019045D02*
X002200Y019045D01*
X002179Y019203D02*
X002840Y019203D01*
X002840Y019362D02*
X002114Y019362D01*
X001999Y019520D02*
X002840Y019520D01*
X002886Y019679D02*
X001804Y019679D01*
X001056Y019679D02*
X000414Y019679D01*
X000343Y019520D02*
X000861Y019520D01*
X000746Y019362D02*
X000316Y019362D01*
X000321Y019203D02*
X000681Y019203D01*
X000660Y019045D02*
X000320Y019045D01*
X000320Y018886D02*
X000660Y018886D01*
X000710Y018728D02*
X000320Y018728D01*
X000320Y018569D02*
X000775Y018569D01*
X000931Y018411D02*
X000320Y018411D01*
X000559Y019837D02*
X003036Y019837D01*
X003195Y019996D02*
X000771Y019996D01*
X004403Y017460D02*
X009590Y017460D01*
X009590Y017618D02*
X004519Y017618D01*
X004639Y017777D02*
X009590Y017777D01*
X009590Y017935D02*
X004690Y017935D01*
X004690Y018094D02*
X009590Y018094D01*
X009590Y018252D02*
X004628Y018252D01*
X004491Y018411D02*
X009539Y018411D01*
X009380Y018569D02*
X004470Y018569D01*
X004540Y019362D02*
X005976Y019362D01*
X006384Y019362D02*
X008588Y019362D01*
X008746Y019203D02*
X006543Y019203D01*
X006580Y019045D02*
X008905Y019045D01*
X009063Y018886D02*
X006580Y018886D01*
X006473Y018728D02*
X009222Y018728D01*
X008915Y019996D02*
X019071Y019996D01*
X017910Y019045D02*
X016350Y019045D01*
X016350Y018886D02*
X017910Y018886D01*
X017960Y018728D02*
X016350Y018728D01*
X016350Y018569D02*
X018025Y018569D01*
X018181Y018411D02*
X016350Y018411D01*
X016010Y018411D02*
X015727Y018411D01*
X015723Y018382D02*
X015735Y018460D01*
X015735Y018500D01*
X015230Y018500D01*
X015230Y018500D01*
X015230Y017995D01*
X015270Y017995D01*
X015348Y018007D01*
X015424Y018032D01*
X015495Y018068D01*
X015559Y018115D01*
X015615Y018171D01*
X015662Y018235D01*
X015698Y018306D01*
X015723Y018382D01*
X015670Y018252D02*
X016010Y018252D01*
X016010Y018094D02*
X015530Y018094D01*
X015230Y018094D02*
X015230Y018094D01*
X015230Y017995D02*
X015230Y018500D01*
X015230Y018500D01*
X015230Y018500D01*
X014725Y018500D01*
X014725Y018460D01*
X014737Y018382D01*
X014762Y018306D01*
X014798Y018235D01*
X014845Y018171D01*
X014901Y018115D01*
X014965Y018068D01*
X015036Y018032D01*
X015112Y018007D01*
X015190Y017995D01*
X015230Y017995D01*
X015230Y018252D02*
X015230Y018252D01*
X015230Y018411D02*
X015230Y018411D01*
X014930Y018094D02*
X014672Y018094D01*
X014695Y018252D02*
X014790Y018252D01*
X014733Y018411D02*
X014695Y018411D01*
X014695Y018569D02*
X014730Y018569D01*
X014695Y018728D02*
X014779Y018728D01*
X015681Y018728D02*
X016010Y018728D01*
X016010Y018569D02*
X015730Y018569D01*
X016350Y017935D02*
X019725Y017935D01*
X019725Y017777D02*
X016350Y017777D01*
X014180Y016826D02*
X014180Y016826D01*
X014180Y016667D02*
X014180Y016667D01*
X014180Y016509D02*
X014180Y016509D01*
X014180Y016350D02*
X014180Y016350D01*
X013883Y016826D02*
X013850Y016826D01*
X009590Y016826D02*
X008335Y016826D01*
X008177Y016984D02*
X009590Y016984D01*
X009590Y017143D02*
X008018Y017143D01*
X007842Y017301D02*
X009590Y017301D01*
X009590Y016667D02*
X008494Y016667D01*
X008652Y016509D02*
X009590Y016509D01*
X009590Y016350D02*
X009312Y016350D01*
X009429Y016192D02*
X009590Y016192D01*
X009590Y016033D02*
X009470Y016033D01*
X009456Y015875D02*
X009590Y015875D01*
X009590Y015716D02*
X009378Y015716D01*
X009507Y015558D02*
X009151Y015558D01*
X009256Y015399D02*
X009348Y015399D01*
X008209Y015558D02*
X006580Y015558D01*
X006580Y015666D02*
X006346Y015900D01*
X006014Y015900D01*
X005780Y015666D01*
X005780Y015334D01*
X006014Y015100D01*
X006346Y015100D01*
X006580Y015334D01*
X006580Y015666D01*
X006530Y015716D02*
X007982Y015716D01*
X007904Y015875D02*
X006371Y015875D01*
X005989Y015875D02*
X005520Y015875D01*
X005520Y016033D02*
X007890Y016033D01*
X007931Y016192D02*
X005520Y016192D01*
X005520Y016350D02*
X007849Y016350D01*
X007691Y016509D02*
X005669Y016509D01*
X005183Y016984D02*
X004690Y016984D01*
X004673Y017143D02*
X005342Y017143D01*
X005518Y017301D02*
X004600Y017301D01*
X004660Y016826D02*
X005025Y016826D01*
X004881Y016667D02*
X004568Y016667D01*
X004326Y016509D02*
X004840Y016509D01*
X004840Y016350D02*
X004551Y016350D01*
X004653Y016192D02*
X004840Y016192D01*
X004840Y016033D02*
X004690Y016033D01*
X004680Y015875D02*
X004840Y015875D01*
X004840Y015716D02*
X004614Y015716D01*
X004444Y015558D02*
X004840Y015558D01*
X004840Y015399D02*
X004559Y015399D01*
X004675Y015241D02*
X004840Y015241D01*
X004840Y015082D02*
X004724Y015082D01*
X004725Y014924D02*
X004840Y014924D01*
X004840Y014765D02*
X004678Y014765D01*
X004564Y014607D02*
X004840Y014607D01*
X004840Y014448D02*
X004499Y014448D01*
X004649Y014290D02*
X004840Y014290D01*
X004840Y014131D02*
X004716Y014131D01*
X004730Y013973D02*
X004840Y013973D01*
X004840Y013814D02*
X004698Y013814D01*
X004610Y013656D02*
X004840Y013656D01*
X004840Y013497D02*
X004404Y013497D01*
X003750Y013656D02*
X000320Y013656D01*
X000320Y013814D02*
X003662Y013814D01*
X003630Y013973D02*
X000320Y013973D01*
X000320Y014131D02*
X003644Y014131D01*
X003711Y014290D02*
X000320Y014290D01*
X000320Y014448D02*
X003861Y014448D01*
X005520Y014448D02*
X008222Y014448D01*
X008091Y014607D02*
X005520Y014607D01*
X005520Y014765D02*
X007949Y014765D01*
X007890Y014924D02*
X005520Y014924D01*
X005520Y015082D02*
X007890Y015082D01*
X007952Y015241D02*
X006486Y015241D01*
X006580Y015399D02*
X008104Y015399D01*
X007987Y014290D02*
X005520Y014290D01*
X005520Y014131D02*
X007906Y014131D01*
X007890Y013973D02*
X005520Y013973D01*
X005520Y013814D02*
X005872Y013814D01*
X005998Y013940D02*
X005740Y013682D01*
X005740Y013500D01*
X006180Y013500D01*
X006180Y013500D01*
X006180Y013940D01*
X006362Y013940D01*
X006620Y013682D01*
X006620Y013500D01*
X006180Y013500D01*
X006180Y013500D01*
X006180Y013500D01*
X006180Y013940D01*
X005998Y013940D01*
X006180Y013814D02*
X006180Y013814D01*
X006180Y013656D02*
X006180Y013656D01*
X006180Y013500D02*
X005740Y013500D01*
X005740Y013318D01*
X005998Y013060D01*
X006180Y013060D01*
X006362Y013060D01*
X006620Y013318D01*
X006620Y013500D01*
X006180Y013500D01*
X006180Y013060D01*
X006180Y013500D01*
X006180Y013500D01*
X006180Y013497D02*
X006180Y013497D01*
X006180Y013339D02*
X006180Y013339D01*
X006180Y013180D02*
X006180Y013180D01*
X005878Y013180D02*
X005520Y013180D01*
X005520Y013022D02*
X007890Y013022D01*
X007909Y012863D02*
X005491Y012863D01*
X005365Y012705D02*
X007993Y012705D01*
X008237Y012546D02*
X005207Y012546D01*
X005520Y013339D02*
X005740Y013339D01*
X005740Y013497D02*
X005520Y013497D01*
X005520Y013656D02*
X005740Y013656D01*
X006488Y013814D02*
X007929Y013814D01*
X008042Y013656D02*
X006620Y013656D01*
X006620Y013497D02*
X008937Y013497D01*
X008036Y013339D02*
X006620Y013339D01*
X006482Y013180D02*
X007927Y013180D01*
X008085Y012388D02*
X003798Y012388D01*
X003640Y012229D02*
X007947Y012229D01*
X007890Y012071D02*
X003481Y012071D01*
X003323Y011912D02*
X005970Y011912D01*
X005998Y011940D02*
X005740Y011682D01*
X005740Y011500D01*
X006180Y011500D01*
X006620Y011500D01*
X006620Y011682D01*
X006362Y011940D01*
X006180Y011940D01*
X006180Y011500D01*
X006180Y011500D01*
X006180Y011500D01*
X006620Y011500D01*
X006620Y011318D01*
X006362Y011060D01*
X006180Y011060D01*
X006180Y011500D01*
X006180Y011500D01*
X006180Y011500D01*
X006180Y011940D01*
X005998Y011940D01*
X006180Y011912D02*
X006180Y011912D01*
X006180Y011754D02*
X006180Y011754D01*
X006180Y011595D02*
X006180Y011595D01*
X006180Y011500D02*
X005740Y011500D01*
X005740Y011318D01*
X005998Y011060D01*
X006180Y011060D01*
X006180Y011500D01*
X006180Y011437D02*
X006180Y011437D01*
X006180Y011278D02*
X006180Y011278D01*
X006180Y011120D02*
X006180Y011120D01*
X006422Y011120D02*
X007902Y011120D01*
X007890Y010961D02*
X004700Y010961D01*
X004541Y011120D02*
X005938Y011120D01*
X005780Y011278D02*
X004524Y011278D01*
X004580Y011437D02*
X005740Y011437D01*
X005740Y011595D02*
X004580Y011595D01*
X004492Y011754D02*
X005811Y011754D01*
X006390Y011912D02*
X007890Y011912D01*
X007954Y011754D02*
X006549Y011754D01*
X006620Y011595D02*
X008118Y011595D01*
X008194Y011437D02*
X006620Y011437D01*
X006580Y011278D02*
X007976Y011278D01*
X007934Y010803D02*
X005838Y010803D01*
X006017Y010644D02*
X008054Y010644D01*
X009446Y009852D02*
X009588Y009852D01*
X010069Y009852D02*
X010873Y009852D01*
X010954Y009693D02*
X010227Y009693D01*
X011237Y012546D02*
X009123Y012546D01*
X005874Y015241D02*
X005520Y015241D01*
X005520Y015399D02*
X005780Y015399D01*
X005780Y015558D02*
X005520Y015558D01*
X005520Y015716D02*
X005830Y015716D01*
X003868Y011754D02*
X003164Y011754D01*
X003006Y011595D02*
X003780Y011595D01*
X003780Y011437D02*
X003036Y011437D01*
X003080Y011278D02*
X003836Y011278D01*
X003840Y011120D02*
X003076Y011120D01*
X003011Y010961D02*
X003840Y010961D01*
X003897Y010803D02*
X002910Y010803D01*
X002910Y010644D02*
X004055Y010644D01*
X004214Y010486D02*
X002910Y010486D01*
X002910Y010327D02*
X004372Y010327D01*
X004592Y010169D02*
X002910Y010169D01*
X004550Y009852D02*
X004756Y009852D01*
X004664Y009693D02*
X004652Y009693D01*
X004615Y009218D02*
X004707Y009218D01*
X004851Y009059D02*
X004520Y009059D01*
X004520Y008901D02*
X005840Y008901D01*
X005840Y009059D02*
X005509Y009059D01*
X005653Y009218D02*
X005745Y009218D01*
X005708Y009693D02*
X005696Y009693D01*
X005604Y009852D02*
X005810Y009852D01*
X005689Y010010D02*
X005390Y010010D01*
X005840Y008742D02*
X004520Y008742D01*
X001286Y005414D02*
X000320Y005414D01*
X000320Y005572D02*
X001127Y005572D01*
X000969Y005731D02*
X000320Y005731D01*
X000320Y005889D02*
X000858Y005889D01*
X000840Y006048D02*
X000320Y006048D01*
X000320Y006206D02*
X000840Y006206D01*
X000840Y006365D02*
X000320Y006365D01*
X000320Y006523D02*
X000840Y006523D01*
X000840Y006682D02*
X000320Y006682D01*
X000320Y006840D02*
X000840Y006840D01*
X000838Y006999D02*
X000320Y006999D01*
X000320Y007157D02*
X000760Y007157D01*
X000760Y007316D02*
X000320Y007316D01*
X000320Y007474D02*
X000810Y007474D01*
X000810Y008267D02*
X000770Y008267D01*
X000770Y008425D02*
X000810Y008425D01*
X000810Y008584D02*
X000770Y008584D01*
X000770Y008742D02*
X000810Y008742D01*
X000810Y008901D02*
X000770Y008901D01*
X000770Y009059D02*
X000810Y009059D01*
X000401Y009059D02*
X000320Y009059D01*
X000320Y008267D02*
X000416Y008267D01*
X000443Y010803D02*
X000320Y010803D01*
X000770Y010803D02*
X000810Y010803D01*
X000810Y010961D02*
X000770Y010961D01*
X000770Y011120D02*
X000810Y011120D01*
X000810Y011278D02*
X000770Y011278D01*
X000770Y011437D02*
X000810Y011437D01*
X000810Y011595D02*
X000770Y011595D01*
X000377Y011595D02*
X000320Y011595D01*
X000320Y005255D02*
X001444Y005255D01*
X001603Y005097D02*
X000320Y005097D01*
X000320Y004938D02*
X001795Y004938D01*
X002090Y004780D02*
X000320Y004780D01*
X000320Y004621D02*
X000419Y004621D01*
X000736Y004621D02*
X000776Y004621D01*
X000776Y004463D02*
X000736Y004463D01*
X000736Y004304D02*
X000776Y004304D01*
X001093Y004621D02*
X002090Y004621D01*
X002090Y004463D02*
X001232Y004463D01*
X001294Y004304D02*
X002090Y004304D01*
X002090Y004146D02*
X001306Y004146D01*
X001270Y003987D02*
X002090Y003987D01*
X002133Y003829D02*
X001176Y003829D01*
X000948Y003670D02*
X002279Y003670D01*
X002438Y003512D02*
X001152Y003512D01*
X001239Y003353D02*
X002596Y003353D01*
X002755Y003195D02*
X001266Y003195D01*
X001007Y000659D02*
X019038Y000659D01*
X017010Y001768D02*
X016152Y001768D01*
X015994Y001927D02*
X017010Y001927D01*
X017010Y002085D02*
X015835Y002085D01*
X015677Y002244D02*
X016465Y002244D01*
X016307Y002402D02*
X015518Y002402D01*
X015360Y002561D02*
X016170Y002561D01*
X016170Y002719D02*
X015201Y002719D01*
X015410Y002878D02*
X016170Y002878D01*
X016245Y003036D02*
X015439Y003036D01*
X015352Y003195D02*
X016403Y003195D01*
X016356Y003353D02*
X015350Y003353D01*
X015350Y003512D02*
X016197Y003512D01*
X016170Y003670D02*
X015350Y003670D01*
X015350Y003829D02*
X016170Y003829D01*
X016196Y003987D02*
X015350Y003987D01*
X015350Y004146D02*
X016294Y004146D01*
X016136Y004304D02*
X015350Y004304D01*
X015010Y004938D02*
X014462Y004938D01*
X014600Y005097D02*
X015010Y005097D01*
X015010Y005255D02*
X014600Y005255D01*
X014600Y005414D02*
X015010Y005414D01*
X015010Y005572D02*
X014452Y005572D01*
X014350Y005731D02*
X015010Y005731D01*
X015010Y005889D02*
X014350Y005889D01*
X014350Y006048D02*
X015010Y006048D01*
X015010Y006206D02*
X014761Y006206D01*
X014680Y006206D02*
X014680Y006206D01*
X014680Y006200D02*
X014680Y006750D01*
X014680Y006750D01*
X014680Y006200D01*
X014599Y006206D02*
X014350Y006206D01*
X014680Y006365D02*
X014680Y006365D01*
X014680Y006523D02*
X014680Y006523D01*
X014680Y006682D02*
X014680Y006682D01*
X014736Y007316D02*
X015010Y007316D01*
X015010Y007474D02*
X014850Y007474D01*
X016340Y006206D02*
X017510Y006206D01*
X017510Y006048D02*
X016439Y006048D01*
X016531Y005889D02*
X017510Y005889D01*
X017510Y005731D02*
X016690Y005731D01*
X016848Y005572D02*
X017510Y005572D01*
X017510Y005414D02*
X016850Y005414D01*
X016896Y005255D02*
X017464Y005255D01*
X017305Y005097D02*
X017055Y005097D01*
X017439Y006999D02*
X017510Y006999D01*
X017510Y007157D02*
X017389Y007157D01*
X017350Y007316D02*
X017510Y007316D01*
X017510Y007474D02*
X017350Y007474D01*
X014921Y003036D02*
X014884Y003036D01*
X014680Y002244D02*
X014680Y002244D01*
X014680Y002085D02*
X014680Y002085D01*
X014680Y001927D02*
X014680Y001927D01*
X014680Y001768D02*
X014680Y001768D01*
X014680Y001750D02*
X014680Y001200D01*
X014680Y001750D01*
X014680Y001750D01*
X014680Y001610D02*
X014680Y001610D01*
X014680Y001451D02*
X014680Y001451D01*
X014680Y001293D02*
X014680Y001293D01*
X016895Y002244D02*
X017010Y002244D01*
X018106Y012705D02*
X018735Y012705D01*
X018577Y012863D02*
X018190Y012863D01*
X018190Y013022D02*
X018418Y013022D01*
X018260Y013180D02*
X018190Y013180D01*
D20*
X018180Y013500D03*
X018680Y014500D03*
X018680Y015500D03*
X018680Y016500D03*
X015930Y016500D03*
X015430Y016500D03*
X014930Y016500D03*
X014180Y015000D03*
X013180Y014500D03*
X012680Y015500D03*
X012680Y016000D03*
X010680Y018000D03*
X010680Y018750D03*
X011180Y018750D03*
X011680Y018750D03*
X012180Y018750D03*
X012680Y018500D03*
X015680Y014000D03*
X015680Y011000D03*
X015180Y010000D03*
X016180Y008500D03*
X015680Y007500D03*
X016180Y006000D03*
X017180Y007000D03*
X015180Y003000D03*
X012680Y002000D03*
X009680Y003000D03*
X009680Y005500D03*
D21*
X009680Y006000D01*
X009180Y006500D01*
X002680Y006500D01*
X002680Y007250D01*
X008680Y006000D02*
X009680Y005000D01*
X009680Y003000D01*
X010180Y003500D02*
X012680Y001000D01*
X019180Y001000D01*
X019180Y012500D01*
X018180Y013500D01*
X017180Y013500D02*
X017180Y012500D01*
X017680Y012000D01*
X017180Y011500D02*
X016680Y012000D01*
X017180Y011500D02*
X017180Y007000D01*
X017680Y008000D02*
X017680Y004750D01*
X017680Y003750D02*
X017680Y003500D01*
X017180Y003000D01*
X017180Y001500D01*
X016180Y001500D01*
X014680Y003000D01*
X014680Y004500D01*
X014180Y004500D01*
X013680Y004000D01*
X013680Y003500D01*
X011180Y003500D01*
X010680Y004000D01*
X011680Y005000D01*
X011680Y004000D02*
X012680Y005000D01*
X012680Y008500D01*
X014180Y010000D01*
X014180Y010250D01*
X013680Y010500D02*
X013680Y010000D01*
X011680Y008000D01*
X011680Y009000D02*
X013180Y010500D01*
X013180Y014500D01*
X012680Y015500D02*
X012680Y012000D01*
X011680Y011000D01*
X010180Y009500D02*
X010180Y003500D01*
X011680Y003000D02*
X012680Y002000D01*
X015180Y003000D02*
X015180Y010000D01*
X014680Y010500D02*
X014180Y011000D01*
X014180Y011200D01*
X014180Y011000D02*
X013680Y010500D01*
X013680Y018000D01*
X014180Y018500D01*
X014230Y018500D01*
X013680Y019000D02*
X016180Y019000D01*
X016180Y014500D01*
X016680Y014000D01*
X017180Y013500D02*
X016180Y013500D01*
X015680Y014000D01*
X015680Y013500D02*
X015680Y011000D01*
X016180Y010500D02*
X016680Y011000D01*
X016180Y010500D02*
X016180Y008500D01*
X015680Y007500D02*
X015680Y005000D01*
X016680Y004000D01*
X016680Y003750D01*
X016680Y004750D02*
X016680Y005500D01*
X016180Y006000D01*
X014680Y007500D02*
X014680Y010500D01*
X014680Y007500D02*
X014180Y007000D01*
X014180Y005250D01*
X010180Y009500D02*
X008680Y011000D01*
X008680Y013000D02*
X010680Y015000D01*
X010680Y018000D01*
X012680Y018500D02*
X012680Y017000D01*
X011680Y016000D01*
X012680Y016000D02*
X013180Y016500D01*
X013180Y018500D01*
X013680Y019000D01*
X014180Y015000D02*
X015680Y013500D01*
M02*
