G75*
G70*
%OFA0B0*%
%FSLAX24Y24*%
%IPPOS*%
%LPD*%
%AMOC8*
5,1,8,0,0,1.08239X$1,22.5*
%
%ADD10C,0.0650*%
%ADD11OC8,0.0560*%
%ADD12C,0.0740*%
%ADD13OC8,0.0520*%
%ADD14C,0.0650*%
%ADD15R,0.0650X0.0650*%
%ADD16C,0.0600*%
%ADD17OC8,0.0740*%
%ADD18C,0.0160*%
%ADD19C,0.0238*%
%ADD20C,0.0400*%
%ADD21C,0.0060*%
D10*
X008355Y003000D02*
X009005Y003000D01*
X009005Y004000D02*
X008355Y004000D01*
X008355Y005000D02*
X009005Y005000D01*
X009005Y006000D02*
X008355Y006000D01*
X008355Y007000D02*
X009005Y007000D01*
X009005Y008000D02*
X008355Y008000D01*
X008355Y009000D02*
X009005Y009000D01*
X009005Y010000D02*
X008355Y010000D01*
X008355Y011000D02*
X009005Y011000D01*
X009005Y012000D02*
X008355Y012000D01*
X008355Y013000D02*
X009005Y013000D01*
X009005Y014000D02*
X008355Y014000D01*
X008355Y015000D02*
X009005Y015000D01*
X009005Y016000D02*
X008355Y016000D01*
X011355Y016000D02*
X012005Y016000D01*
X012005Y015000D02*
X011355Y015000D01*
X011355Y014000D02*
X012005Y014000D01*
X012005Y013000D02*
X011355Y013000D01*
X011355Y012000D02*
X012005Y012000D01*
X012005Y011000D02*
X011355Y011000D01*
X011355Y010000D02*
X012005Y010000D01*
X012005Y009000D02*
X011355Y009000D01*
X011355Y008000D02*
X012005Y008000D01*
X012005Y007000D02*
X011355Y007000D01*
X011355Y006000D02*
X012005Y006000D01*
X012005Y005000D02*
X011355Y005000D01*
X011355Y004000D02*
X012005Y004000D01*
X012005Y003000D02*
X011355Y003000D01*
D11*
X014180Y003750D03*
X014180Y005250D03*
X014180Y008750D03*
X014180Y010250D03*
X002680Y007250D03*
X001180Y007250D03*
D12*
X000790Y008670D03*
X002570Y008670D03*
X004180Y009500D03*
X005180Y009500D03*
X006180Y009500D03*
X002570Y011230D03*
X000790Y011230D03*
X004180Y014000D03*
X004180Y015000D03*
X004180Y016000D03*
X004180Y017000D03*
X004180Y018000D03*
X004180Y019000D03*
X013680Y006750D03*
X014680Y006750D03*
X014680Y001750D03*
X013680Y001750D03*
X000756Y003186D03*
X000756Y004186D03*
D13*
X004180Y007250D03*
X006180Y007250D03*
X006180Y011500D03*
X006180Y013500D03*
X006180Y015500D03*
X006180Y017000D03*
X006180Y019000D03*
X004180Y011500D03*
X014180Y011200D03*
X014180Y013200D03*
X014180Y014500D03*
X014180Y016500D03*
D14*
X015230Y018500D03*
X003430Y005250D03*
X006180Y004000D03*
D15*
X005180Y004000D03*
X002430Y005250D03*
X014230Y018500D03*
D16*
X005180Y001800D02*
X005180Y001200D01*
X004180Y001200D02*
X004180Y001800D01*
X003180Y001800D02*
X003180Y001200D01*
D17*
X016680Y002750D03*
X016680Y003750D03*
X016680Y004750D03*
X017680Y004750D03*
X017680Y003750D03*
X017680Y002750D03*
X017680Y008000D03*
X017680Y009000D03*
X017680Y010000D03*
X017680Y011000D03*
X017680Y012000D03*
X017680Y013000D03*
X017680Y014000D03*
X017680Y015000D03*
X017680Y016000D03*
X017680Y017000D03*
X016680Y017000D03*
X016680Y016000D03*
X016680Y015000D03*
X016680Y014000D03*
X016680Y013000D03*
X016680Y012000D03*
X016680Y011000D03*
X016680Y010000D03*
X016680Y009000D03*
X016680Y008000D03*
D18*
X000781Y000732D02*
X000567Y000887D01*
X000412Y001101D01*
X000330Y001352D01*
X000320Y001484D01*
X000320Y002906D01*
X000324Y002897D01*
X000467Y002754D01*
X000655Y002676D01*
X000857Y002676D01*
X001045Y002754D01*
X001188Y002897D01*
X001194Y002910D01*
X004248Y002910D01*
X004373Y002962D01*
X004468Y003057D01*
X004946Y003535D01*
X005563Y003535D01*
X005645Y003617D01*
X005645Y004383D01*
X005563Y004465D01*
X004797Y004465D01*
X004715Y004383D01*
X004715Y004266D01*
X004039Y003590D01*
X001073Y003590D01*
X001045Y003618D01*
X000932Y003665D01*
X000967Y003676D01*
X001044Y003716D01*
X001114Y003767D01*
X001175Y003828D01*
X001226Y003898D01*
X001266Y003975D01*
X001292Y004057D01*
X001306Y004143D01*
X001306Y004166D01*
X000776Y004166D01*
X000776Y004206D01*
X001306Y004206D01*
X001306Y004229D01*
X001292Y004315D01*
X001266Y004397D01*
X001226Y004474D01*
X001175Y004544D01*
X001114Y004606D01*
X001044Y004656D01*
X000967Y004696D01*
X000885Y004723D01*
X000799Y004736D01*
X000776Y004736D01*
X000776Y004206D01*
X000736Y004206D01*
X000736Y004736D01*
X000713Y004736D01*
X000627Y004723D01*
X000545Y004696D01*
X000468Y004656D01*
X000398Y004606D01*
X000336Y004544D01*
X000320Y004522D01*
X000320Y008381D01*
X000370Y008312D01*
X000432Y008250D01*
X000502Y008200D01*
X000579Y008160D01*
X000661Y008134D01*
X000747Y008120D01*
X000770Y008120D01*
X000770Y008650D01*
X000810Y008650D01*
X000810Y008690D01*
X000770Y008690D01*
X000770Y009220D01*
X000747Y009220D01*
X000661Y009206D01*
X000579Y009180D01*
X000502Y009140D01*
X000432Y009090D01*
X000370Y009028D01*
X000320Y008959D01*
X000320Y010941D01*
X000370Y010872D01*
X000432Y010810D01*
X000502Y010760D01*
X000579Y010720D01*
X000661Y010694D01*
X000747Y010680D01*
X000770Y010680D01*
X000770Y011210D01*
X000810Y011210D01*
X000810Y011250D01*
X000770Y011250D01*
X000770Y011780D01*
X000747Y011780D01*
X000661Y011766D01*
X000579Y011740D01*
X000502Y011700D01*
X000432Y011650D01*
X000370Y011588D01*
X000320Y011519D01*
X000320Y019154D01*
X000327Y019164D01*
X000320Y019211D01*
X000320Y019259D01*
X000316Y019263D01*
X000311Y019335D01*
X000349Y019560D01*
X000455Y019761D01*
X000619Y019920D01*
X000823Y020021D01*
X000928Y020045D01*
X018582Y020045D01*
X018589Y020039D01*
X018639Y020045D01*
X018689Y020045D01*
X018691Y020047D01*
X018800Y020051D01*
X019099Y019990D01*
X019364Y019839D01*
X019571Y019614D01*
X019697Y019336D01*
X019725Y019190D01*
X019725Y001484D01*
X019715Y001352D01*
X019633Y001101D01*
X019478Y000887D01*
X019264Y000732D01*
X019013Y000650D01*
X018881Y000640D01*
X001164Y000640D01*
X001032Y000650D01*
X000781Y000732D01*
X000664Y000817D02*
X002955Y000817D01*
X002931Y000827D02*
X003092Y000760D01*
X003268Y000760D01*
X003429Y000827D01*
X003553Y000951D01*
X003620Y001112D01*
X003620Y001888D01*
X003553Y002049D01*
X003429Y002173D01*
X003268Y002240D01*
X003092Y002240D01*
X002931Y002173D01*
X002807Y002049D01*
X002740Y001888D01*
X002740Y001112D01*
X002807Y000951D01*
X002931Y000827D01*
X002797Y000976D02*
X000503Y000976D01*
X000401Y001134D02*
X000957Y001134D01*
X000994Y001097D02*
X001277Y000980D01*
X001583Y000980D01*
X001866Y001097D01*
X002083Y001314D01*
X002200Y001597D01*
X002200Y001903D01*
X002083Y002186D01*
X001866Y002403D01*
X001583Y002520D01*
X001277Y002520D01*
X000994Y002403D01*
X000777Y002186D01*
X000660Y001903D01*
X000660Y001597D01*
X000777Y001314D01*
X000994Y001097D01*
X000799Y001293D02*
X000350Y001293D01*
X000323Y001451D02*
X000720Y001451D01*
X000660Y001610D02*
X000320Y001610D01*
X000320Y001768D02*
X000660Y001768D01*
X000670Y001927D02*
X000320Y001927D01*
X000320Y002085D02*
X000735Y002085D01*
X000835Y002244D02*
X000320Y002244D01*
X000320Y002402D02*
X000993Y002402D01*
X000961Y002719D02*
X007979Y002719D01*
X007961Y002737D02*
X008092Y002606D01*
X008263Y002535D01*
X009097Y002535D01*
X009268Y002606D01*
X009399Y002737D01*
X009454Y002869D01*
X009460Y002853D01*
X009533Y002780D01*
X009628Y002741D01*
X009699Y002741D01*
X010110Y002330D01*
X016110Y002330D01*
X016510Y001930D01*
X016510Y001930D01*
X016610Y001830D01*
X017750Y001830D01*
X018250Y002330D01*
X018350Y002430D01*
X018350Y007070D01*
X018250Y007170D01*
X017376Y007170D01*
X017327Y007220D01*
X017232Y007259D01*
X017128Y007259D01*
X017033Y007220D01*
X016960Y007147D01*
X016921Y007052D01*
X016921Y006948D01*
X016960Y006853D01*
X017033Y006780D01*
X017128Y006741D01*
X017232Y006741D01*
X017327Y006780D01*
X017376Y006830D01*
X018010Y006830D01*
X018010Y005141D01*
X017891Y005260D01*
X017660Y005260D01*
X017250Y005670D01*
X014006Y005670D01*
X013760Y005424D01*
X013760Y005160D01*
X013350Y005570D01*
X013250Y005670D01*
X012332Y005670D01*
X012399Y005737D01*
X012437Y005830D01*
X015984Y005830D01*
X016033Y005780D01*
X016128Y005741D01*
X016232Y005741D01*
X016327Y005780D01*
X016400Y005853D01*
X016439Y005948D01*
X016439Y006052D01*
X016400Y006147D01*
X016327Y006220D01*
X016232Y006259D01*
X016128Y006259D01*
X016033Y006220D01*
X015984Y006170D01*
X012437Y006170D01*
X012399Y006263D01*
X012268Y006394D01*
X012097Y006465D01*
X011263Y006465D01*
X011092Y006394D01*
X010961Y006263D01*
X010890Y006092D01*
X010890Y005908D01*
X010961Y005737D01*
X011028Y005670D01*
X009876Y005670D01*
X009827Y005720D01*
X009732Y005759D01*
X009679Y005759D01*
X010890Y006970D01*
X010890Y006908D01*
X010961Y006737D01*
X011092Y006606D01*
X011263Y006535D01*
X012097Y006535D01*
X012268Y006606D01*
X012399Y006737D01*
X012437Y006830D01*
X013170Y006830D01*
X013170Y006649D01*
X013248Y006461D01*
X013391Y006318D01*
X013579Y006240D01*
X013781Y006240D01*
X013969Y006318D01*
X014112Y006461D01*
X014159Y006574D01*
X014170Y006539D01*
X014210Y006462D01*
X014260Y006392D01*
X014322Y006330D01*
X014392Y006280D01*
X014469Y006240D01*
X014551Y006214D01*
X014637Y006200D01*
X014680Y006200D01*
X014723Y006200D01*
X014809Y006214D01*
X014891Y006240D01*
X014968Y006280D01*
X015038Y006330D01*
X015100Y006392D01*
X015150Y006462D01*
X015190Y006539D01*
X015216Y006621D01*
X015230Y006707D01*
X015230Y006750D01*
X015230Y006793D01*
X015216Y006879D01*
X015190Y006961D01*
X015150Y007038D01*
X015100Y007108D01*
X015038Y007170D01*
X014968Y007220D01*
X014891Y007260D01*
X014809Y007286D01*
X014723Y007300D01*
X014680Y007300D01*
X014680Y006750D01*
X014680Y006750D01*
X015230Y006750D01*
X014680Y006750D01*
X014680Y006750D01*
X014680Y007300D01*
X014637Y007300D01*
X014551Y007286D01*
X014469Y007260D01*
X014392Y007220D01*
X014322Y007170D01*
X014260Y007108D01*
X014210Y007038D01*
X014170Y006961D01*
X014159Y006926D01*
X014112Y007039D01*
X013969Y007182D01*
X013781Y007260D01*
X013680Y007260D01*
X013750Y007330D01*
X015484Y007330D01*
X015533Y007280D01*
X015628Y007241D01*
X015732Y007241D01*
X015827Y007280D01*
X015900Y007353D01*
X015939Y007448D01*
X015939Y007552D01*
X015900Y007647D01*
X015827Y007720D01*
X015732Y007759D01*
X015628Y007759D01*
X015533Y007720D01*
X015484Y007670D01*
X013610Y007670D01*
X013110Y007170D01*
X012437Y007170D01*
X012399Y007263D01*
X012332Y007330D01*
X013250Y007330D01*
X013750Y007830D01*
X015750Y007830D01*
X016161Y008241D01*
X016200Y008241D01*
X016170Y008211D01*
X016170Y007789D01*
X016469Y007490D01*
X016891Y007490D01*
X016920Y007519D01*
X017110Y007330D01*
X019010Y007330D01*
X019010Y002570D01*
X017610Y001170D01*
X013750Y001170D01*
X013680Y001240D01*
X013781Y001240D01*
X013969Y001318D01*
X014112Y001461D01*
X014159Y001574D01*
X014170Y001539D01*
X014210Y001462D01*
X014260Y001392D01*
X014322Y001330D01*
X014392Y001280D01*
X014469Y001240D01*
X014551Y001214D01*
X014637Y001200D01*
X014680Y001200D01*
X014723Y001200D01*
X014809Y001214D01*
X014891Y001240D01*
X014968Y001280D01*
X015038Y001330D01*
X015100Y001392D01*
X015150Y001462D01*
X015190Y001539D01*
X015216Y001621D01*
X015230Y001707D01*
X015230Y001750D01*
X015230Y001793D01*
X015216Y001879D01*
X015190Y001961D01*
X015150Y002038D01*
X015100Y002108D01*
X015038Y002170D01*
X014968Y002220D01*
X014891Y002260D01*
X014809Y002286D01*
X014723Y002300D01*
X014680Y002300D01*
X014680Y001750D01*
X014680Y001750D01*
X015230Y001750D01*
X014680Y001750D01*
X014680Y001750D01*
X014680Y002300D01*
X014637Y002300D01*
X014551Y002286D01*
X014469Y002260D01*
X014392Y002220D01*
X014322Y002170D01*
X014260Y002108D01*
X014210Y002038D01*
X014170Y001961D01*
X014159Y001926D01*
X014112Y002039D01*
X013969Y002182D01*
X013781Y002260D01*
X013579Y002260D01*
X013391Y002182D01*
X013248Y002039D01*
X013170Y001851D01*
X013170Y001750D01*
X012939Y001981D01*
X012939Y002052D01*
X012900Y002147D01*
X012827Y002220D01*
X012732Y002259D01*
X012628Y002259D01*
X012533Y002220D01*
X012460Y002147D01*
X012421Y002052D01*
X012421Y001948D01*
X012460Y001853D01*
X012533Y001780D01*
X012628Y001741D01*
X012699Y001741D01*
X013510Y000930D01*
X013610Y000830D01*
X017750Y000830D01*
X019250Y002330D01*
X019350Y002430D01*
X019350Y007570D01*
X019250Y007670D01*
X018071Y007670D01*
X018190Y007789D01*
X018190Y008211D01*
X017901Y008500D01*
X018190Y008789D01*
X018190Y009211D01*
X017901Y009500D01*
X018190Y009789D01*
X018190Y009830D01*
X019250Y009830D01*
X019350Y009930D01*
X019350Y017070D01*
X019250Y017170D01*
X017250Y019170D01*
X013110Y019170D01*
X013010Y019070D01*
X012699Y018759D01*
X012628Y018759D01*
X012533Y018720D01*
X012460Y018647D01*
X012421Y018552D01*
X012421Y018448D01*
X012460Y018353D01*
X012533Y018280D01*
X012628Y018241D01*
X012732Y018241D01*
X012827Y018280D01*
X012900Y018353D01*
X012939Y018448D01*
X012939Y018519D01*
X013250Y018830D01*
X013765Y018830D01*
X013765Y018170D01*
X010876Y018170D01*
X010827Y018220D01*
X010732Y018259D01*
X010628Y018259D01*
X010533Y018220D01*
X010460Y018147D01*
X010421Y018052D01*
X010421Y017948D01*
X010460Y017853D01*
X010533Y017780D01*
X010628Y017741D01*
X010732Y017741D01*
X010827Y017780D01*
X010876Y017830D01*
X017610Y017830D01*
X017890Y017550D01*
X017700Y017550D01*
X017700Y017020D01*
X017660Y017020D01*
X017660Y017550D01*
X017452Y017550D01*
X017350Y017448D01*
X017350Y017570D01*
X017250Y017670D01*
X010110Y017670D01*
X008904Y016465D01*
X008263Y016465D01*
X008092Y016394D01*
X007961Y016263D01*
X007890Y016092D01*
X007890Y015908D01*
X007961Y015737D01*
X008092Y015606D01*
X008263Y015535D01*
X008975Y015535D01*
X008904Y015465D01*
X008263Y015465D01*
X008092Y015394D01*
X007961Y015263D01*
X007890Y015092D01*
X007890Y014908D01*
X007961Y014737D01*
X008092Y014606D01*
X008263Y014535D01*
X008975Y014535D01*
X008904Y014465D01*
X008263Y014465D01*
X008092Y014394D01*
X008038Y014340D01*
X007821Y014340D01*
X007770Y014391D01*
X007770Y016068D01*
X007718Y016193D01*
X007623Y016288D01*
X007373Y016538D01*
X007248Y016590D01*
X005821Y016590D01*
X005520Y016891D01*
X005520Y017818D01*
X005468Y017943D01*
X005373Y018038D01*
X005123Y018288D01*
X004998Y018340D01*
X004561Y018340D01*
X004469Y018432D01*
X004306Y018500D01*
X004469Y018568D01*
X004612Y018711D01*
X004690Y018899D01*
X004690Y019101D01*
X004612Y019289D01*
X004469Y019432D01*
X004281Y019510D01*
X004079Y019510D01*
X003891Y019432D01*
X003748Y019289D01*
X003670Y019101D01*
X003670Y018899D01*
X003748Y018711D01*
X003891Y018568D01*
X004054Y018500D01*
X003891Y018432D01*
X003748Y018289D01*
X003670Y018101D01*
X003670Y017899D01*
X003748Y017711D01*
X003891Y017568D01*
X004054Y017500D01*
X003891Y017432D01*
X003748Y017289D01*
X003670Y017101D01*
X003670Y016899D01*
X003748Y016711D01*
X003891Y016568D01*
X004054Y016500D01*
X003891Y016432D01*
X003748Y016289D01*
X003670Y016101D01*
X003670Y015899D01*
X003748Y015711D01*
X003891Y015568D01*
X004004Y015521D01*
X003969Y015510D01*
X003892Y015470D01*
X003822Y015420D01*
X003760Y015358D01*
X003710Y015288D01*
X003670Y015211D01*
X003644Y015129D01*
X003630Y015043D01*
X003630Y015020D01*
X004160Y015020D01*
X004160Y014980D01*
X003630Y014980D01*
X003630Y014957D01*
X003644Y014871D01*
X003670Y014789D01*
X003710Y014712D01*
X003760Y014642D01*
X003822Y014580D01*
X003892Y014530D01*
X003950Y014500D01*
X003892Y014470D01*
X003822Y014420D01*
X003760Y014358D01*
X003710Y014288D01*
X003670Y014211D01*
X003644Y014129D01*
X003630Y014043D01*
X003630Y014020D01*
X004160Y014020D01*
X004160Y014550D01*
X004160Y014980D01*
X004200Y014980D01*
X004200Y015020D01*
X004730Y015020D01*
X004730Y015043D01*
X004716Y015129D01*
X004690Y015211D01*
X004650Y015288D01*
X004600Y015358D01*
X004538Y015420D01*
X004468Y015470D01*
X004391Y015510D01*
X004356Y015521D01*
X004469Y015568D01*
X004550Y015649D01*
X004892Y015307D01*
X004987Y015212D01*
X005112Y015160D01*
X005954Y015160D01*
X006014Y015100D01*
X006099Y015100D01*
X006340Y014859D01*
X006340Y013940D01*
X006180Y013940D01*
X006180Y013500D01*
X006620Y013500D01*
X006620Y013579D01*
X006840Y013359D01*
X006840Y010840D01*
X002901Y010840D01*
X003002Y010941D01*
X003080Y011129D01*
X003080Y011331D01*
X003002Y011519D01*
X002859Y011662D01*
X002671Y011740D01*
X002469Y011740D01*
X002281Y011662D01*
X002138Y011519D01*
X002060Y011331D01*
X002060Y011129D01*
X002138Y010941D01*
X002239Y010840D01*
X002112Y010840D01*
X001987Y010788D01*
X001892Y010693D01*
X001392Y010193D01*
X001340Y010068D01*
X001340Y008391D01*
X000892Y007943D01*
X000840Y007818D01*
X000840Y007504D01*
X000760Y007424D01*
X000760Y007076D01*
X001006Y006830D01*
X001354Y006830D01*
X001600Y007076D01*
X001600Y007424D01*
X001520Y007504D01*
X001520Y007609D01*
X001873Y007962D01*
X001968Y008057D01*
X002020Y008182D01*
X002020Y009859D01*
X002321Y010160D01*
X006849Y010160D01*
X006892Y010057D01*
X007142Y009807D01*
X007237Y009712D01*
X007362Y009660D01*
X007600Y009660D01*
X007510Y009570D01*
X007510Y003930D01*
X007610Y003830D01*
X008069Y003371D01*
X007961Y003263D01*
X007890Y003092D01*
X007890Y002908D01*
X007961Y002737D01*
X007903Y002878D02*
X001169Y002878D01*
X000551Y002719D02*
X000320Y002719D01*
X000320Y002561D02*
X008202Y002561D01*
X007890Y003036D02*
X004447Y003036D01*
X004605Y003195D02*
X007933Y003195D01*
X008051Y003353D02*
X004764Y003353D01*
X004922Y003512D02*
X006049Y003512D01*
X006062Y003507D02*
X006140Y003495D01*
X006180Y003495D01*
X006220Y003495D01*
X006298Y003507D01*
X006374Y003532D01*
X006445Y003568D01*
X006509Y003615D01*
X006565Y003671D01*
X006612Y003735D01*
X006648Y003806D01*
X006673Y003882D01*
X006685Y003960D01*
X006685Y004000D01*
X006685Y004040D01*
X006673Y004118D01*
X006648Y004194D01*
X006612Y004265D01*
X006565Y004329D01*
X006509Y004385D01*
X006445Y004432D01*
X006374Y004468D01*
X006298Y004493D01*
X006220Y004505D01*
X006180Y004505D01*
X006180Y004000D01*
X006685Y004000D01*
X006180Y004000D01*
X006180Y004000D01*
X006180Y004000D01*
X006180Y003495D01*
X006180Y004000D01*
X006180Y004000D01*
X006180Y004000D01*
X005675Y004000D01*
X005675Y004040D01*
X005687Y004118D01*
X005712Y004194D01*
X005748Y004265D01*
X005795Y004329D01*
X005851Y004385D01*
X005915Y004432D01*
X005986Y004468D01*
X006062Y004493D01*
X006140Y004505D01*
X006180Y004505D01*
X006180Y004000D01*
X005675Y004000D01*
X005675Y003960D01*
X005687Y003882D01*
X005712Y003806D01*
X005748Y003735D01*
X005795Y003671D01*
X005851Y003615D01*
X005915Y003568D01*
X005986Y003532D01*
X006062Y003507D01*
X006180Y003512D02*
X006180Y003512D01*
X006311Y003512D02*
X007928Y003512D01*
X007770Y003670D02*
X006564Y003670D01*
X006655Y003829D02*
X007611Y003829D01*
X007510Y003987D02*
X006685Y003987D01*
X006664Y004146D02*
X007510Y004146D01*
X007510Y004304D02*
X006583Y004304D01*
X006385Y004463D02*
X007510Y004463D01*
X007510Y004621D02*
X001093Y004621D01*
X001232Y004463D02*
X004795Y004463D01*
X004715Y004304D02*
X001294Y004304D01*
X001306Y004146D02*
X004595Y004146D01*
X004436Y003987D02*
X001270Y003987D01*
X001176Y003829D02*
X004278Y003829D01*
X004119Y003670D02*
X000948Y003670D01*
X000776Y004304D02*
X000736Y004304D01*
X000736Y004463D02*
X000776Y004463D01*
X000776Y004621D02*
X000736Y004621D01*
X000419Y004621D02*
X000320Y004621D01*
X000320Y004780D02*
X003244Y004780D01*
X003236Y004782D02*
X003312Y004757D01*
X003390Y004745D01*
X003430Y004745D01*
X003470Y004745D01*
X003548Y004757D01*
X003624Y004782D01*
X003695Y004818D01*
X003759Y004865D01*
X003815Y004921D01*
X003862Y004985D01*
X003898Y005056D01*
X003923Y005132D01*
X003935Y005210D01*
X003935Y005250D01*
X003935Y005290D01*
X003923Y005368D01*
X003898Y005444D01*
X003862Y005515D01*
X003815Y005579D01*
X003759Y005635D01*
X003695Y005682D01*
X003624Y005718D01*
X003548Y005743D01*
X003470Y005755D01*
X003430Y005755D01*
X003430Y005250D01*
X003935Y005250D01*
X003430Y005250D01*
X003430Y005250D01*
X003430Y005250D01*
X003430Y004745D01*
X003430Y005250D01*
X003430Y005250D01*
X003430Y005250D01*
X002925Y005250D01*
X002925Y005290D01*
X002937Y005368D01*
X002962Y005444D01*
X002998Y005515D01*
X003045Y005579D01*
X003101Y005635D01*
X003165Y005682D01*
X003236Y005718D01*
X003312Y005743D01*
X003390Y005755D01*
X003430Y005755D01*
X003430Y005250D01*
X002925Y005250D01*
X002925Y005210D01*
X002937Y005132D01*
X002962Y005056D01*
X002998Y004985D01*
X003045Y004921D01*
X003101Y004865D01*
X003165Y004818D01*
X003236Y004782D01*
X003430Y004780D02*
X003430Y004780D01*
X003430Y004938D02*
X003430Y004938D01*
X003430Y005097D02*
X003430Y005097D01*
X003430Y005255D02*
X003430Y005255D01*
X003430Y005414D02*
X003430Y005414D01*
X003430Y005572D02*
X003430Y005572D01*
X003430Y005731D02*
X003430Y005731D01*
X003585Y005731D02*
X007510Y005731D01*
X007510Y005889D02*
X000320Y005889D01*
X000320Y005731D02*
X003275Y005731D01*
X003040Y005572D02*
X002895Y005572D01*
X002895Y005633D02*
X002813Y005715D01*
X002047Y005715D01*
X001965Y005633D01*
X001965Y004867D01*
X002047Y004785D01*
X002813Y004785D01*
X002895Y004867D01*
X002895Y005633D01*
X002895Y005414D02*
X002952Y005414D01*
X002925Y005255D02*
X002895Y005255D01*
X002895Y005097D02*
X002949Y005097D01*
X002895Y004938D02*
X003032Y004938D01*
X003616Y004780D02*
X007510Y004780D01*
X007510Y004938D02*
X003828Y004938D01*
X003911Y005097D02*
X007510Y005097D01*
X007510Y005255D02*
X003935Y005255D01*
X003908Y005414D02*
X007510Y005414D01*
X007510Y005572D02*
X003820Y005572D01*
X003998Y006810D02*
X004180Y006810D01*
X004362Y006810D01*
X004620Y007068D01*
X004620Y007250D01*
X004620Y007432D01*
X004362Y007690D01*
X004180Y007690D01*
X004180Y007250D01*
X004620Y007250D01*
X004180Y007250D01*
X004180Y007250D01*
X004180Y007250D01*
X004180Y006810D01*
X004180Y007250D01*
X004180Y007250D01*
X004180Y007250D01*
X003740Y007250D01*
X003740Y007432D01*
X003998Y007690D01*
X004180Y007690D01*
X004180Y007250D01*
X003740Y007250D01*
X003740Y007068D01*
X003998Y006810D01*
X003968Y006840D02*
X002864Y006840D01*
X002854Y006830D02*
X003100Y007076D01*
X003100Y007424D01*
X002854Y007670D01*
X002506Y007670D01*
X002260Y007424D01*
X002260Y007076D01*
X002506Y006830D01*
X002854Y006830D01*
X003022Y006999D02*
X003809Y006999D01*
X003740Y007157D02*
X003100Y007157D01*
X003100Y007316D02*
X003740Y007316D01*
X003782Y007474D02*
X003050Y007474D01*
X002891Y007633D02*
X003940Y007633D01*
X004180Y007633D02*
X004180Y007633D01*
X004180Y007474D02*
X004180Y007474D01*
X004180Y007316D02*
X004180Y007316D01*
X004180Y007157D02*
X004180Y007157D01*
X004180Y006999D02*
X004180Y006999D01*
X004180Y006840D02*
X004180Y006840D01*
X004392Y006840D02*
X007510Y006840D01*
X007510Y006682D02*
X000320Y006682D01*
X000320Y006840D02*
X000996Y006840D01*
X000838Y006999D02*
X000320Y006999D01*
X000320Y007157D02*
X000760Y007157D01*
X000760Y007316D02*
X000320Y007316D01*
X000320Y007474D02*
X000810Y007474D01*
X000840Y007633D02*
X000320Y007633D01*
X000320Y007791D02*
X000840Y007791D01*
X000899Y007950D02*
X000320Y007950D01*
X000320Y008108D02*
X001057Y008108D01*
X001001Y008160D02*
X001078Y008200D01*
X001148Y008250D01*
X001210Y008312D01*
X001260Y008382D01*
X001300Y008459D01*
X001326Y008541D01*
X001340Y008627D01*
X001340Y008650D01*
X000810Y008650D01*
X000810Y008120D01*
X000833Y008120D01*
X000919Y008134D01*
X001001Y008160D01*
X001164Y008267D02*
X001216Y008267D01*
X001282Y008425D02*
X001340Y008425D01*
X001333Y008584D02*
X001340Y008584D01*
X001340Y008690D02*
X001340Y008713D01*
X001326Y008799D01*
X001300Y008881D01*
X001260Y008958D01*
X001210Y009028D01*
X001148Y009090D01*
X001078Y009140D01*
X001001Y009180D01*
X000919Y009206D01*
X000833Y009220D01*
X000810Y009220D01*
X000810Y008690D01*
X001340Y008690D01*
X001335Y008742D02*
X001340Y008742D01*
X001340Y008901D02*
X001290Y008901D01*
X001340Y009059D02*
X001179Y009059D01*
X001340Y009218D02*
X000849Y009218D01*
X000810Y009218D02*
X000770Y009218D01*
X000731Y009218D02*
X000320Y009218D01*
X000320Y009376D02*
X001340Y009376D01*
X001340Y009535D02*
X000320Y009535D01*
X000320Y009693D02*
X001340Y009693D01*
X001340Y009852D02*
X000320Y009852D01*
X000320Y010010D02*
X001340Y010010D01*
X001382Y010169D02*
X000320Y010169D01*
X000320Y010327D02*
X001526Y010327D01*
X001685Y010486D02*
X000320Y010486D01*
X000320Y010644D02*
X001843Y010644D01*
X002022Y010803D02*
X001137Y010803D01*
X001148Y010810D02*
X001210Y010872D01*
X001260Y010942D01*
X001300Y011019D01*
X001326Y011101D01*
X001340Y011187D01*
X001340Y011210D01*
X000810Y011210D01*
X000810Y010680D01*
X000833Y010680D01*
X000919Y010694D01*
X001001Y010720D01*
X001078Y010760D01*
X001148Y010810D01*
X001270Y010961D02*
X002129Y010961D01*
X002064Y011120D02*
X001329Y011120D01*
X001340Y011250D02*
X001340Y011273D01*
X001326Y011359D01*
X001300Y011441D01*
X001260Y011518D01*
X001210Y011588D01*
X001148Y011650D01*
X001078Y011700D01*
X001001Y011740D01*
X000919Y011766D01*
X000833Y011780D01*
X000810Y011780D01*
X000810Y011250D01*
X001340Y011250D01*
X001339Y011278D02*
X002060Y011278D01*
X002104Y011437D02*
X001301Y011437D01*
X001203Y011595D02*
X002214Y011595D01*
X002926Y011595D02*
X003780Y011595D01*
X003780Y011666D02*
X003780Y011334D01*
X004014Y011100D01*
X004346Y011100D01*
X004580Y011334D01*
X004580Y011666D01*
X004346Y011900D01*
X004014Y011900D01*
X003780Y011666D01*
X003868Y011754D02*
X000959Y011754D01*
X000810Y011754D02*
X000770Y011754D01*
X000621Y011754D02*
X000320Y011754D01*
X000320Y011912D02*
X005970Y011912D01*
X005998Y011940D02*
X005740Y011682D01*
X005740Y011500D01*
X006180Y011500D01*
X006620Y011500D01*
X006620Y011682D01*
X006362Y011940D01*
X006180Y011940D01*
X006180Y011500D01*
X006180Y011500D01*
X006180Y011500D01*
X006620Y011500D01*
X006620Y011318D01*
X006362Y011060D01*
X006180Y011060D01*
X006180Y011500D01*
X006180Y011500D01*
X006180Y011500D01*
X006180Y011940D01*
X005998Y011940D01*
X006180Y011912D02*
X006180Y011912D01*
X006180Y011754D02*
X006180Y011754D01*
X006180Y011595D02*
X006180Y011595D01*
X006180Y011500D02*
X005740Y011500D01*
X005740Y011318D01*
X005998Y011060D01*
X006180Y011060D01*
X006180Y011500D01*
X006180Y011437D02*
X006180Y011437D01*
X006180Y011278D02*
X006180Y011278D01*
X006180Y011120D02*
X006180Y011120D01*
X006422Y011120D02*
X006840Y011120D01*
X006840Y011278D02*
X006580Y011278D01*
X006620Y011437D02*
X006840Y011437D01*
X006840Y011595D02*
X006620Y011595D01*
X006549Y011754D02*
X006840Y011754D01*
X006840Y011912D02*
X006390Y011912D01*
X006840Y012071D02*
X000320Y012071D01*
X000320Y012229D02*
X006840Y012229D01*
X006840Y012388D02*
X000320Y012388D01*
X000320Y012546D02*
X006840Y012546D01*
X006840Y012705D02*
X000320Y012705D01*
X000320Y012863D02*
X006840Y012863D01*
X006840Y013022D02*
X000320Y013022D01*
X000320Y013180D02*
X005878Y013180D01*
X005998Y013060D02*
X006180Y013060D01*
X006362Y013060D01*
X006620Y013318D01*
X006620Y013500D01*
X006180Y013500D01*
X006180Y013500D01*
X006180Y013500D01*
X006180Y013060D01*
X006180Y013500D01*
X006180Y013500D01*
X006180Y013500D01*
X005740Y013500D01*
X005740Y013682D01*
X005998Y013940D01*
X006180Y013940D01*
X006180Y013500D01*
X005740Y013500D01*
X005740Y013318D01*
X005998Y013060D01*
X006180Y013180D02*
X006180Y013180D01*
X006180Y013339D02*
X006180Y013339D01*
X006180Y013497D02*
X006180Y013497D01*
X006180Y013656D02*
X006180Y013656D01*
X006180Y013814D02*
X006180Y013814D01*
X006340Y013973D02*
X004730Y013973D01*
X004730Y013980D02*
X004200Y013980D01*
X004200Y014020D01*
X004730Y014020D01*
X004730Y014043D01*
X004716Y014129D01*
X004690Y014211D01*
X004650Y014288D01*
X004600Y014358D01*
X004538Y014420D01*
X004468Y014470D01*
X004410Y014500D01*
X004468Y014530D01*
X004538Y014580D01*
X004600Y014642D01*
X004650Y014712D01*
X004690Y014789D01*
X004716Y014871D01*
X004730Y014957D01*
X004730Y014980D01*
X004200Y014980D01*
X004200Y014020D01*
X004160Y014020D01*
X004160Y013980D01*
X004200Y013980D01*
X004200Y013450D01*
X004223Y013450D01*
X004309Y013464D01*
X004391Y013490D01*
X004468Y013530D01*
X004538Y013580D01*
X004600Y013642D01*
X004650Y013712D01*
X004690Y013789D01*
X004716Y013871D01*
X004730Y013957D01*
X004730Y013980D01*
X004716Y014131D02*
X006340Y014131D01*
X006340Y014290D02*
X004649Y014290D01*
X004499Y014448D02*
X006340Y014448D01*
X006340Y014607D02*
X004564Y014607D01*
X004678Y014765D02*
X006340Y014765D01*
X006276Y014924D02*
X004725Y014924D01*
X004724Y015082D02*
X006117Y015082D01*
X004959Y015241D02*
X004675Y015241D01*
X004559Y015399D02*
X004800Y015399D01*
X004642Y015558D02*
X004444Y015558D01*
X003916Y015558D02*
X000320Y015558D01*
X000320Y015716D02*
X003746Y015716D01*
X003680Y015875D02*
X000320Y015875D01*
X000320Y016033D02*
X003670Y016033D01*
X003707Y016192D02*
X000320Y016192D01*
X000320Y016350D02*
X003809Y016350D01*
X003792Y016667D02*
X000320Y016667D01*
X000320Y016509D02*
X004034Y016509D01*
X003700Y016826D02*
X000320Y016826D01*
X000320Y016984D02*
X003670Y016984D01*
X003687Y017143D02*
X000320Y017143D01*
X000320Y017301D02*
X003760Y017301D01*
X003957Y017460D02*
X000320Y017460D01*
X000320Y017618D02*
X003841Y017618D01*
X003721Y017777D02*
X000320Y017777D01*
X000320Y017935D02*
X003670Y017935D01*
X003670Y018094D02*
X000320Y018094D01*
X000320Y018252D02*
X001224Y018252D01*
X001277Y018230D02*
X001583Y018230D01*
X001866Y018347D01*
X002083Y018564D01*
X002200Y018847D01*
X002200Y019153D01*
X002083Y019436D01*
X001866Y019653D01*
X001583Y019770D01*
X001277Y019770D01*
X000994Y019653D01*
X000777Y019436D01*
X000660Y019153D01*
X000660Y018847D01*
X000777Y018564D01*
X000994Y018347D01*
X001277Y018230D01*
X001636Y018252D02*
X003732Y018252D01*
X003869Y018411D02*
X001929Y018411D01*
X002085Y018569D02*
X003890Y018569D01*
X003741Y018728D02*
X002150Y018728D01*
X002200Y018886D02*
X003675Y018886D01*
X003670Y019045D02*
X002200Y019045D01*
X002179Y019203D02*
X003712Y019203D01*
X003820Y019362D02*
X002114Y019362D01*
X001999Y019520D02*
X018111Y019520D01*
X018027Y019436D02*
X017910Y019153D01*
X017910Y018847D01*
X018027Y018564D01*
X018244Y018347D01*
X018527Y018230D01*
X018833Y018230D01*
X019116Y018347D01*
X019333Y018564D01*
X019450Y018847D01*
X019450Y019153D01*
X019333Y019436D01*
X019116Y019653D01*
X018833Y019770D01*
X018527Y019770D01*
X018244Y019653D01*
X018027Y019436D01*
X017996Y019362D02*
X006384Y019362D01*
X006346Y019400D02*
X006014Y019400D01*
X005780Y019166D01*
X005780Y018834D01*
X006014Y018600D01*
X006346Y018600D01*
X006580Y018834D01*
X006580Y019166D01*
X006346Y019400D01*
X006543Y019203D02*
X017931Y019203D01*
X017910Y019045D02*
X017376Y019045D01*
X017534Y018886D02*
X017910Y018886D01*
X017960Y018728D02*
X017693Y018728D01*
X017851Y018569D02*
X018025Y018569D01*
X018010Y018411D02*
X018181Y018411D01*
X018168Y018252D02*
X018474Y018252D01*
X018327Y018094D02*
X019725Y018094D01*
X019725Y018252D02*
X018886Y018252D01*
X019179Y018411D02*
X019725Y018411D01*
X019725Y018569D02*
X019335Y018569D01*
X019400Y018728D02*
X019725Y018728D01*
X019725Y018886D02*
X019450Y018886D01*
X019450Y019045D02*
X019725Y019045D01*
X019722Y019203D02*
X019429Y019203D01*
X019364Y019362D02*
X019685Y019362D01*
X019613Y019520D02*
X019249Y019520D01*
X019054Y019679D02*
X019511Y019679D01*
X019366Y019837D02*
X000533Y019837D01*
X000412Y019679D02*
X001056Y019679D01*
X000861Y019520D02*
X000343Y019520D01*
X000316Y019362D02*
X000746Y019362D01*
X000681Y019203D02*
X000321Y019203D01*
X000320Y019045D02*
X000660Y019045D01*
X000660Y018886D02*
X000320Y018886D01*
X000320Y018728D02*
X000710Y018728D01*
X000775Y018569D02*
X000320Y018569D01*
X000320Y018411D02*
X000931Y018411D01*
X001804Y019679D02*
X018306Y019679D01*
X019071Y019996D02*
X000771Y019996D01*
X004540Y019362D02*
X005976Y019362D01*
X005817Y019203D02*
X004648Y019203D01*
X004690Y019045D02*
X005780Y019045D01*
X005780Y018886D02*
X004685Y018886D01*
X004619Y018728D02*
X005887Y018728D01*
X006473Y018728D02*
X012552Y018728D01*
X012428Y018569D02*
X004470Y018569D01*
X004491Y018411D02*
X012437Y018411D01*
X012602Y018252D02*
X010748Y018252D01*
X010612Y018252D02*
X005159Y018252D01*
X005317Y018094D02*
X010438Y018094D01*
X010427Y017935D02*
X005471Y017935D01*
X005520Y017777D02*
X010543Y017777D01*
X010817Y017777D02*
X017663Y017777D01*
X017822Y017618D02*
X017302Y017618D01*
X017350Y017460D02*
X017362Y017460D01*
X017660Y017460D02*
X017700Y017460D01*
X017700Y017301D02*
X017660Y017301D01*
X017660Y017143D02*
X017700Y017143D01*
X018250Y017670D02*
X017750Y018170D01*
X017610Y018170D01*
X015614Y018170D01*
X015615Y018171D01*
X015662Y018235D01*
X015698Y018306D01*
X015723Y018382D01*
X015735Y018460D01*
X015735Y018500D01*
X015735Y018540D01*
X015723Y018618D01*
X015698Y018694D01*
X015662Y018765D01*
X015615Y018829D01*
X015614Y018830D01*
X017110Y018830D01*
X019010Y016930D01*
X019010Y010170D01*
X018190Y010170D01*
X018190Y010211D01*
X017901Y010500D01*
X018190Y010789D01*
X018190Y011211D01*
X018071Y011330D01*
X018250Y011330D01*
X018750Y011830D01*
X018850Y011930D01*
X018850Y014070D01*
X018750Y014170D01*
X018190Y014170D01*
X018190Y014211D01*
X018071Y014330D01*
X018250Y014330D01*
X018350Y014430D01*
X018350Y017570D01*
X018250Y017670D01*
X018302Y017618D02*
X018322Y017618D01*
X018350Y017460D02*
X018480Y017460D01*
X018350Y017301D02*
X018639Y017301D01*
X018797Y017143D02*
X018350Y017143D01*
X018350Y016984D02*
X018956Y016984D01*
X019010Y016826D02*
X018350Y016826D01*
X018350Y016667D02*
X019010Y016667D01*
X019010Y016509D02*
X018350Y016509D01*
X018350Y016350D02*
X019010Y016350D01*
X019010Y016192D02*
X018350Y016192D01*
X018350Y016033D02*
X019010Y016033D01*
X019010Y015875D02*
X018350Y015875D01*
X018350Y015716D02*
X019010Y015716D01*
X019010Y015558D02*
X018350Y015558D01*
X018350Y015399D02*
X019010Y015399D01*
X019010Y015241D02*
X018350Y015241D01*
X018350Y015082D02*
X019010Y015082D01*
X019010Y014924D02*
X018350Y014924D01*
X018350Y014765D02*
X019010Y014765D01*
X019010Y014607D02*
X018350Y014607D01*
X018350Y014448D02*
X019010Y014448D01*
X019010Y014290D02*
X018112Y014290D01*
X018789Y014131D02*
X019010Y014131D01*
X019010Y013973D02*
X018850Y013973D01*
X018850Y013814D02*
X019010Y013814D01*
X019010Y013656D02*
X018850Y013656D01*
X018850Y013497D02*
X019010Y013497D01*
X019010Y013339D02*
X018850Y013339D01*
X018850Y013180D02*
X019010Y013180D01*
X019010Y013022D02*
X018850Y013022D01*
X018850Y012863D02*
X019010Y012863D01*
X019010Y012705D02*
X018850Y012705D01*
X018850Y012546D02*
X019010Y012546D01*
X019010Y012388D02*
X018850Y012388D01*
X018850Y012229D02*
X019010Y012229D01*
X019010Y012071D02*
X018850Y012071D01*
X018832Y011912D02*
X019010Y011912D01*
X019010Y011754D02*
X018674Y011754D01*
X018515Y011595D02*
X019010Y011595D01*
X019010Y011437D02*
X018357Y011437D01*
X018123Y011278D02*
X019010Y011278D01*
X019010Y011120D02*
X018190Y011120D01*
X018190Y010961D02*
X019010Y010961D01*
X019010Y010803D02*
X018190Y010803D01*
X018045Y010644D02*
X019010Y010644D01*
X019010Y010486D02*
X017916Y010486D01*
X018074Y010327D02*
X019010Y010327D01*
X019350Y010327D02*
X019725Y010327D01*
X019725Y010169D02*
X019350Y010169D01*
X019350Y010010D02*
X019725Y010010D01*
X019725Y009852D02*
X019272Y009852D01*
X019725Y009693D02*
X018094Y009693D01*
X017936Y009535D02*
X019725Y009535D01*
X019725Y009376D02*
X018025Y009376D01*
X018184Y009218D02*
X019725Y009218D01*
X019725Y009059D02*
X018190Y009059D01*
X018190Y008901D02*
X019725Y008901D01*
X019725Y008742D02*
X018143Y008742D01*
X017985Y008584D02*
X019725Y008584D01*
X019725Y008425D02*
X017976Y008425D01*
X018135Y008267D02*
X019725Y008267D01*
X019725Y008108D02*
X018190Y008108D01*
X018190Y007950D02*
X019725Y007950D01*
X019725Y007791D02*
X018190Y007791D01*
X018263Y007157D02*
X019010Y007157D01*
X019010Y006999D02*
X018350Y006999D01*
X018350Y006840D02*
X019010Y006840D01*
X019010Y006682D02*
X018350Y006682D01*
X018350Y006523D02*
X019010Y006523D01*
X019010Y006365D02*
X018350Y006365D01*
X018350Y006206D02*
X019010Y006206D01*
X019010Y006048D02*
X018350Y006048D01*
X018350Y005889D02*
X019010Y005889D01*
X019010Y005731D02*
X018350Y005731D01*
X018350Y005572D02*
X019010Y005572D01*
X019010Y005414D02*
X018350Y005414D01*
X018350Y005255D02*
X019010Y005255D01*
X019010Y005097D02*
X018350Y005097D01*
X018350Y004938D02*
X019010Y004938D01*
X019010Y004780D02*
X018350Y004780D01*
X018350Y004621D02*
X019010Y004621D01*
X019010Y004463D02*
X018350Y004463D01*
X018350Y004304D02*
X019010Y004304D01*
X019010Y004146D02*
X018350Y004146D01*
X018350Y003987D02*
X019010Y003987D01*
X019010Y003829D02*
X018350Y003829D01*
X018350Y003670D02*
X019010Y003670D01*
X019010Y003512D02*
X018350Y003512D01*
X018350Y003353D02*
X019010Y003353D01*
X019010Y003195D02*
X018350Y003195D01*
X018350Y003036D02*
X019010Y003036D01*
X019010Y002878D02*
X018350Y002878D01*
X018350Y002719D02*
X019010Y002719D01*
X019000Y002561D02*
X018350Y002561D01*
X018322Y002402D02*
X018842Y002402D01*
X018683Y002244D02*
X018164Y002244D01*
X018005Y002085D02*
X018525Y002085D01*
X018366Y001927D02*
X017847Y001927D01*
X018049Y001610D02*
X015213Y001610D01*
X015230Y001768D02*
X018208Y001768D01*
X018371Y001451D02*
X019722Y001451D01*
X019725Y001610D02*
X018530Y001610D01*
X018688Y001768D02*
X019725Y001768D01*
X019725Y001927D02*
X018847Y001927D01*
X019005Y002085D02*
X019725Y002085D01*
X019725Y002244D02*
X019164Y002244D01*
X019322Y002402D02*
X019725Y002402D01*
X019725Y002561D02*
X019350Y002561D01*
X019350Y002719D02*
X019725Y002719D01*
X019725Y002878D02*
X019350Y002878D01*
X019350Y003036D02*
X019725Y003036D01*
X019725Y003195D02*
X019350Y003195D01*
X019350Y003353D02*
X019725Y003353D01*
X019725Y003512D02*
X019350Y003512D01*
X019350Y003670D02*
X019725Y003670D01*
X019725Y003829D02*
X019350Y003829D01*
X019350Y003987D02*
X019725Y003987D01*
X019725Y004146D02*
X019350Y004146D01*
X019350Y004304D02*
X019725Y004304D01*
X019725Y004463D02*
X019350Y004463D01*
X019350Y004621D02*
X019725Y004621D01*
X019725Y004780D02*
X019350Y004780D01*
X019350Y004938D02*
X019725Y004938D01*
X019725Y005097D02*
X019350Y005097D01*
X019350Y005255D02*
X019725Y005255D01*
X019725Y005414D02*
X019350Y005414D01*
X019350Y005572D02*
X019725Y005572D01*
X019725Y005731D02*
X019350Y005731D01*
X019350Y005889D02*
X019725Y005889D01*
X019725Y006048D02*
X019350Y006048D01*
X019350Y006206D02*
X019725Y006206D01*
X019725Y006365D02*
X019350Y006365D01*
X019350Y006523D02*
X019725Y006523D01*
X019725Y006682D02*
X019350Y006682D01*
X019350Y006840D02*
X019725Y006840D01*
X019725Y006999D02*
X019350Y006999D01*
X019350Y007157D02*
X019725Y007157D01*
X019725Y007316D02*
X019350Y007316D01*
X019350Y007474D02*
X019725Y007474D01*
X019725Y007633D02*
X019288Y007633D01*
X019010Y007316D02*
X015862Y007316D01*
X015939Y007474D02*
X016966Y007474D01*
X016971Y007157D02*
X015051Y007157D01*
X015171Y006999D02*
X016921Y006999D01*
X016974Y006840D02*
X015223Y006840D01*
X015226Y006682D02*
X018010Y006682D01*
X018010Y006523D02*
X015182Y006523D01*
X015072Y006365D02*
X018010Y006365D01*
X018010Y006206D02*
X016340Y006206D01*
X016439Y006048D02*
X018010Y006048D01*
X018010Y005889D02*
X016414Y005889D01*
X016020Y006206D02*
X014761Y006206D01*
X014680Y006206D02*
X014680Y006206D01*
X014680Y006200D02*
X014680Y006750D01*
X014680Y006750D01*
X014680Y006200D01*
X014599Y006206D02*
X012423Y006206D01*
X012298Y006365D02*
X013344Y006365D01*
X013222Y006523D02*
X010443Y006523D01*
X010285Y006365D02*
X011062Y006365D01*
X010937Y006206D02*
X010126Y006206D01*
X009968Y006048D02*
X010890Y006048D01*
X010898Y005889D02*
X009809Y005889D01*
X009800Y005731D02*
X010967Y005731D01*
X011028Y005330D02*
X010961Y005263D01*
X010890Y005092D01*
X010890Y004908D01*
X010961Y004737D01*
X011092Y004606D01*
X011263Y004535D01*
X012097Y004535D01*
X012268Y004606D01*
X012399Y004737D01*
X012470Y004908D01*
X012470Y005092D01*
X012399Y005263D01*
X012332Y005330D01*
X013110Y005330D01*
X014270Y004170D01*
X014006Y004170D01*
X013760Y003924D01*
X013760Y003660D01*
X013750Y003670D01*
X012332Y003670D01*
X012399Y003737D01*
X012470Y003908D01*
X012470Y004092D01*
X012399Y004263D01*
X012268Y004394D01*
X012097Y004465D01*
X011263Y004465D01*
X011092Y004394D01*
X010961Y004263D01*
X010890Y004092D01*
X010890Y003908D01*
X010961Y003737D01*
X011028Y003670D01*
X009332Y003670D01*
X009399Y003737D01*
X009470Y003908D01*
X009470Y004092D01*
X009399Y004263D01*
X009268Y004394D01*
X009097Y004465D01*
X008263Y004465D01*
X008092Y004394D01*
X007961Y004263D01*
X007890Y004092D01*
X007890Y004030D01*
X007850Y004070D01*
X007850Y009330D01*
X007971Y009330D01*
X007970Y009329D01*
X007923Y009265D01*
X007887Y009194D01*
X007863Y009118D01*
X007850Y009040D01*
X007850Y009028D01*
X008652Y009028D01*
X008652Y008972D01*
X008708Y008972D01*
X008708Y009028D01*
X009510Y009028D01*
X009510Y009040D01*
X009497Y009118D01*
X009473Y009194D01*
X009437Y009265D01*
X009390Y009329D01*
X009389Y009330D01*
X011028Y009330D01*
X010961Y009263D01*
X010890Y009092D01*
X010890Y008908D01*
X010961Y008737D01*
X011092Y008606D01*
X011263Y008535D01*
X012097Y008535D01*
X012268Y008606D01*
X012399Y008737D01*
X012470Y008908D01*
X012470Y009092D01*
X012399Y009263D01*
X012332Y009330D01*
X016110Y009330D01*
X016199Y009240D01*
X016170Y009211D01*
X016170Y008789D01*
X016200Y008759D01*
X016128Y008759D01*
X016033Y008720D01*
X015960Y008647D01*
X015921Y008552D01*
X015921Y008481D01*
X015610Y008170D01*
X013610Y008170D01*
X013510Y008070D01*
X013110Y007670D01*
X012332Y007670D01*
X012399Y007737D01*
X012470Y007908D01*
X012470Y008092D01*
X012399Y008263D01*
X012268Y008394D01*
X012097Y008465D01*
X011263Y008465D01*
X011092Y008394D01*
X010961Y008263D01*
X010890Y008092D01*
X010890Y007908D01*
X010961Y007737D01*
X011069Y007629D01*
X011010Y007570D01*
X009470Y006030D01*
X009470Y006092D01*
X009399Y006263D01*
X009268Y006394D01*
X009097Y006465D01*
X008263Y006465D01*
X008092Y006394D01*
X007961Y006263D01*
X007890Y006092D01*
X007890Y005908D01*
X007961Y005737D01*
X008092Y005606D01*
X008263Y005535D01*
X008975Y005535D01*
X008904Y005465D01*
X008263Y005465D01*
X008092Y005394D01*
X007961Y005263D01*
X007890Y005092D01*
X007890Y004908D01*
X007961Y004737D01*
X008092Y004606D01*
X008263Y004535D01*
X009097Y004535D01*
X009268Y004606D01*
X009399Y004737D01*
X009470Y004908D01*
X009470Y005092D01*
X009399Y005263D01*
X009291Y005371D01*
X009421Y005501D01*
X009421Y005448D01*
X009460Y005353D01*
X009533Y005280D01*
X009628Y005241D01*
X009732Y005241D01*
X009827Y005280D01*
X009876Y005330D01*
X011028Y005330D01*
X010958Y005255D02*
X009765Y005255D01*
X009595Y005255D02*
X009402Y005255D01*
X009435Y005414D02*
X009334Y005414D01*
X009468Y005097D02*
X010892Y005097D01*
X010890Y004938D02*
X009470Y004938D01*
X009417Y004780D02*
X010943Y004780D01*
X011077Y004621D02*
X009283Y004621D01*
X009103Y004463D02*
X011257Y004463D01*
X011002Y004304D02*
X009358Y004304D01*
X009448Y004146D02*
X010912Y004146D01*
X010890Y003987D02*
X009470Y003987D01*
X009437Y003829D02*
X010923Y003829D01*
X011028Y003670D02*
X009332Y003670D01*
X009381Y002719D02*
X009721Y002719D01*
X009879Y002561D02*
X009158Y002561D01*
X010038Y002402D02*
X001867Y002402D01*
X002025Y002244D02*
X003993Y002244D01*
X003996Y002245D02*
X003928Y002211D01*
X003867Y002166D01*
X003814Y002113D01*
X003769Y002052D01*
X003735Y001984D01*
X003712Y001912D01*
X003700Y001838D01*
X003700Y001520D01*
X004160Y001520D01*
X004160Y002280D01*
X004142Y002280D01*
X004068Y002268D01*
X003996Y002245D01*
X004160Y002244D02*
X004200Y002244D01*
X004200Y002280D02*
X004200Y001520D01*
X004160Y001520D01*
X004160Y001480D01*
X003700Y001480D01*
X003700Y001162D01*
X003712Y001088D01*
X003735Y001016D01*
X003769Y000948D01*
X003814Y000887D01*
X003867Y000834D01*
X003928Y000789D01*
X003996Y000755D01*
X004068Y000732D01*
X004142Y000720D01*
X004160Y000720D01*
X004160Y001480D01*
X004200Y001480D01*
X004200Y001520D01*
X004660Y001520D01*
X004660Y001838D01*
X004648Y001912D01*
X004625Y001984D01*
X004591Y002052D01*
X004546Y002113D01*
X004493Y002166D01*
X004432Y002211D01*
X004364Y002245D01*
X004292Y002268D01*
X004218Y002280D01*
X004200Y002280D01*
X004367Y002244D02*
X012591Y002244D01*
X012769Y002244D02*
X013539Y002244D01*
X013821Y002244D02*
X014437Y002244D01*
X014244Y002085D02*
X014066Y002085D01*
X014159Y001927D02*
X014159Y001927D01*
X014102Y001451D02*
X014217Y001451D01*
X014374Y001293D02*
X013908Y001293D01*
X013464Y000976D02*
X005563Y000976D01*
X005553Y000951D02*
X005620Y001112D01*
X005620Y001888D01*
X005553Y002049D01*
X005429Y002173D01*
X005268Y002240D01*
X005092Y002240D01*
X004931Y002173D01*
X004807Y002049D01*
X004740Y001888D01*
X004740Y001112D01*
X004807Y000951D01*
X004931Y000827D01*
X005092Y000760D01*
X005268Y000760D01*
X005429Y000827D01*
X005553Y000951D01*
X005620Y001134D02*
X013306Y001134D01*
X013147Y001293D02*
X005620Y001293D01*
X005620Y001451D02*
X012989Y001451D01*
X012830Y001610D02*
X005620Y001610D01*
X005620Y001768D02*
X012563Y001768D01*
X012430Y001927D02*
X005604Y001927D01*
X005517Y002085D02*
X012435Y002085D01*
X012925Y002085D02*
X013294Y002085D01*
X013201Y001927D02*
X012994Y001927D01*
X013152Y001768D02*
X013170Y001768D01*
X014680Y001768D02*
X014680Y001768D01*
X014680Y001750D02*
X014680Y001200D01*
X014680Y001750D01*
X014680Y001750D01*
X014680Y001610D02*
X014680Y001610D01*
X014680Y001451D02*
X014680Y001451D01*
X014680Y001293D02*
X014680Y001293D01*
X014986Y001293D02*
X017732Y001293D01*
X017891Y001451D02*
X015143Y001451D01*
X015201Y001927D02*
X016513Y001927D01*
X016355Y002085D02*
X015116Y002085D01*
X014923Y002244D02*
X016196Y002244D01*
X014680Y002244D02*
X014680Y002244D01*
X014680Y002085D02*
X014680Y002085D01*
X014680Y001927D02*
X014680Y001927D01*
X013760Y003670D02*
X012332Y003670D01*
X012437Y003829D02*
X013760Y003829D01*
X013823Y003987D02*
X012470Y003987D01*
X012448Y004146D02*
X013982Y004146D01*
X014136Y004304D02*
X012358Y004304D01*
X012103Y004463D02*
X013977Y004463D01*
X013819Y004621D02*
X012283Y004621D01*
X012417Y004780D02*
X013660Y004780D01*
X013502Y004938D02*
X012470Y004938D01*
X012468Y005097D02*
X013343Y005097D01*
X013185Y005255D02*
X012402Y005255D01*
X012393Y005731D02*
X018010Y005731D01*
X018010Y005572D02*
X017348Y005572D01*
X017507Y005414D02*
X018010Y005414D01*
X018010Y005255D02*
X017896Y005255D01*
X016326Y007633D02*
X015906Y007633D01*
X016170Y007791D02*
X013711Y007791D01*
X013572Y007633D02*
X013553Y007633D01*
X013414Y007474D02*
X013394Y007474D01*
X013255Y007316D02*
X012347Y007316D01*
X012421Y007791D02*
X013231Y007791D01*
X013389Y007950D02*
X012470Y007950D01*
X012463Y008108D02*
X013548Y008108D01*
X013911Y008425D02*
X012193Y008425D01*
X012214Y008584D02*
X013760Y008584D01*
X013760Y008576D02*
X014006Y008330D01*
X014354Y008330D01*
X014600Y008576D01*
X014600Y008924D01*
X014354Y009170D01*
X014006Y009170D01*
X013760Y008924D01*
X013760Y008576D01*
X013760Y008742D02*
X012401Y008742D01*
X012467Y008901D02*
X013760Y008901D01*
X013895Y009059D02*
X012470Y009059D01*
X012418Y009218D02*
X016176Y009218D01*
X016170Y009059D02*
X014465Y009059D01*
X014600Y008901D02*
X016170Y008901D01*
X016087Y008742D02*
X014600Y008742D01*
X014600Y008584D02*
X015934Y008584D01*
X015865Y008425D02*
X014449Y008425D01*
X014309Y007157D02*
X013994Y007157D01*
X014129Y006999D02*
X014189Y006999D01*
X014178Y006523D02*
X014138Y006523D01*
X014016Y006365D02*
X014288Y006365D01*
X014680Y006365D02*
X014680Y006365D01*
X014680Y006523D02*
X014680Y006523D01*
X014680Y006682D02*
X014680Y006682D01*
X014680Y006840D02*
X014680Y006840D01*
X014680Y006999D02*
X014680Y006999D01*
X014680Y007157D02*
X014680Y007157D01*
X015498Y007316D02*
X013736Y007316D01*
X013170Y006682D02*
X012344Y006682D01*
X013348Y005572D02*
X013908Y005572D01*
X013760Y005414D02*
X013507Y005414D01*
X013665Y005255D02*
X013760Y005255D01*
X011065Y007633D02*
X009295Y007633D01*
X009268Y007606D02*
X009399Y007737D01*
X009470Y007908D01*
X009470Y008092D01*
X009399Y008263D01*
X009268Y008394D01*
X009097Y008465D01*
X008263Y008465D01*
X008092Y008394D01*
X007961Y008263D01*
X007890Y008092D01*
X007890Y007908D01*
X007961Y007737D01*
X008092Y007606D01*
X008263Y007535D01*
X009097Y007535D01*
X009268Y007606D01*
X009268Y007394D02*
X009097Y007465D01*
X008263Y007465D01*
X008092Y007394D01*
X007961Y007263D01*
X007890Y007092D01*
X007890Y006908D01*
X007961Y006737D01*
X008092Y006606D01*
X008263Y006535D01*
X009097Y006535D01*
X009268Y006606D01*
X009399Y006737D01*
X009470Y006908D01*
X009470Y007092D01*
X009399Y007263D01*
X009268Y007394D01*
X009347Y007316D02*
X010755Y007316D01*
X010914Y007474D02*
X007850Y007474D01*
X007850Y007316D02*
X008013Y007316D01*
X007917Y007157D02*
X007850Y007157D01*
X007850Y006999D02*
X007890Y006999D01*
X007918Y006840D02*
X007850Y006840D01*
X007850Y006682D02*
X008016Y006682D01*
X007850Y006523D02*
X009963Y006523D01*
X010121Y006682D02*
X009344Y006682D01*
X009442Y006840D02*
X010280Y006840D01*
X010438Y006999D02*
X009470Y006999D01*
X009443Y007157D02*
X010597Y007157D01*
X010760Y006840D02*
X010918Y006840D01*
X011016Y006682D02*
X010602Y006682D01*
X009804Y006365D02*
X009298Y006365D01*
X009423Y006206D02*
X009646Y006206D01*
X009487Y006048D02*
X009470Y006048D01*
X008174Y005572D02*
X007850Y005572D01*
X007850Y005414D02*
X008139Y005414D01*
X007958Y005255D02*
X007850Y005255D01*
X007850Y005097D02*
X007892Y005097D01*
X007890Y004938D02*
X007850Y004938D01*
X007850Y004780D02*
X007943Y004780D01*
X007850Y004621D02*
X008077Y004621D01*
X008257Y004463D02*
X007850Y004463D01*
X007850Y004304D02*
X008002Y004304D01*
X007912Y004146D02*
X007850Y004146D01*
X007850Y005731D02*
X007967Y005731D01*
X007898Y005889D02*
X007850Y005889D01*
X007850Y006048D02*
X007890Y006048D01*
X007850Y006206D02*
X007937Y006206D01*
X007850Y006365D02*
X008062Y006365D01*
X007510Y006365D02*
X000320Y006365D01*
X000320Y006523D02*
X007510Y006523D01*
X007510Y006206D02*
X000320Y006206D01*
X000320Y006048D02*
X007510Y006048D01*
X007510Y006999D02*
X006494Y006999D01*
X006580Y007084D02*
X006346Y006850D01*
X006014Y006850D01*
X005780Y007084D01*
X005780Y007416D01*
X006014Y007650D01*
X006346Y007650D01*
X006580Y007416D01*
X006580Y007084D01*
X006580Y007157D02*
X007510Y007157D01*
X007510Y007316D02*
X006580Y007316D01*
X006522Y007474D02*
X007510Y007474D01*
X007510Y007633D02*
X006363Y007633D01*
X005997Y007633D02*
X004420Y007633D01*
X004578Y007474D02*
X005838Y007474D01*
X005780Y007316D02*
X004620Y007316D01*
X004620Y007157D02*
X005780Y007157D01*
X005866Y006999D02*
X004551Y006999D01*
X003021Y008425D02*
X007510Y008425D01*
X007510Y008267D02*
X002888Y008267D01*
X002859Y008238D02*
X003002Y008381D01*
X003080Y008569D01*
X003080Y008771D01*
X003002Y008959D01*
X002859Y009102D01*
X002671Y009180D01*
X002469Y009180D01*
X002281Y009102D01*
X002138Y008959D01*
X002060Y008771D01*
X002060Y008569D01*
X002138Y008381D01*
X002281Y008238D01*
X002469Y008160D01*
X002671Y008160D01*
X002859Y008238D01*
X003080Y008584D02*
X007510Y008584D01*
X007510Y008742D02*
X003080Y008742D01*
X003027Y008901D02*
X007510Y008901D01*
X007510Y009059D02*
X006448Y009059D01*
X006469Y009068D02*
X006612Y009211D01*
X006690Y009399D01*
X006690Y009601D01*
X006612Y009789D01*
X006469Y009932D01*
X006281Y010010D01*
X006079Y010010D01*
X005891Y009932D01*
X005748Y009789D01*
X005701Y009676D01*
X005690Y009711D01*
X005650Y009788D01*
X005600Y009858D01*
X005538Y009920D01*
X005468Y009970D01*
X005391Y010010D01*
X005309Y010036D01*
X005223Y010050D01*
X005180Y010050D01*
X005180Y009500D01*
X005180Y009500D01*
X005180Y008950D01*
X005223Y008950D01*
X005309Y008964D01*
X005391Y008990D01*
X005468Y009030D01*
X005538Y009080D01*
X005600Y009142D01*
X005650Y009212D01*
X005690Y009289D01*
X005701Y009324D01*
X005748Y009211D01*
X005891Y009068D01*
X006079Y008990D01*
X006281Y008990D01*
X006469Y009068D01*
X006615Y009218D02*
X007510Y009218D01*
X007510Y009376D02*
X006681Y009376D01*
X006690Y009535D02*
X007510Y009535D01*
X007283Y009693D02*
X006652Y009693D01*
X006550Y009852D02*
X007098Y009852D01*
X006939Y010010D02*
X005390Y010010D01*
X005180Y010010D02*
X005180Y010010D01*
X005180Y010050D02*
X005137Y010050D01*
X005051Y010036D01*
X004969Y010010D01*
X004892Y009970D01*
X004822Y009920D01*
X004760Y009858D01*
X004710Y009788D01*
X004670Y009711D01*
X004659Y009676D01*
X004612Y009789D01*
X004469Y009932D01*
X004281Y010010D01*
X004079Y010010D01*
X003891Y009932D01*
X003748Y009789D01*
X003670Y009601D01*
X003670Y009399D01*
X003748Y009211D01*
X003891Y009068D01*
X004079Y008990D01*
X004281Y008990D01*
X004469Y009068D01*
X004612Y009211D01*
X004659Y009324D01*
X004670Y009289D01*
X004710Y009212D01*
X004760Y009142D01*
X004822Y009080D01*
X004892Y009030D01*
X004969Y008990D01*
X005051Y008964D01*
X005137Y008950D01*
X005180Y008950D01*
X005180Y009500D01*
X005180Y009500D01*
X005180Y010050D01*
X005180Y009852D02*
X005180Y009852D01*
X005180Y009693D02*
X005180Y009693D01*
X005180Y009535D02*
X005180Y009535D01*
X005180Y009376D02*
X005180Y009376D01*
X005180Y009218D02*
X005180Y009218D01*
X005180Y009059D02*
X005180Y009059D01*
X004851Y009059D02*
X004448Y009059D01*
X004615Y009218D02*
X004707Y009218D01*
X004664Y009693D02*
X004652Y009693D01*
X004550Y009852D02*
X004756Y009852D01*
X004970Y010010D02*
X002171Y010010D01*
X002020Y009852D02*
X003810Y009852D01*
X003708Y009693D02*
X002020Y009693D01*
X002020Y009535D02*
X003670Y009535D01*
X003679Y009376D02*
X002020Y009376D01*
X002020Y009218D02*
X003745Y009218D01*
X003912Y009059D02*
X002902Y009059D01*
X002238Y009059D02*
X002020Y009059D01*
X002020Y008901D02*
X002113Y008901D01*
X002060Y008742D02*
X002020Y008742D01*
X002020Y008584D02*
X002060Y008584D01*
X002020Y008425D02*
X002119Y008425D01*
X002020Y008267D02*
X002252Y008267D01*
X001989Y008108D02*
X007510Y008108D01*
X007510Y007950D02*
X001860Y007950D01*
X001702Y007791D02*
X007510Y007791D01*
X007850Y007791D02*
X007939Y007791D01*
X007890Y007950D02*
X007850Y007950D01*
X007850Y008108D02*
X007897Y008108D01*
X007850Y008267D02*
X007964Y008267D01*
X007850Y008425D02*
X008167Y008425D01*
X008161Y008532D02*
X008237Y008508D01*
X008315Y008495D01*
X008652Y008495D01*
X008652Y008972D01*
X007850Y008972D01*
X007850Y008960D01*
X007863Y008882D01*
X007887Y008806D01*
X007923Y008735D01*
X007970Y008671D01*
X008026Y008615D01*
X008091Y008568D01*
X008161Y008532D01*
X008070Y008584D02*
X007850Y008584D01*
X007850Y008742D02*
X007920Y008742D01*
X007860Y008901D02*
X007850Y008901D01*
X007850Y009059D02*
X007853Y009059D01*
X007850Y009218D02*
X007899Y009218D01*
X008652Y008901D02*
X008708Y008901D01*
X008708Y008972D02*
X008708Y008495D01*
X009045Y008495D01*
X009123Y008508D01*
X009199Y008532D01*
X009269Y008568D01*
X009334Y008615D01*
X009390Y008671D01*
X009437Y008735D01*
X009473Y008806D01*
X009497Y008882D01*
X009510Y008960D01*
X009510Y008972D01*
X008708Y008972D01*
X008708Y008742D02*
X008652Y008742D01*
X008652Y008584D02*
X008708Y008584D01*
X009193Y008425D02*
X011167Y008425D01*
X011146Y008584D02*
X009290Y008584D01*
X009440Y008742D02*
X010959Y008742D01*
X010893Y008901D02*
X009500Y008901D01*
X009507Y009059D02*
X010890Y009059D01*
X010942Y009218D02*
X009461Y009218D01*
X009332Y009670D02*
X009399Y009737D01*
X009470Y009908D01*
X009470Y010092D01*
X009399Y010263D01*
X009268Y010394D01*
X009097Y010465D01*
X008263Y010465D01*
X008092Y010394D01*
X008038Y010340D01*
X007571Y010340D01*
X007520Y010391D01*
X007520Y011330D01*
X008028Y011330D01*
X007961Y011263D01*
X007890Y011092D01*
X007890Y010908D01*
X007961Y010737D01*
X008092Y010606D01*
X008263Y010535D01*
X009097Y010535D01*
X009268Y010606D01*
X009399Y010737D01*
X009470Y010908D01*
X009470Y011092D01*
X009399Y011263D01*
X009332Y011330D01*
X011028Y011330D01*
X010961Y011263D01*
X010890Y011092D01*
X010890Y010908D01*
X010961Y010737D01*
X011092Y010606D01*
X011263Y010535D01*
X012097Y010535D01*
X012268Y010606D01*
X012399Y010737D01*
X012470Y010908D01*
X012470Y011092D01*
X012399Y011263D01*
X012332Y011330D01*
X013610Y011330D01*
X013780Y011160D01*
X013780Y011034D01*
X014014Y010800D01*
X014346Y010800D01*
X014580Y011034D01*
X014580Y011366D01*
X014346Y011600D01*
X014014Y011600D01*
X013917Y011503D01*
X013850Y011570D01*
X013750Y011670D01*
X012332Y011670D01*
X012399Y011737D01*
X012437Y011830D01*
X015610Y011830D01*
X016010Y011430D01*
X016110Y011330D01*
X016289Y011330D01*
X016170Y011211D01*
X016170Y010789D01*
X016289Y010670D01*
X016250Y010670D01*
X015939Y010981D01*
X015939Y011052D01*
X015900Y011147D01*
X015827Y011220D01*
X015732Y011259D01*
X015628Y011259D01*
X015533Y011220D01*
X015460Y011147D01*
X015421Y011052D01*
X015421Y010948D01*
X015460Y010853D01*
X015533Y010780D01*
X015628Y010741D01*
X015699Y010741D01*
X016010Y010430D01*
X016110Y010330D01*
X016289Y010330D01*
X016170Y010211D01*
X016170Y010170D01*
X015376Y010170D01*
X015327Y010220D01*
X015232Y010259D01*
X015128Y010259D01*
X015033Y010220D01*
X014960Y010147D01*
X014921Y010052D01*
X014921Y009948D01*
X014960Y009853D01*
X015033Y009780D01*
X015128Y009741D01*
X015232Y009741D01*
X015327Y009780D01*
X015376Y009830D01*
X016170Y009830D01*
X016170Y009789D01*
X016459Y009500D01*
X016440Y009481D01*
X016250Y009670D01*
X012389Y009670D01*
X012390Y009671D01*
X012437Y009735D01*
X012473Y009806D01*
X012497Y009882D01*
X012510Y009960D01*
X012510Y009972D01*
X011708Y009972D01*
X011708Y010028D01*
X011652Y010028D01*
X011652Y009972D01*
X010850Y009972D01*
X010850Y009960D01*
X010863Y009882D01*
X010887Y009806D01*
X010923Y009735D01*
X010970Y009671D01*
X010971Y009670D01*
X009332Y009670D01*
X009355Y009693D02*
X010954Y009693D01*
X010873Y009852D02*
X009446Y009852D01*
X009470Y010010D02*
X011652Y010010D01*
X011652Y010028D02*
X010850Y010028D01*
X010850Y010040D01*
X010863Y010118D01*
X010887Y010194D01*
X010923Y010265D01*
X010970Y010329D01*
X011026Y010385D01*
X011091Y010432D01*
X011161Y010468D01*
X011237Y010492D01*
X011315Y010505D01*
X011652Y010505D01*
X011652Y010028D01*
X011708Y010028D02*
X011708Y010505D01*
X012045Y010505D01*
X012123Y010492D01*
X012199Y010468D01*
X012269Y010432D01*
X012334Y010385D01*
X012390Y010329D01*
X012437Y010265D01*
X012473Y010194D01*
X012497Y010118D01*
X012510Y010040D01*
X012510Y010028D01*
X011708Y010028D01*
X011708Y010010D02*
X013826Y010010D01*
X013760Y010076D02*
X014006Y009830D01*
X014354Y009830D01*
X014600Y010076D01*
X014600Y010424D01*
X014354Y010670D01*
X014006Y010670D01*
X013760Y010424D01*
X013760Y010076D01*
X013760Y010169D02*
X012481Y010169D01*
X012391Y010327D02*
X013760Y010327D01*
X013822Y010486D02*
X012144Y010486D01*
X012306Y010644D02*
X013980Y010644D01*
X014012Y010803D02*
X012426Y010803D01*
X012470Y010961D02*
X013853Y010961D01*
X013780Y011120D02*
X012458Y011120D01*
X012384Y011278D02*
X013662Y011278D01*
X013825Y011595D02*
X014009Y011595D01*
X014351Y011595D02*
X015845Y011595D01*
X016003Y011437D02*
X014509Y011437D01*
X014580Y011278D02*
X016237Y011278D01*
X016170Y011120D02*
X015911Y011120D01*
X015959Y010961D02*
X016170Y010961D01*
X016170Y010803D02*
X016118Y010803D01*
X015954Y010486D02*
X014538Y010486D01*
X014600Y010327D02*
X016286Y010327D01*
X015796Y010644D02*
X014380Y010644D01*
X014348Y010803D02*
X015511Y010803D01*
X015421Y010961D02*
X014507Y010961D01*
X014580Y011120D02*
X015449Y011120D01*
X015686Y011754D02*
X012406Y011754D01*
X011975Y012465D02*
X011263Y012465D01*
X011092Y012394D01*
X010961Y012263D01*
X010890Y012092D01*
X010890Y011908D01*
X010961Y011737D01*
X011028Y011670D01*
X009332Y011670D01*
X009399Y011737D01*
X009470Y011908D01*
X009470Y012092D01*
X009399Y012263D01*
X009291Y012371D01*
X010750Y013830D01*
X010850Y013930D01*
X010850Y015330D01*
X011028Y015330D01*
X010961Y015263D01*
X010890Y015092D01*
X010890Y014908D01*
X010961Y014737D01*
X011092Y014606D01*
X011263Y014535D01*
X012097Y014535D01*
X012268Y014606D01*
X012399Y014737D01*
X012437Y014830D01*
X013944Y014830D01*
X013784Y014670D01*
X013376Y014670D01*
X013327Y014720D01*
X013232Y014759D01*
X013128Y014759D01*
X013033Y014720D01*
X012960Y014647D01*
X012921Y014552D01*
X012921Y014448D01*
X012138Y014448D01*
X012097Y014465D02*
X011263Y014465D01*
X011092Y014394D01*
X010961Y014263D01*
X010890Y014092D01*
X010890Y013908D01*
X010961Y013737D01*
X011092Y013606D01*
X011263Y013535D01*
X012097Y013535D01*
X012268Y013606D01*
X012399Y013737D01*
X012437Y013830D01*
X015484Y013830D01*
X015533Y013780D01*
X015628Y013741D01*
X015732Y013741D01*
X015827Y013780D01*
X015900Y013853D01*
X015939Y013948D01*
X015939Y014052D01*
X015900Y014147D01*
X015827Y014220D01*
X015732Y014259D01*
X015628Y014259D01*
X015533Y014220D01*
X015484Y014170D01*
X014416Y014170D01*
X014580Y014334D01*
X014580Y014666D01*
X014396Y014850D01*
X014400Y014853D01*
X014439Y014948D01*
X014439Y015052D01*
X014400Y015147D01*
X014327Y015220D01*
X014232Y015259D01*
X014128Y015259D01*
X014033Y015220D01*
X013984Y015170D01*
X012437Y015170D01*
X012399Y015263D01*
X012291Y015371D01*
X012421Y015501D01*
X012421Y015448D01*
X012460Y015353D01*
X012533Y015280D01*
X012628Y015241D01*
X012732Y015241D01*
X012827Y015280D01*
X012876Y015330D01*
X016289Y015330D01*
X016170Y015211D01*
X016170Y014789D01*
X016459Y014500D01*
X016170Y014211D01*
X016170Y013789D01*
X016459Y013500D01*
X016170Y013211D01*
X016170Y012789D01*
X016289Y012670D01*
X012332Y012670D01*
X012399Y012737D01*
X012470Y012908D01*
X012470Y013092D01*
X012399Y013263D01*
X012268Y013394D01*
X012097Y013465D01*
X011263Y013465D01*
X011092Y013394D01*
X010961Y013263D01*
X010890Y013092D01*
X010890Y012908D01*
X010961Y012737D01*
X011092Y012606D01*
X011263Y012535D01*
X011904Y012535D01*
X011975Y012465D01*
X012367Y012705D02*
X016254Y012705D01*
X016170Y012863D02*
X014465Y012863D01*
X014362Y012760D02*
X014620Y013018D01*
X014620Y013200D01*
X014620Y013382D01*
X014362Y013640D01*
X014180Y013640D01*
X014180Y013200D01*
X014180Y013200D01*
X014620Y013200D01*
X014180Y013200D01*
X014180Y013200D01*
X014180Y013200D01*
X013740Y013200D01*
X013740Y013382D01*
X013998Y013640D01*
X014180Y013640D01*
X014180Y013200D01*
X014180Y012760D01*
X014362Y012760D01*
X014180Y012760D02*
X014180Y013200D01*
X014180Y013200D01*
X013740Y013200D01*
X013740Y013018D01*
X013998Y012760D01*
X014180Y012760D01*
X014180Y012863D02*
X014180Y012863D01*
X014180Y013022D02*
X014180Y013022D01*
X014180Y013180D02*
X014180Y013180D01*
X014180Y013339D02*
X014180Y013339D01*
X014180Y013497D02*
X014180Y013497D01*
X014505Y013497D02*
X016456Y013497D01*
X016303Y013656D02*
X012318Y013656D01*
X012431Y013814D02*
X015500Y013814D01*
X015860Y013814D02*
X016170Y013814D01*
X016170Y013973D02*
X015939Y013973D01*
X015906Y014131D02*
X016170Y014131D01*
X016248Y014290D02*
X014535Y014290D01*
X014580Y014448D02*
X016407Y014448D01*
X016352Y014607D02*
X014580Y014607D01*
X014481Y014765D02*
X016194Y014765D01*
X016170Y014924D02*
X014429Y014924D01*
X014426Y015082D02*
X016170Y015082D01*
X016199Y015241D02*
X014276Y015241D01*
X014084Y015241D02*
X012408Y015241D01*
X012441Y015399D02*
X012319Y015399D01*
X012411Y014765D02*
X013879Y014765D01*
X013784Y014330D02*
X013944Y014170D01*
X012437Y014170D01*
X012399Y014263D01*
X012268Y014394D01*
X012097Y014465D01*
X012269Y014607D02*
X012944Y014607D01*
X012921Y014448D02*
X012960Y014353D01*
X013033Y014280D01*
X013128Y014241D01*
X013232Y014241D01*
X013327Y014280D01*
X013376Y014330D01*
X013784Y014330D01*
X013825Y014290D02*
X013336Y014290D01*
X013024Y014290D02*
X012373Y014290D01*
X012324Y013339D02*
X013740Y013339D01*
X013740Y013180D02*
X012433Y013180D01*
X012470Y013022D02*
X013740Y013022D01*
X013895Y012863D02*
X012451Y012863D01*
X011237Y012546D02*
X009466Y012546D01*
X009308Y012388D02*
X011085Y012388D01*
X010947Y012229D02*
X009413Y012229D01*
X009470Y012071D02*
X010890Y012071D01*
X010890Y011912D02*
X009470Y011912D01*
X009406Y011754D02*
X010954Y011754D01*
X010976Y011278D02*
X009384Y011278D01*
X009458Y011120D02*
X010902Y011120D01*
X010890Y010961D02*
X009470Y010961D01*
X009426Y010803D02*
X010934Y010803D01*
X011054Y010644D02*
X009306Y010644D01*
X009335Y010327D02*
X010969Y010327D01*
X010879Y010169D02*
X009438Y010169D01*
X008054Y010644D02*
X007520Y010644D01*
X007520Y010486D02*
X011216Y010486D01*
X011652Y010486D02*
X011708Y010486D01*
X011708Y010327D02*
X011652Y010327D01*
X011652Y010169D02*
X011708Y010169D01*
X012406Y009693D02*
X016266Y009693D01*
X016386Y009535D02*
X016424Y009535D01*
X015706Y008267D02*
X012396Y008267D01*
X010964Y008267D02*
X009396Y008267D01*
X009463Y008108D02*
X010897Y008108D01*
X010890Y007950D02*
X009470Y007950D01*
X009421Y007791D02*
X010939Y007791D01*
X012487Y009852D02*
X013985Y009852D01*
X014375Y009852D02*
X014962Y009852D01*
X014921Y010010D02*
X014534Y010010D01*
X014600Y010169D02*
X014982Y010169D01*
X016028Y008108D02*
X016170Y008108D01*
X016170Y007950D02*
X015870Y007950D01*
X019350Y010486D02*
X019725Y010486D01*
X019725Y010644D02*
X019350Y010644D01*
X019350Y010803D02*
X019725Y010803D01*
X019725Y010961D02*
X019350Y010961D01*
X019350Y011120D02*
X019725Y011120D01*
X019725Y011278D02*
X019350Y011278D01*
X019350Y011437D02*
X019725Y011437D01*
X019725Y011595D02*
X019350Y011595D01*
X019350Y011754D02*
X019725Y011754D01*
X019725Y011912D02*
X019350Y011912D01*
X019350Y012071D02*
X019725Y012071D01*
X019725Y012229D02*
X019350Y012229D01*
X019350Y012388D02*
X019725Y012388D01*
X019725Y012546D02*
X019350Y012546D01*
X019350Y012705D02*
X019725Y012705D01*
X019725Y012863D02*
X019350Y012863D01*
X019350Y013022D02*
X019725Y013022D01*
X019725Y013180D02*
X019350Y013180D01*
X019350Y013339D02*
X019725Y013339D01*
X019725Y013497D02*
X019350Y013497D01*
X019350Y013656D02*
X019725Y013656D01*
X019725Y013814D02*
X019350Y013814D01*
X019350Y013973D02*
X019725Y013973D01*
X019725Y014131D02*
X019350Y014131D01*
X019350Y014290D02*
X019725Y014290D01*
X019725Y014448D02*
X019350Y014448D01*
X019350Y014607D02*
X019725Y014607D01*
X019725Y014765D02*
X019350Y014765D01*
X019350Y014924D02*
X019725Y014924D01*
X019725Y015082D02*
X019350Y015082D01*
X019350Y015241D02*
X019725Y015241D01*
X019725Y015399D02*
X019350Y015399D01*
X019350Y015558D02*
X019725Y015558D01*
X019725Y015716D02*
X019350Y015716D01*
X019350Y015875D02*
X019725Y015875D01*
X019725Y016033D02*
X019350Y016033D01*
X019350Y016192D02*
X019725Y016192D01*
X019725Y016350D02*
X019350Y016350D01*
X019350Y016509D02*
X019725Y016509D01*
X019725Y016667D02*
X019350Y016667D01*
X019350Y016826D02*
X019725Y016826D01*
X019725Y016984D02*
X019350Y016984D01*
X019278Y017143D02*
X019725Y017143D01*
X019725Y017301D02*
X019119Y017301D01*
X018961Y017460D02*
X019725Y017460D01*
X019725Y017618D02*
X018802Y017618D01*
X018644Y017777D02*
X019725Y017777D01*
X019725Y017935D02*
X018485Y017935D01*
X018163Y017777D02*
X018144Y017777D01*
X018005Y017935D02*
X017985Y017935D01*
X017846Y018094D02*
X017827Y018094D01*
X017688Y018252D02*
X015670Y018252D01*
X015727Y018411D02*
X017529Y018411D01*
X017371Y018569D02*
X015730Y018569D01*
X015735Y018500D02*
X015230Y018500D01*
X015230Y018500D01*
X015230Y018500D01*
X014725Y018500D01*
X014725Y018540D01*
X014737Y018618D01*
X014762Y018694D01*
X014798Y018765D01*
X014845Y018829D01*
X014846Y018830D01*
X014695Y018830D01*
X014695Y018170D01*
X014846Y018170D01*
X014845Y018171D01*
X014798Y018235D01*
X014762Y018306D01*
X014737Y018382D01*
X014725Y018460D01*
X014725Y018500D01*
X015230Y018500D01*
X015735Y018500D01*
X015681Y018728D02*
X017212Y018728D01*
X016170Y016830D02*
X016170Y016789D01*
X016459Y016500D01*
X016170Y016211D01*
X016170Y016170D01*
X014472Y016170D01*
X014620Y016318D01*
X014620Y016500D01*
X014620Y016682D01*
X014472Y016830D01*
X016170Y016830D01*
X016170Y016826D02*
X014477Y016826D01*
X014620Y016667D02*
X016292Y016667D01*
X016450Y016509D02*
X014620Y016509D01*
X014620Y016500D02*
X014180Y016500D01*
X014180Y016500D01*
X014180Y016500D01*
X013740Y016500D01*
X013740Y016682D01*
X013888Y016830D01*
X010750Y016830D01*
X009291Y015371D01*
X009399Y015263D01*
X009470Y015092D01*
X009470Y015030D01*
X011110Y016670D01*
X012750Y016670D01*
X012850Y016570D01*
X013250Y016170D01*
X013888Y016170D01*
X013740Y016318D01*
X013740Y016500D01*
X014180Y016500D01*
X014620Y016500D01*
X014620Y016350D02*
X016309Y016350D01*
X016170Y016192D02*
X014494Y016192D01*
X013866Y016192D02*
X013229Y016192D01*
X013070Y016350D02*
X013740Y016350D01*
X013740Y016509D02*
X012912Y016509D01*
X012753Y016667D02*
X013740Y016667D01*
X013883Y016826D02*
X010746Y016826D01*
X010587Y016667D02*
X011107Y016667D01*
X010948Y016509D02*
X010429Y016509D01*
X010270Y016350D02*
X010790Y016350D01*
X010631Y016192D02*
X010112Y016192D01*
X009953Y016033D02*
X010473Y016033D01*
X010314Y015875D02*
X009795Y015875D01*
X009636Y015716D02*
X010156Y015716D01*
X009997Y015558D02*
X009478Y015558D01*
X009319Y015399D02*
X009839Y015399D01*
X009680Y015241D02*
X009408Y015241D01*
X009470Y015082D02*
X009522Y015082D01*
X010850Y015082D02*
X010890Y015082D01*
X010890Y014924D02*
X010850Y014924D01*
X010850Y014765D02*
X010949Y014765D01*
X010850Y014607D02*
X011091Y014607D01*
X011222Y014448D02*
X010850Y014448D01*
X010850Y014290D02*
X010987Y014290D01*
X010906Y014131D02*
X010850Y014131D01*
X010850Y013973D02*
X010890Y013973D01*
X010929Y013814D02*
X010734Y013814D01*
X010576Y013656D02*
X011042Y013656D01*
X011036Y013339D02*
X010259Y013339D01*
X010417Y013497D02*
X013855Y013497D01*
X014620Y013339D02*
X016297Y013339D01*
X016170Y013180D02*
X014620Y013180D01*
X014620Y013022D02*
X016170Y013022D01*
X010993Y012705D02*
X009625Y012705D01*
X009783Y012863D02*
X010909Y012863D01*
X010890Y013022D02*
X009942Y013022D01*
X010100Y013180D02*
X010927Y013180D01*
X010952Y015241D02*
X010850Y015241D01*
X009265Y016826D02*
X006571Y016826D01*
X006580Y016834D02*
X006346Y016600D01*
X006014Y016600D01*
X005780Y016834D01*
X005780Y017166D01*
X006014Y017400D01*
X006346Y017400D01*
X006580Y017166D01*
X006580Y016834D01*
X006580Y016984D02*
X009424Y016984D01*
X009582Y017143D02*
X006580Y017143D01*
X006445Y017301D02*
X009741Y017301D01*
X009899Y017460D02*
X005520Y017460D01*
X005520Y017618D02*
X010058Y017618D01*
X009107Y016667D02*
X006413Y016667D01*
X005947Y016667D02*
X005744Y016667D01*
X005789Y016826D02*
X005585Y016826D01*
X005520Y016984D02*
X005780Y016984D01*
X005780Y017143D02*
X005520Y017143D01*
X005520Y017301D02*
X005915Y017301D01*
X007402Y016509D02*
X008948Y016509D01*
X008048Y016350D02*
X007561Y016350D01*
X007719Y016192D02*
X007931Y016192D01*
X007890Y016033D02*
X007770Y016033D01*
X007770Y015875D02*
X007904Y015875D01*
X007982Y015716D02*
X007770Y015716D01*
X007770Y015558D02*
X008209Y015558D01*
X008104Y015399D02*
X007770Y015399D01*
X007770Y015241D02*
X007952Y015241D01*
X007890Y015082D02*
X007770Y015082D01*
X007770Y014924D02*
X007890Y014924D01*
X007949Y014765D02*
X007770Y014765D01*
X007770Y014607D02*
X008091Y014607D01*
X008222Y014448D02*
X007770Y014448D01*
X006702Y013497D02*
X006620Y013497D01*
X006620Y013339D02*
X006840Y013339D01*
X006840Y013180D02*
X006482Y013180D01*
X005872Y013814D02*
X004698Y013814D01*
X004610Y013656D02*
X005740Y013656D01*
X005740Y013497D02*
X004404Y013497D01*
X004200Y013497D02*
X004160Y013497D01*
X004160Y013450D02*
X004160Y013980D01*
X003630Y013980D01*
X003630Y013957D01*
X003644Y013871D01*
X003670Y013789D01*
X003710Y013712D01*
X003760Y013642D01*
X003822Y013580D01*
X003892Y013530D01*
X003969Y013490D01*
X004051Y013464D01*
X004137Y013450D01*
X004160Y013450D01*
X004160Y013656D02*
X004200Y013656D01*
X004200Y013814D02*
X004160Y013814D01*
X004160Y013973D02*
X004200Y013973D01*
X004200Y014131D02*
X004160Y014131D01*
X004160Y014290D02*
X004200Y014290D01*
X004200Y014448D02*
X004160Y014448D01*
X004160Y014607D02*
X004200Y014607D01*
X004200Y014765D02*
X004160Y014765D01*
X004160Y014924D02*
X004200Y014924D01*
X003796Y014607D02*
X000320Y014607D01*
X000320Y014765D02*
X003682Y014765D01*
X003635Y014924D02*
X000320Y014924D01*
X000320Y015082D02*
X003636Y015082D01*
X003685Y015241D02*
X000320Y015241D01*
X000320Y015399D02*
X003801Y015399D01*
X003861Y014448D02*
X000320Y014448D01*
X000320Y014290D02*
X003711Y014290D01*
X003644Y014131D02*
X000320Y014131D01*
X000320Y013973D02*
X003630Y013973D01*
X003662Y013814D02*
X000320Y013814D01*
X000320Y013656D02*
X003750Y013656D01*
X003956Y013497D02*
X000320Y013497D01*
X000320Y013339D02*
X005740Y013339D01*
X005811Y011754D02*
X004492Y011754D01*
X004580Y011595D02*
X005740Y011595D01*
X005740Y011437D02*
X004580Y011437D01*
X004524Y011278D02*
X005780Y011278D01*
X005938Y011120D02*
X004365Y011120D01*
X003995Y011120D02*
X003076Y011120D01*
X003080Y011278D02*
X003836Y011278D01*
X003780Y011437D02*
X003036Y011437D01*
X003011Y010961D02*
X006840Y010961D01*
X007520Y010961D02*
X007890Y010961D01*
X007902Y011120D02*
X007520Y011120D01*
X007520Y011278D02*
X007976Y011278D01*
X007934Y010803D02*
X007520Y010803D01*
X005810Y009852D02*
X005604Y009852D01*
X005696Y009693D02*
X005708Y009693D01*
X005745Y009218D02*
X005653Y009218D01*
X005509Y009059D02*
X005912Y009059D01*
X007850Y007633D02*
X008065Y007633D01*
X006180Y004463D02*
X006180Y004463D01*
X006180Y004304D02*
X006180Y004304D01*
X006180Y004146D02*
X006180Y004146D01*
X006180Y003987D02*
X006180Y003987D01*
X006180Y003829D02*
X006180Y003829D01*
X006180Y003670D02*
X006180Y003670D01*
X005796Y003670D02*
X005645Y003670D01*
X005645Y003829D02*
X005705Y003829D01*
X005675Y003987D02*
X005645Y003987D01*
X005645Y004146D02*
X005696Y004146D01*
X005645Y004304D02*
X005777Y004304D01*
X005975Y004463D02*
X005565Y004463D01*
X004843Y002085D02*
X004566Y002085D01*
X004644Y001927D02*
X004756Y001927D01*
X004740Y001768D02*
X004660Y001768D01*
X004660Y001610D02*
X004740Y001610D01*
X004660Y001480D02*
X004200Y001480D01*
X004200Y000720D01*
X004218Y000720D01*
X004292Y000732D01*
X004364Y000755D01*
X004432Y000789D01*
X004493Y000834D01*
X004546Y000887D01*
X004591Y000948D01*
X004625Y001016D01*
X004648Y001088D01*
X004660Y001162D01*
X004660Y001480D01*
X004660Y001451D02*
X004740Y001451D01*
X004740Y001293D02*
X004660Y001293D01*
X004656Y001134D02*
X004740Y001134D01*
X004797Y000976D02*
X004604Y000976D01*
X004469Y000817D02*
X004955Y000817D01*
X005405Y000817D02*
X019381Y000817D01*
X019542Y000976D02*
X017896Y000976D01*
X018054Y001134D02*
X019644Y001134D01*
X019695Y001293D02*
X018213Y001293D01*
X019038Y000659D02*
X001007Y000659D01*
X001903Y001134D02*
X002740Y001134D01*
X002740Y001293D02*
X002061Y001293D01*
X002140Y001451D02*
X002740Y001451D01*
X002740Y001610D02*
X002200Y001610D01*
X002200Y001768D02*
X002740Y001768D01*
X002756Y001927D02*
X002190Y001927D01*
X002125Y002085D02*
X002843Y002085D01*
X003517Y002085D02*
X003794Y002085D01*
X003716Y001927D02*
X003604Y001927D01*
X003620Y001768D02*
X003700Y001768D01*
X003700Y001610D02*
X003620Y001610D01*
X003620Y001451D02*
X003700Y001451D01*
X003700Y001293D02*
X003620Y001293D01*
X003620Y001134D02*
X003704Y001134D01*
X003756Y000976D02*
X003563Y000976D01*
X003405Y000817D02*
X003891Y000817D01*
X004160Y000817D02*
X004200Y000817D01*
X004200Y000976D02*
X004160Y000976D01*
X004160Y001134D02*
X004200Y001134D01*
X004200Y001293D02*
X004160Y001293D01*
X004160Y001451D02*
X004200Y001451D01*
X004200Y001610D02*
X004160Y001610D01*
X004160Y001768D02*
X004200Y001768D01*
X004200Y001927D02*
X004160Y001927D01*
X004160Y002085D02*
X004200Y002085D01*
X001965Y004938D02*
X000320Y004938D01*
X000320Y005097D02*
X001965Y005097D01*
X001965Y005255D02*
X000320Y005255D01*
X000320Y005414D02*
X001965Y005414D01*
X001965Y005572D02*
X000320Y005572D01*
X001364Y006840D02*
X002496Y006840D01*
X002338Y006999D02*
X001522Y006999D01*
X001600Y007157D02*
X002260Y007157D01*
X002260Y007316D02*
X001600Y007316D01*
X001550Y007474D02*
X002310Y007474D01*
X002469Y007633D02*
X001543Y007633D01*
X000810Y008267D02*
X000770Y008267D01*
X000770Y008425D02*
X000810Y008425D01*
X000810Y008584D02*
X000770Y008584D01*
X000770Y008742D02*
X000810Y008742D01*
X000810Y008901D02*
X000770Y008901D01*
X000770Y009059D02*
X000810Y009059D01*
X000401Y009059D02*
X000320Y009059D01*
X000320Y008267D02*
X000416Y008267D01*
X000443Y010803D02*
X000320Y010803D01*
X000770Y010803D02*
X000810Y010803D01*
X000810Y010961D02*
X000770Y010961D01*
X000770Y011120D02*
X000810Y011120D01*
X000810Y011278D02*
X000770Y011278D01*
X000770Y011437D02*
X000810Y011437D01*
X000810Y011595D02*
X000770Y011595D01*
X000377Y011595D02*
X000320Y011595D01*
X006580Y018886D02*
X012826Y018886D01*
X012984Y019045D02*
X006580Y019045D01*
X012758Y018252D02*
X013765Y018252D01*
X013765Y018411D02*
X012923Y018411D01*
X012989Y018569D02*
X013765Y018569D01*
X013765Y018728D02*
X013148Y018728D01*
X013010Y019070D02*
X013010Y019070D01*
X014695Y018728D02*
X014779Y018728D01*
X014730Y018569D02*
X014695Y018569D01*
X014695Y018411D02*
X014733Y018411D01*
X014695Y018252D02*
X014790Y018252D01*
X000343Y002878D02*
X000320Y002878D01*
D19*
X009680Y003000D03*
X009680Y005500D03*
X012680Y002000D03*
X015180Y003000D03*
X016180Y006000D03*
X017180Y007000D03*
X015680Y007500D03*
X016180Y008500D03*
X015180Y010000D03*
X015680Y011000D03*
X018180Y013500D03*
X018680Y014500D03*
X018680Y015500D03*
X018680Y016500D03*
X015930Y016500D03*
X015430Y016500D03*
X014930Y016500D03*
X014180Y015000D03*
X013180Y014500D03*
X012680Y015500D03*
X012680Y016000D03*
X010680Y018000D03*
X010680Y018750D03*
X011180Y018750D03*
X011680Y018750D03*
X012180Y018750D03*
X012680Y018500D03*
X015680Y014000D03*
D20*
X008680Y014000D02*
X007680Y014000D01*
X007430Y014250D01*
X007430Y016000D01*
X007180Y016250D01*
X005680Y016250D01*
X005180Y016750D01*
X005180Y017750D01*
X004930Y018000D01*
X004180Y018000D01*
X004180Y016000D02*
X004680Y016000D01*
X005180Y015500D01*
X006180Y015500D01*
X006680Y015000D01*
X006680Y014000D01*
X007180Y013500D01*
X007180Y011500D01*
X007180Y010500D01*
X002180Y010500D01*
X001680Y010000D01*
X001680Y008250D01*
X001180Y007750D01*
X001180Y007250D01*
X004930Y004000D02*
X004180Y003250D01*
X000820Y003250D01*
X000756Y003186D01*
X004930Y004000D02*
X005180Y004000D01*
X007430Y010000D02*
X008680Y010000D01*
X007430Y010000D02*
X007180Y010250D01*
X007180Y010500D01*
D21*
X007180Y011500D02*
X013680Y011500D01*
X014180Y011000D01*
X014180Y011200D01*
X015180Y010000D02*
X016680Y010000D01*
X017180Y010500D02*
X017680Y011000D01*
X018180Y011500D02*
X018680Y012000D01*
X018680Y014000D01*
X017680Y014000D01*
X017180Y013500D02*
X018180Y013500D01*
X017680Y013000D02*
X017180Y012500D01*
X012180Y012500D01*
X011680Y013000D01*
X011680Y012000D02*
X015680Y012000D01*
X016180Y011500D01*
X018180Y011500D01*
X017180Y010500D02*
X016180Y010500D01*
X015680Y011000D01*
X016180Y009500D02*
X016680Y009000D01*
X016180Y008500D02*
X015680Y008000D01*
X013680Y008000D01*
X013180Y007500D01*
X011180Y007500D01*
X008680Y005000D01*
X008680Y004000D02*
X009180Y003500D01*
X013680Y003500D01*
X014180Y003000D01*
X015180Y003000D01*
X015180Y003500D02*
X013180Y005500D01*
X009680Y005500D01*
X011680Y006000D02*
X016180Y006000D01*
X017180Y005500D02*
X017680Y005000D01*
X017680Y004750D01*
X017180Y005500D02*
X014180Y005500D01*
X014180Y005250D01*
X015180Y003500D02*
X016180Y003500D01*
X016680Y003000D01*
X016680Y002750D01*
X016180Y002500D02*
X016680Y002000D01*
X017680Y002000D01*
X018180Y002500D01*
X018180Y007000D01*
X017180Y007000D01*
X017180Y007500D02*
X016680Y008000D01*
X017180Y007500D02*
X019180Y007500D01*
X019180Y002500D01*
X017680Y001000D01*
X013680Y001000D01*
X012680Y002000D01*
X010180Y002500D02*
X016180Y002500D01*
X013180Y007000D02*
X011680Y007000D01*
X013180Y007000D02*
X013680Y007500D01*
X015680Y007500D01*
X016180Y009500D02*
X007680Y009500D01*
X007680Y004000D01*
X008680Y003000D01*
X009680Y003000D02*
X010180Y002500D01*
X017680Y008000D02*
X017680Y009000D01*
X017680Y010000D02*
X019180Y010000D01*
X019180Y017000D01*
X017180Y019000D01*
X013180Y019000D01*
X012680Y018500D01*
X012680Y016500D02*
X011180Y016500D01*
X008680Y014000D01*
X008680Y015000D02*
X010680Y017000D01*
X016680Y017000D01*
X017180Y017500D02*
X017180Y016500D01*
X017680Y016000D01*
X017180Y015500D02*
X017680Y015000D01*
X017180Y014500D02*
X018180Y014500D01*
X018180Y017500D01*
X017680Y018000D01*
X010680Y018000D01*
X010180Y017500D02*
X008680Y016000D01*
X010180Y017500D02*
X017180Y017500D01*
X016680Y016000D02*
X013180Y016000D01*
X012680Y016500D01*
X012680Y016000D02*
X012180Y015500D01*
X010680Y015500D01*
X010680Y014000D01*
X008680Y012000D01*
X011680Y014000D02*
X015680Y014000D01*
X016680Y013000D02*
X017180Y013500D01*
X017180Y014500D02*
X016680Y015000D01*
X017180Y015500D02*
X012680Y015500D01*
X013180Y014500D02*
X014180Y014500D01*
X014180Y015000D02*
X011680Y015000D01*
M02*
