G75*
G70*
%OFA0B0*%
%FSLAX24Y24*%
%IPPOS*%
%LPD*%
%AMOC8*
5,1,8,0,0,1.08239X$1,22.5*
%
%ADD10C,0.0000*%
D10*
X001164Y000500D02*
X018881Y000500D01*
X018943Y000502D01*
X019004Y000508D01*
X019065Y000517D01*
X019126Y000531D01*
X019185Y000548D01*
X019243Y000569D01*
X019300Y000594D01*
X019355Y000622D01*
X019408Y000653D01*
X019459Y000688D01*
X019508Y000726D01*
X019555Y000767D01*
X019598Y000810D01*
X019639Y000857D01*
X019677Y000906D01*
X019712Y000957D01*
X019743Y001010D01*
X019771Y001065D01*
X019796Y001122D01*
X019817Y001180D01*
X019834Y001239D01*
X019848Y001300D01*
X019857Y001361D01*
X019863Y001422D01*
X019865Y001484D01*
X019865Y019201D01*
X019856Y019265D01*
X019843Y019329D01*
X019826Y019392D01*
X019806Y019453D01*
X019783Y019514D01*
X019755Y019573D01*
X019725Y019630D01*
X019691Y019685D01*
X019654Y019739D01*
X019614Y019790D01*
X019571Y019838D01*
X019525Y019885D01*
X019477Y019928D01*
X019426Y019968D01*
X019373Y020006D01*
X019318Y020040D01*
X019261Y020071D01*
X019202Y020099D01*
X019142Y020123D01*
X019080Y020144D01*
X019018Y020161D01*
X018954Y020174D01*
X018890Y020184D01*
X018826Y020190D01*
X018761Y020192D01*
X018696Y020190D01*
X018631Y020185D01*
X000914Y020185D01*
X000858Y020175D01*
X000803Y020161D01*
X000749Y020144D01*
X000696Y020123D01*
X000645Y020099D01*
X000595Y020072D01*
X000547Y020041D01*
X000501Y020007D01*
X000458Y019971D01*
X000417Y019931D01*
X000379Y019889D01*
X000343Y019845D01*
X000311Y019798D01*
X000281Y019750D01*
X000255Y019699D01*
X000233Y019647D01*
X000213Y019594D01*
X000198Y019539D01*
X000185Y019484D01*
X000177Y019428D01*
X000172Y019371D01*
X000171Y019314D01*
X000174Y019257D01*
X000180Y019201D01*
X000180Y001484D01*
X000182Y001422D01*
X000188Y001361D01*
X000197Y001300D01*
X000211Y001239D01*
X000228Y001180D01*
X000249Y001122D01*
X000274Y001065D01*
X000302Y001010D01*
X000333Y000957D01*
X000368Y000906D01*
X000406Y000857D01*
X000447Y000810D01*
X000490Y000767D01*
X000537Y000726D01*
X000586Y000688D01*
X000637Y000653D01*
X000690Y000622D01*
X000745Y000594D01*
X000802Y000569D01*
X000860Y000548D01*
X000919Y000531D01*
X000980Y000517D01*
X001041Y000508D01*
X001102Y000502D01*
X001164Y000500D01*
X000800Y001750D02*
X000802Y001800D01*
X000808Y001850D01*
X000818Y001899D01*
X000832Y001947D01*
X000849Y001994D01*
X000870Y002039D01*
X000895Y002083D01*
X000923Y002124D01*
X000955Y002163D01*
X000989Y002200D01*
X001026Y002234D01*
X001066Y002264D01*
X001108Y002291D01*
X001152Y002315D01*
X001198Y002336D01*
X001245Y002352D01*
X001293Y002365D01*
X001343Y002374D01*
X001392Y002379D01*
X001443Y002380D01*
X001493Y002377D01*
X001542Y002370D01*
X001591Y002359D01*
X001639Y002344D01*
X001685Y002326D01*
X001730Y002304D01*
X001773Y002278D01*
X001814Y002249D01*
X001853Y002217D01*
X001889Y002182D01*
X001921Y002144D01*
X001951Y002104D01*
X001978Y002061D01*
X002001Y002017D01*
X002020Y001971D01*
X002036Y001923D01*
X002048Y001874D01*
X002056Y001825D01*
X002060Y001775D01*
X002060Y001725D01*
X002056Y001675D01*
X002048Y001626D01*
X002036Y001577D01*
X002020Y001529D01*
X002001Y001483D01*
X001978Y001439D01*
X001951Y001396D01*
X001921Y001356D01*
X001889Y001318D01*
X001853Y001283D01*
X001814Y001251D01*
X001773Y001222D01*
X001730Y001196D01*
X001685Y001174D01*
X001639Y001156D01*
X001591Y001141D01*
X001542Y001130D01*
X001493Y001123D01*
X001443Y001120D01*
X001392Y001121D01*
X001343Y001126D01*
X001293Y001135D01*
X001245Y001148D01*
X001198Y001164D01*
X001152Y001185D01*
X001108Y001209D01*
X001066Y001236D01*
X001026Y001266D01*
X000989Y001300D01*
X000955Y001337D01*
X000923Y001376D01*
X000895Y001417D01*
X000870Y001461D01*
X000849Y001506D01*
X000832Y001553D01*
X000818Y001601D01*
X000808Y001650D01*
X000802Y001700D01*
X000800Y001750D01*
X000800Y019000D02*
X000802Y019050D01*
X000808Y019100D01*
X000818Y019149D01*
X000832Y019197D01*
X000849Y019244D01*
X000870Y019289D01*
X000895Y019333D01*
X000923Y019374D01*
X000955Y019413D01*
X000989Y019450D01*
X001026Y019484D01*
X001066Y019514D01*
X001108Y019541D01*
X001152Y019565D01*
X001198Y019586D01*
X001245Y019602D01*
X001293Y019615D01*
X001343Y019624D01*
X001392Y019629D01*
X001443Y019630D01*
X001493Y019627D01*
X001542Y019620D01*
X001591Y019609D01*
X001639Y019594D01*
X001685Y019576D01*
X001730Y019554D01*
X001773Y019528D01*
X001814Y019499D01*
X001853Y019467D01*
X001889Y019432D01*
X001921Y019394D01*
X001951Y019354D01*
X001978Y019311D01*
X002001Y019267D01*
X002020Y019221D01*
X002036Y019173D01*
X002048Y019124D01*
X002056Y019075D01*
X002060Y019025D01*
X002060Y018975D01*
X002056Y018925D01*
X002048Y018876D01*
X002036Y018827D01*
X002020Y018779D01*
X002001Y018733D01*
X001978Y018689D01*
X001951Y018646D01*
X001921Y018606D01*
X001889Y018568D01*
X001853Y018533D01*
X001814Y018501D01*
X001773Y018472D01*
X001730Y018446D01*
X001685Y018424D01*
X001639Y018406D01*
X001591Y018391D01*
X001542Y018380D01*
X001493Y018373D01*
X001443Y018370D01*
X001392Y018371D01*
X001343Y018376D01*
X001293Y018385D01*
X001245Y018398D01*
X001198Y018414D01*
X001152Y018435D01*
X001108Y018459D01*
X001066Y018486D01*
X001026Y018516D01*
X000989Y018550D01*
X000955Y018587D01*
X000923Y018626D01*
X000895Y018667D01*
X000870Y018711D01*
X000849Y018756D01*
X000832Y018803D01*
X000818Y018851D01*
X000808Y018900D01*
X000802Y018950D01*
X000800Y019000D01*
X018050Y019000D02*
X018052Y019050D01*
X018058Y019100D01*
X018068Y019149D01*
X018082Y019197D01*
X018099Y019244D01*
X018120Y019289D01*
X018145Y019333D01*
X018173Y019374D01*
X018205Y019413D01*
X018239Y019450D01*
X018276Y019484D01*
X018316Y019514D01*
X018358Y019541D01*
X018402Y019565D01*
X018448Y019586D01*
X018495Y019602D01*
X018543Y019615D01*
X018593Y019624D01*
X018642Y019629D01*
X018693Y019630D01*
X018743Y019627D01*
X018792Y019620D01*
X018841Y019609D01*
X018889Y019594D01*
X018935Y019576D01*
X018980Y019554D01*
X019023Y019528D01*
X019064Y019499D01*
X019103Y019467D01*
X019139Y019432D01*
X019171Y019394D01*
X019201Y019354D01*
X019228Y019311D01*
X019251Y019267D01*
X019270Y019221D01*
X019286Y019173D01*
X019298Y019124D01*
X019306Y019075D01*
X019310Y019025D01*
X019310Y018975D01*
X019306Y018925D01*
X019298Y018876D01*
X019286Y018827D01*
X019270Y018779D01*
X019251Y018733D01*
X019228Y018689D01*
X019201Y018646D01*
X019171Y018606D01*
X019139Y018568D01*
X019103Y018533D01*
X019064Y018501D01*
X019023Y018472D01*
X018980Y018446D01*
X018935Y018424D01*
X018889Y018406D01*
X018841Y018391D01*
X018792Y018380D01*
X018743Y018373D01*
X018693Y018370D01*
X018642Y018371D01*
X018593Y018376D01*
X018543Y018385D01*
X018495Y018398D01*
X018448Y018414D01*
X018402Y018435D01*
X018358Y018459D01*
X018316Y018486D01*
X018276Y018516D01*
X018239Y018550D01*
X018205Y018587D01*
X018173Y018626D01*
X018145Y018667D01*
X018120Y018711D01*
X018099Y018756D01*
X018082Y018803D01*
X018068Y018851D01*
X018058Y018900D01*
X018052Y018950D01*
X018050Y019000D01*
M02*
