G75*
G70*
%OFA0B0*%
%FSLAX24Y24*%
%IPPOS*%
%LPD*%
%AMOC8*
5,1,8,0,0,1.08239X$1,22.5*
%
%ADD10C,0.0050*%
%ADD11C,0.0080*%
%ADD12C,0.0060*%
%ADD13C,0.0160*%
%ADD14C,0.0120*%
%ADD15C,0.0100*%
%ADD16C,0.0090*%
%ADD17R,0.0300X0.0660*%
%ADD18C,0.0010*%
%ADD19R,0.0660X0.0300*%
%ADD20R,0.4200X0.0300*%
%ADD21R,0.0750X0.0200*%
%ADD22R,0.0300X0.0200*%
%ADD23C,0.0070*%
D10*
X002180Y000950D02*
X002230Y002100D01*
X002330Y002200D01*
X006030Y002200D01*
X006130Y002100D01*
X006180Y000950D01*
X005850Y001960D02*
X005852Y001980D01*
X005858Y001998D01*
X005867Y002016D01*
X005879Y002031D01*
X005894Y002043D01*
X005912Y002052D01*
X005930Y002058D01*
X005950Y002060D01*
X005970Y002058D01*
X005988Y002052D01*
X006006Y002043D01*
X006021Y002031D01*
X006033Y002016D01*
X006042Y001998D01*
X006048Y001980D01*
X006050Y001960D01*
X006048Y001940D01*
X006042Y001922D01*
X006033Y001904D01*
X006021Y001889D01*
X006006Y001877D01*
X005988Y001868D01*
X005970Y001862D01*
X005950Y001860D01*
X005930Y001862D01*
X005912Y001868D01*
X005894Y001877D01*
X005879Y001889D01*
X005867Y001904D01*
X005858Y001922D01*
X005852Y001940D01*
X005850Y001960D01*
X006026Y008105D02*
X006026Y008375D01*
X006026Y008240D02*
X006207Y008240D01*
X006207Y008375D02*
X006207Y008105D01*
X006321Y008150D02*
X006366Y008105D01*
X006456Y008105D01*
X006501Y008150D01*
X006616Y008240D02*
X006796Y008240D01*
X006910Y008285D02*
X006955Y008240D01*
X007091Y008240D01*
X007091Y008150D02*
X007091Y008330D01*
X007045Y008375D01*
X006955Y008375D01*
X006910Y008330D01*
X006910Y008285D01*
X006910Y008150D02*
X006955Y008105D01*
X007045Y008105D01*
X007091Y008150D01*
X006751Y008105D02*
X006751Y008375D01*
X006616Y008240D01*
X006501Y008330D02*
X006456Y008375D01*
X006366Y008375D01*
X006321Y008330D01*
X006321Y008150D01*
X005912Y008240D02*
X005732Y008240D01*
X005617Y008195D02*
X005617Y008150D01*
X005572Y008105D01*
X005482Y008105D01*
X005437Y008150D01*
X005482Y008240D02*
X005572Y008240D01*
X005617Y008195D01*
X005617Y008330D02*
X005572Y008375D01*
X005482Y008375D01*
X005437Y008330D01*
X005437Y008285D01*
X005482Y008240D01*
X005323Y008105D02*
X005142Y008105D01*
X005142Y008375D01*
X005323Y008375D01*
X005233Y008240D02*
X005142Y008240D01*
X005028Y008240D02*
X004983Y008195D01*
X004848Y008195D01*
X004938Y008195D02*
X005028Y008105D01*
X005028Y008240D02*
X005028Y008330D01*
X004983Y008375D01*
X004848Y008375D01*
X004848Y008105D01*
X004733Y008240D02*
X004553Y008240D01*
X004439Y008105D02*
X004258Y008105D01*
X004258Y008375D01*
X004144Y008285D02*
X004144Y008105D01*
X004144Y008240D02*
X003964Y008240D01*
X003964Y008285D02*
X004054Y008375D01*
X004144Y008285D01*
X003964Y008285D02*
X003964Y008105D01*
X003759Y008105D02*
X003759Y008375D01*
X003669Y008375D02*
X003849Y008375D01*
X003555Y008375D02*
X003375Y008105D01*
X003555Y008105D02*
X003375Y008375D01*
X002104Y009715D02*
X001804Y009715D01*
X001954Y009715D02*
X001954Y010166D01*
X001804Y010016D01*
X001644Y010091D02*
X001569Y010166D01*
X001418Y010166D01*
X001343Y010091D01*
X001343Y010016D01*
X001418Y009941D01*
X001569Y009941D01*
X001644Y009866D01*
X001644Y009790D01*
X001569Y009715D01*
X001418Y009715D01*
X001343Y009790D01*
X002626Y013852D02*
X002581Y013897D01*
X002581Y014077D01*
X002626Y014122D01*
X002716Y014122D01*
X002761Y014077D01*
X002761Y013987D02*
X002671Y013987D01*
X002761Y013987D02*
X002761Y013897D01*
X002716Y013852D01*
X002626Y013852D01*
X002876Y013852D02*
X002876Y014122D01*
X003056Y013852D01*
X003056Y014122D01*
X003170Y014122D02*
X003305Y014122D01*
X003350Y014077D01*
X003350Y013897D01*
X003305Y013852D01*
X003170Y013852D01*
X003170Y014122D01*
X003215Y014852D02*
X003170Y014897D01*
X003215Y014852D02*
X003305Y014852D01*
X003350Y014897D01*
X003350Y014942D01*
X003305Y014987D01*
X003215Y014987D01*
X003170Y015032D01*
X003170Y015077D01*
X003215Y015122D01*
X003305Y015122D01*
X003350Y015077D01*
X003056Y015122D02*
X002876Y015122D01*
X002966Y015122D02*
X002966Y014852D01*
X002761Y014897D02*
X002716Y014852D01*
X002626Y014852D01*
X002581Y014897D01*
X002581Y015077D01*
X002626Y015122D01*
X002716Y015122D01*
X002761Y015077D01*
X002671Y015852D02*
X002761Y015942D01*
X002761Y016122D01*
X002876Y016077D02*
X002876Y015897D01*
X002921Y015852D01*
X003011Y015852D01*
X003056Y015897D01*
X003170Y015897D02*
X003215Y015852D01*
X003305Y015852D01*
X003350Y015897D01*
X003170Y015897D02*
X003170Y016077D01*
X003215Y016122D01*
X003305Y016122D01*
X003350Y016077D01*
X003056Y016077D02*
X003011Y016122D01*
X002921Y016122D01*
X002876Y016077D01*
X002671Y015852D02*
X002581Y015942D01*
X002581Y016122D01*
X002966Y016852D02*
X002966Y017122D01*
X002876Y017122D02*
X003056Y017122D01*
X003170Y017122D02*
X003350Y016852D01*
X003170Y016852D02*
X003350Y017122D01*
X003350Y017852D02*
X003170Y018122D01*
X003056Y018077D02*
X003056Y017987D01*
X003011Y017942D01*
X002876Y017942D01*
X002966Y017942D02*
X003056Y017852D01*
X003170Y017852D02*
X003350Y018122D01*
X003056Y018077D02*
X003011Y018122D01*
X002876Y018122D01*
X002876Y017852D01*
X002966Y018852D02*
X002966Y019122D01*
X002876Y019122D02*
X003056Y019122D01*
X003170Y019122D02*
X003305Y019122D01*
X003350Y019077D01*
X003350Y018987D01*
X003305Y018942D01*
X003170Y018942D01*
X003170Y018852D02*
X003170Y019122D01*
X003260Y018942D02*
X003350Y018852D01*
X002761Y018897D02*
X002761Y019077D01*
X002716Y019122D01*
X002581Y019122D01*
X002581Y018852D01*
X002716Y018852D01*
X002761Y018897D01*
X015226Y017122D02*
X015226Y016852D01*
X015361Y016852D01*
X015406Y016897D01*
X015406Y017077D01*
X015361Y017122D01*
X015226Y017122D01*
X015520Y017077D02*
X015520Y016897D01*
X015700Y017077D01*
X015700Y016897D01*
X015655Y016852D01*
X015565Y016852D01*
X015520Y016897D01*
X015520Y017077D02*
X015565Y017122D01*
X015655Y017122D01*
X015700Y017077D01*
X015610Y016107D02*
X015610Y015837D01*
X015520Y015837D02*
X015700Y015837D01*
X015520Y016017D02*
X015610Y016107D01*
X015406Y016062D02*
X015361Y016107D01*
X015226Y016107D01*
X015226Y015837D01*
X015361Y015837D01*
X015406Y015882D01*
X015406Y016062D01*
X015380Y015123D02*
X015245Y015123D01*
X015245Y014853D01*
X015380Y014853D01*
X015425Y014898D01*
X015425Y015078D01*
X015380Y015123D01*
X015540Y015078D02*
X015585Y015123D01*
X015675Y015123D01*
X015720Y015078D01*
X015720Y015033D01*
X015540Y014853D01*
X015720Y014853D01*
X015655Y014160D02*
X015700Y014115D01*
X015700Y014070D01*
X015655Y014025D01*
X015700Y013980D01*
X015700Y013935D01*
X015655Y013890D01*
X015565Y013890D01*
X015520Y013935D01*
X015406Y013935D02*
X015406Y014115D01*
X015361Y014160D01*
X015226Y014160D01*
X015226Y013890D01*
X015361Y013890D01*
X015406Y013935D01*
X015520Y014115D02*
X015565Y014160D01*
X015655Y014160D01*
X015655Y014025D02*
X015610Y014025D01*
X015686Y013135D02*
X015551Y013000D01*
X015731Y013000D01*
X015686Y012865D02*
X015686Y013135D01*
X015436Y013090D02*
X015436Y012910D01*
X015391Y012865D01*
X015256Y012865D01*
X015256Y013135D01*
X015391Y013135D01*
X015436Y013090D01*
X015391Y012111D02*
X015256Y012111D01*
X015256Y011841D01*
X015391Y011841D01*
X015436Y011886D01*
X015436Y012066D01*
X015391Y012111D01*
X015551Y012111D02*
X015551Y011976D01*
X015641Y012021D01*
X015686Y012021D01*
X015731Y011976D01*
X015731Y011886D01*
X015686Y011841D01*
X015596Y011841D01*
X015551Y011886D01*
X015551Y012111D02*
X015731Y012111D01*
X015731Y011127D02*
X015641Y011082D01*
X015551Y010992D01*
X015686Y010992D01*
X015731Y010947D01*
X015731Y010902D01*
X015686Y010857D01*
X015596Y010857D01*
X015551Y010902D01*
X015551Y010992D01*
X015436Y010902D02*
X015436Y011082D01*
X015391Y011127D01*
X015256Y011127D01*
X015256Y010857D01*
X015391Y010857D01*
X015436Y010902D01*
X015391Y010123D02*
X015256Y010123D01*
X015256Y009853D01*
X015391Y009853D01*
X015436Y009898D01*
X015436Y010078D01*
X015391Y010123D01*
X015551Y010123D02*
X015731Y010123D01*
X015731Y010078D01*
X015551Y009898D01*
X015551Y009853D01*
X015616Y009129D02*
X015706Y009129D01*
X015751Y009084D01*
X015751Y009039D01*
X015706Y008994D01*
X015616Y008994D01*
X015571Y009039D01*
X015571Y009084D01*
X015616Y009129D01*
X015616Y008994D02*
X015571Y008949D01*
X015571Y008904D01*
X015616Y008858D01*
X015706Y008858D01*
X015751Y008904D01*
X015751Y008949D01*
X015706Y008994D01*
X015456Y008904D02*
X015456Y009084D01*
X015411Y009129D01*
X015276Y009129D01*
X015276Y008858D01*
X015411Y008858D01*
X015456Y008904D01*
X015401Y008145D02*
X015266Y008145D01*
X015266Y007875D01*
X015401Y007875D01*
X015446Y007920D01*
X015446Y008100D01*
X015401Y008145D01*
X015560Y008100D02*
X015560Y008055D01*
X015605Y008010D01*
X015741Y008010D01*
X015741Y007920D02*
X015741Y008100D01*
X015695Y008145D01*
X015605Y008145D01*
X015560Y008100D01*
X015560Y007920D02*
X015605Y007875D01*
X015695Y007875D01*
X015741Y007920D01*
X018656Y009885D02*
X018656Y010065D01*
X018746Y010155D01*
X018836Y010065D01*
X018836Y009885D01*
X018950Y009930D02*
X018995Y009885D01*
X019085Y009885D01*
X019130Y009930D01*
X019130Y010020D01*
X019085Y010065D01*
X019040Y010065D01*
X018950Y010020D01*
X018950Y010155D01*
X019130Y010155D01*
X018836Y010020D02*
X018656Y010020D01*
X018696Y010861D02*
X018696Y011041D01*
X018786Y011131D01*
X018876Y011041D01*
X018876Y010861D01*
X018876Y010996D02*
X018696Y010996D01*
X018990Y010996D02*
X019170Y010996D01*
X019125Y010861D02*
X019125Y011131D01*
X018990Y010996D01*
X019015Y011897D02*
X018970Y011942D01*
X019015Y011897D02*
X019105Y011897D01*
X019150Y011942D01*
X019150Y011987D01*
X019105Y012032D01*
X019060Y012032D01*
X019105Y012032D02*
X019150Y012077D01*
X019150Y012122D01*
X019105Y012167D01*
X019015Y012167D01*
X018970Y012122D01*
X018856Y012077D02*
X018856Y011897D01*
X018856Y012032D02*
X018676Y012032D01*
X018676Y012077D02*
X018766Y012167D01*
X018856Y012077D01*
X018676Y012077D02*
X018676Y011897D01*
X018685Y012885D02*
X018685Y013065D01*
X018775Y013155D01*
X018865Y013065D01*
X018865Y012885D01*
X018980Y012885D02*
X019160Y013065D01*
X019160Y013110D01*
X019115Y013155D01*
X019025Y013155D01*
X018980Y013110D01*
X018865Y013020D02*
X018685Y013020D01*
X018980Y012885D02*
X019160Y012885D01*
X019150Y013908D02*
X018970Y013908D01*
X019060Y013908D02*
X019060Y014179D01*
X018970Y014089D01*
X018855Y014089D02*
X018855Y013908D01*
X018855Y014044D02*
X018675Y014044D01*
X018675Y014089D02*
X018675Y013908D01*
X018675Y014089D02*
X018765Y014179D01*
X018855Y014089D01*
X018853Y014858D02*
X018853Y015039D01*
X018763Y015129D01*
X018673Y015039D01*
X018673Y014858D01*
X018673Y014994D02*
X018853Y014994D01*
X018968Y015084D02*
X019013Y015129D01*
X019103Y015129D01*
X019148Y015084D01*
X018968Y014904D01*
X019013Y014858D01*
X019103Y014858D01*
X019148Y014904D01*
X019148Y015084D01*
X018968Y015084D02*
X018968Y014904D01*
D11*
X017840Y017740D02*
X017560Y018020D01*
X017490Y018020D01*
X017420Y017950D01*
X017420Y017810D01*
X017490Y017740D01*
X017840Y017740D02*
X017840Y018020D01*
X017821Y018290D02*
X017541Y018290D01*
X017821Y018570D01*
X017821Y018640D01*
X017751Y018710D01*
X017611Y018710D01*
X017541Y018640D01*
X017361Y018640D02*
X017361Y018500D01*
X017291Y018430D01*
X017080Y018430D01*
X017080Y018290D02*
X017080Y018710D01*
X017291Y018710D01*
X017361Y018640D01*
X016900Y018710D02*
X016760Y018710D01*
X016830Y018710D02*
X016830Y018360D01*
X016760Y018290D01*
X016690Y018290D01*
X016620Y018360D01*
X016840Y018020D02*
X016840Y017740D01*
X016840Y017880D02*
X016420Y017880D01*
X016560Y017740D01*
X015480Y018000D02*
X014980Y018000D01*
X013450Y018500D02*
X013452Y018571D01*
X013458Y018642D01*
X013468Y018713D01*
X013482Y018782D01*
X013499Y018851D01*
X013521Y018919D01*
X013546Y018986D01*
X013575Y019051D01*
X013607Y019114D01*
X013643Y019176D01*
X013682Y019235D01*
X013725Y019292D01*
X013770Y019347D01*
X013819Y019399D01*
X013870Y019448D01*
X013924Y019494D01*
X013981Y019538D01*
X014039Y019578D01*
X014100Y019614D01*
X014163Y019648D01*
X014228Y019677D01*
X014294Y019703D01*
X014362Y019726D01*
X014430Y019744D01*
X014500Y019759D01*
X014570Y019770D01*
X014641Y019777D01*
X014712Y019780D01*
X014783Y019779D01*
X014854Y019774D01*
X014925Y019765D01*
X014995Y019752D01*
X015064Y019736D01*
X015132Y019715D01*
X015199Y019691D01*
X015265Y019663D01*
X015328Y019631D01*
X015390Y019596D01*
X015450Y019558D01*
X015508Y019516D01*
X015563Y019472D01*
X015616Y019424D01*
X015666Y019373D01*
X015713Y019320D01*
X015757Y019264D01*
X015798Y019206D01*
X015836Y019145D01*
X015870Y019083D01*
X015900Y019018D01*
X015927Y018953D01*
X015951Y018885D01*
X015970Y018817D01*
X015986Y018748D01*
X015998Y018677D01*
X016006Y018607D01*
X016010Y018536D01*
X016010Y018464D01*
X016006Y018393D01*
X015998Y018323D01*
X015986Y018252D01*
X015970Y018183D01*
X015951Y018115D01*
X015927Y018047D01*
X015900Y017982D01*
X015870Y017917D01*
X015836Y017855D01*
X015798Y017794D01*
X015757Y017736D01*
X015713Y017680D01*
X015666Y017627D01*
X015616Y017576D01*
X015563Y017528D01*
X015508Y017484D01*
X015450Y017442D01*
X015390Y017404D01*
X015328Y017369D01*
X015265Y017337D01*
X015199Y017309D01*
X015132Y017285D01*
X015064Y017264D01*
X014995Y017248D01*
X014925Y017235D01*
X014854Y017226D01*
X014783Y017221D01*
X014712Y017220D01*
X014641Y017223D01*
X014570Y017230D01*
X014500Y017241D01*
X014430Y017256D01*
X014362Y017274D01*
X014294Y017297D01*
X014228Y017323D01*
X014163Y017352D01*
X014100Y017386D01*
X014039Y017422D01*
X013981Y017462D01*
X013924Y017506D01*
X013870Y017552D01*
X013819Y017601D01*
X013770Y017653D01*
X013725Y017708D01*
X013682Y017765D01*
X013643Y017824D01*
X013607Y017886D01*
X013575Y017949D01*
X013546Y018014D01*
X013521Y018081D01*
X013499Y018149D01*
X013482Y018218D01*
X013468Y018287D01*
X013458Y018358D01*
X013452Y018429D01*
X013450Y018500D01*
X014359Y019200D02*
X014359Y019480D01*
X014429Y019550D01*
X014569Y019550D01*
X014639Y019480D01*
X014820Y019480D02*
X014820Y019410D01*
X014890Y019340D01*
X015100Y019340D01*
X015100Y019200D02*
X015100Y019480D01*
X015030Y019550D01*
X014890Y019550D01*
X014820Y019480D01*
X014820Y019200D02*
X014890Y019130D01*
X015030Y019130D01*
X015100Y019200D01*
X014639Y019200D02*
X014569Y019130D01*
X014429Y019130D01*
X014359Y019200D01*
X011380Y016500D02*
X011380Y016400D01*
X011380Y016500D02*
X010680Y016500D01*
X010678Y016456D01*
X010672Y016413D01*
X010663Y016371D01*
X010650Y016329D01*
X010633Y016289D01*
X010613Y016250D01*
X010590Y016213D01*
X010563Y016179D01*
X010534Y016146D01*
X010501Y016117D01*
X010467Y016090D01*
X010430Y016067D01*
X010391Y016047D01*
X010351Y016030D01*
X010309Y016017D01*
X010267Y016008D01*
X010224Y016002D01*
X010180Y016000D01*
X010136Y016002D01*
X010093Y016008D01*
X010051Y016017D01*
X010009Y016030D01*
X009969Y016047D01*
X009930Y016067D01*
X009893Y016090D01*
X009859Y016117D01*
X009826Y016146D01*
X009797Y016179D01*
X009770Y016213D01*
X009747Y016250D01*
X009727Y016289D01*
X009710Y016329D01*
X009697Y016371D01*
X009688Y016413D01*
X009682Y016456D01*
X009680Y016500D01*
X008980Y016500D01*
X008980Y016400D01*
X007340Y016710D02*
X007270Y016640D01*
X006990Y016640D01*
X006920Y016710D01*
X006920Y016850D01*
X006990Y016920D01*
X006990Y017100D02*
X007060Y017100D01*
X007130Y017170D01*
X007130Y017311D01*
X007200Y017381D01*
X007270Y017381D01*
X007340Y017311D01*
X007340Y017170D01*
X007270Y017100D01*
X007200Y017100D01*
X007130Y017170D01*
X007130Y017311D02*
X007060Y017381D01*
X006990Y017381D01*
X006920Y017311D01*
X006920Y017170D01*
X006990Y017100D01*
X007270Y016920D02*
X007340Y016850D01*
X007340Y016710D01*
X005313Y016743D02*
X005313Y016883D01*
X005313Y016813D02*
X004893Y016813D01*
X004893Y016743D02*
X004893Y016883D01*
X004680Y016750D02*
X004430Y016500D01*
X004680Y016250D01*
X004680Y015750D01*
X004430Y015500D01*
X004680Y015250D01*
X004680Y014750D01*
X004430Y014500D01*
X004680Y014250D01*
X004680Y013750D01*
X004430Y013500D01*
X003930Y013500D01*
X003680Y013750D01*
X003680Y014250D01*
X003930Y014500D01*
X003680Y014750D01*
X003680Y015250D01*
X003930Y015500D01*
X003680Y015750D01*
X003680Y016250D01*
X003930Y016500D01*
X003680Y016750D01*
X003680Y017250D01*
X003930Y017500D01*
X003680Y017750D01*
X003680Y018250D01*
X003930Y018500D01*
X003680Y018750D01*
X003680Y019250D01*
X003930Y019500D01*
X004430Y019500D01*
X004680Y019250D01*
X004680Y018750D01*
X004430Y018500D01*
X004680Y018250D01*
X004680Y017750D01*
X004430Y017500D01*
X004680Y017250D01*
X004680Y016750D01*
X004893Y016493D02*
X004963Y016563D01*
X005243Y016563D01*
X005313Y016493D01*
X005313Y016283D01*
X004893Y016283D01*
X004893Y016493D01*
X004893Y016102D02*
X004893Y015822D01*
X004893Y015962D02*
X005313Y015962D01*
X005103Y015502D02*
X005103Y015362D01*
X004893Y015362D02*
X004893Y015642D01*
X004893Y015362D02*
X005313Y015362D01*
X006080Y008800D02*
X005721Y008768D01*
X005360Y008752D01*
X005000Y008752D01*
X004639Y008768D01*
X004280Y008800D01*
X004228Y008810D01*
X004177Y008824D01*
X004127Y008842D01*
X004079Y008863D01*
X004032Y008888D01*
X003988Y008916D01*
X003945Y008948D01*
X003905Y008982D01*
X003868Y009020D01*
X003834Y009060D01*
X003802Y009102D01*
X003774Y009147D01*
X003750Y009194D01*
X003729Y009242D01*
X003711Y009292D01*
X003698Y009343D01*
X003688Y009395D01*
X003682Y009447D01*
X003680Y009500D01*
X003682Y009553D01*
X003688Y009605D01*
X003698Y009657D01*
X003711Y009708D01*
X003729Y009758D01*
X003750Y009806D01*
X003774Y009853D01*
X003802Y009898D01*
X003834Y009940D01*
X003868Y009980D01*
X003905Y010018D01*
X003945Y010052D01*
X003988Y010084D01*
X004032Y010112D01*
X004079Y010137D01*
X004127Y010158D01*
X004177Y010176D01*
X004228Y010190D01*
X004280Y010200D01*
X002880Y010800D02*
X002880Y009100D01*
X002080Y008750D02*
X001275Y008750D01*
X000480Y009100D02*
X000480Y010800D01*
X001287Y011150D02*
X002080Y011150D01*
X000980Y009950D02*
X000982Y010002D01*
X000988Y010054D01*
X000998Y010106D01*
X001011Y010156D01*
X001028Y010206D01*
X001049Y010254D01*
X001074Y010300D01*
X001102Y010344D01*
X001133Y010386D01*
X001167Y010426D01*
X001204Y010463D01*
X001244Y010497D01*
X001286Y010528D01*
X001330Y010556D01*
X001376Y010581D01*
X001424Y010602D01*
X001474Y010619D01*
X001524Y010632D01*
X001576Y010642D01*
X001628Y010648D01*
X001680Y010650D01*
X001732Y010648D01*
X001784Y010642D01*
X001836Y010632D01*
X001886Y010619D01*
X001936Y010602D01*
X001984Y010581D01*
X002030Y010556D01*
X002074Y010528D01*
X002116Y010497D01*
X002156Y010463D01*
X002193Y010426D01*
X002227Y010386D01*
X002258Y010344D01*
X002286Y010300D01*
X002311Y010254D01*
X002332Y010206D01*
X002349Y010156D01*
X002362Y010106D01*
X002372Y010054D01*
X002378Y010002D01*
X002380Y009950D01*
X002378Y009898D01*
X002372Y009846D01*
X002362Y009794D01*
X002349Y009744D01*
X002332Y009694D01*
X002311Y009646D01*
X002286Y009600D01*
X002258Y009556D01*
X002227Y009514D01*
X002193Y009474D01*
X002156Y009437D01*
X002116Y009403D01*
X002074Y009372D01*
X002030Y009344D01*
X001984Y009319D01*
X001936Y009298D01*
X001886Y009281D01*
X001836Y009268D01*
X001784Y009258D01*
X001732Y009252D01*
X001680Y009250D01*
X001628Y009252D01*
X001576Y009258D01*
X001524Y009268D01*
X001474Y009281D01*
X001424Y009298D01*
X001376Y009319D01*
X001330Y009344D01*
X001286Y009372D01*
X001244Y009403D01*
X001204Y009437D01*
X001167Y009474D01*
X001133Y009514D01*
X001102Y009556D01*
X001074Y009600D01*
X001049Y009646D01*
X001028Y009694D01*
X001011Y009744D01*
X000998Y009794D01*
X000988Y009846D01*
X000982Y009898D01*
X000980Y009950D01*
X002070Y008110D02*
X002280Y008110D01*
X002350Y008040D01*
X002350Y007900D01*
X002280Y007830D01*
X002070Y007830D01*
X002070Y007690D02*
X002070Y008110D01*
X002210Y007830D02*
X002350Y007690D01*
X002530Y007760D02*
X002600Y007690D01*
X002741Y007690D01*
X002811Y007760D01*
X002811Y007830D01*
X002741Y007900D01*
X002671Y007900D01*
X002741Y007900D02*
X002811Y007970D01*
X002811Y008040D01*
X002741Y008110D01*
X002600Y008110D01*
X002530Y008040D01*
X002609Y006255D02*
X002539Y006185D01*
X002539Y005904D01*
X002609Y005834D01*
X002749Y005834D01*
X002820Y005904D01*
X003000Y005904D02*
X003070Y005834D01*
X003210Y005834D01*
X003280Y005904D01*
X003280Y006045D01*
X003210Y006115D01*
X003140Y006115D01*
X003000Y006045D01*
X003000Y006255D01*
X003280Y006255D01*
X002820Y006185D02*
X002749Y006255D01*
X002609Y006255D01*
X001650Y005250D02*
X001652Y005321D01*
X001658Y005392D01*
X001668Y005463D01*
X001682Y005532D01*
X001699Y005601D01*
X001721Y005669D01*
X001746Y005736D01*
X001775Y005801D01*
X001807Y005864D01*
X001843Y005926D01*
X001882Y005985D01*
X001925Y006042D01*
X001970Y006097D01*
X002019Y006149D01*
X002070Y006198D01*
X002124Y006244D01*
X002181Y006288D01*
X002239Y006328D01*
X002300Y006364D01*
X002363Y006398D01*
X002428Y006427D01*
X002494Y006453D01*
X002562Y006476D01*
X002630Y006494D01*
X002700Y006509D01*
X002770Y006520D01*
X002841Y006527D01*
X002912Y006530D01*
X002983Y006529D01*
X003054Y006524D01*
X003125Y006515D01*
X003195Y006502D01*
X003264Y006486D01*
X003332Y006465D01*
X003399Y006441D01*
X003465Y006413D01*
X003528Y006381D01*
X003590Y006346D01*
X003650Y006308D01*
X003708Y006266D01*
X003763Y006222D01*
X003816Y006174D01*
X003866Y006123D01*
X003913Y006070D01*
X003957Y006014D01*
X003998Y005956D01*
X004036Y005895D01*
X004070Y005833D01*
X004100Y005768D01*
X004127Y005703D01*
X004151Y005635D01*
X004170Y005567D01*
X004186Y005498D01*
X004198Y005427D01*
X004206Y005357D01*
X004210Y005286D01*
X004210Y005214D01*
X004206Y005143D01*
X004198Y005073D01*
X004186Y005002D01*
X004170Y004933D01*
X004151Y004865D01*
X004127Y004797D01*
X004100Y004732D01*
X004070Y004667D01*
X004036Y004605D01*
X003998Y004544D01*
X003957Y004486D01*
X003913Y004430D01*
X003866Y004377D01*
X003816Y004326D01*
X003763Y004278D01*
X003708Y004234D01*
X003650Y004192D01*
X003590Y004154D01*
X003528Y004119D01*
X003465Y004087D01*
X003399Y004059D01*
X003332Y004035D01*
X003264Y004014D01*
X003195Y003998D01*
X003125Y003985D01*
X003054Y003976D01*
X002983Y003971D01*
X002912Y003970D01*
X002841Y003973D01*
X002770Y003980D01*
X002700Y003991D01*
X002630Y004006D01*
X002562Y004024D01*
X002494Y004047D01*
X002428Y004073D01*
X002363Y004102D01*
X002300Y004136D01*
X002239Y004172D01*
X002181Y004212D01*
X002124Y004256D01*
X002070Y004302D01*
X002019Y004351D01*
X001970Y004403D01*
X001925Y004458D01*
X001882Y004515D01*
X001843Y004574D01*
X001807Y004636D01*
X001775Y004699D01*
X001746Y004764D01*
X001721Y004831D01*
X001699Y004899D01*
X001682Y004968D01*
X001668Y005037D01*
X001658Y005108D01*
X001652Y005179D01*
X001650Y005250D01*
X001006Y004686D02*
X001256Y004436D01*
X001256Y003936D01*
X001006Y003686D01*
X001256Y003436D01*
X001256Y002936D01*
X001006Y002686D01*
X000506Y002686D01*
X000256Y002936D01*
X000256Y003436D01*
X000506Y003686D01*
X000256Y003936D01*
X000256Y004436D01*
X000506Y004686D01*
X001006Y004686D01*
X000908Y004902D02*
X000978Y004972D01*
X000978Y005113D01*
X000908Y005183D01*
X000767Y005183D01*
X000767Y005042D01*
X000627Y004902D02*
X000908Y004902D01*
X000627Y004902D02*
X000557Y004972D01*
X000557Y005113D01*
X000627Y005183D01*
X000557Y005363D02*
X000978Y005643D01*
X000557Y005643D01*
X000557Y005823D02*
X000557Y006033D01*
X000627Y006103D01*
X000908Y006103D01*
X000978Y006033D01*
X000978Y005823D01*
X000557Y005823D01*
X000557Y005363D02*
X000978Y005363D01*
X001629Y003307D02*
X001629Y003026D01*
X001489Y003166D02*
X001769Y003166D01*
X001950Y003096D02*
X001950Y003377D01*
X001950Y003096D02*
X002090Y002956D01*
X002230Y003096D01*
X002230Y003377D01*
X002410Y003377D02*
X002550Y003377D01*
X002480Y003377D02*
X002480Y002956D01*
X002410Y002956D02*
X002550Y002956D01*
X002717Y002956D02*
X002717Y003377D01*
X002997Y002956D01*
X002997Y003377D01*
X003180Y004750D02*
X003680Y004750D01*
X005295Y004649D02*
X005365Y004579D01*
X005505Y004579D01*
X005575Y004649D01*
X005755Y004649D02*
X005755Y004789D01*
X005965Y004789D01*
X006035Y004719D01*
X006035Y004649D01*
X005965Y004579D01*
X005825Y004579D01*
X005755Y004649D01*
X005755Y004789D02*
X005895Y004929D01*
X006035Y004999D01*
X005575Y004929D02*
X005505Y004999D01*
X005365Y004999D01*
X005295Y004929D01*
X005295Y004649D01*
X004400Y004000D02*
X004402Y004071D01*
X004408Y004142D01*
X004418Y004213D01*
X004432Y004282D01*
X004449Y004351D01*
X004471Y004419D01*
X004496Y004486D01*
X004525Y004551D01*
X004557Y004614D01*
X004593Y004676D01*
X004632Y004735D01*
X004675Y004792D01*
X004720Y004847D01*
X004769Y004899D01*
X004820Y004948D01*
X004874Y004994D01*
X004931Y005038D01*
X004989Y005078D01*
X005050Y005114D01*
X005113Y005148D01*
X005178Y005177D01*
X005244Y005203D01*
X005312Y005226D01*
X005380Y005244D01*
X005450Y005259D01*
X005520Y005270D01*
X005591Y005277D01*
X005662Y005280D01*
X005733Y005279D01*
X005804Y005274D01*
X005875Y005265D01*
X005945Y005252D01*
X006014Y005236D01*
X006082Y005215D01*
X006149Y005191D01*
X006215Y005163D01*
X006278Y005131D01*
X006340Y005096D01*
X006400Y005058D01*
X006458Y005016D01*
X006513Y004972D01*
X006566Y004924D01*
X006616Y004873D01*
X006663Y004820D01*
X006707Y004764D01*
X006748Y004706D01*
X006786Y004645D01*
X006820Y004583D01*
X006850Y004518D01*
X006877Y004453D01*
X006901Y004385D01*
X006920Y004317D01*
X006936Y004248D01*
X006948Y004177D01*
X006956Y004107D01*
X006960Y004036D01*
X006960Y003964D01*
X006956Y003893D01*
X006948Y003823D01*
X006936Y003752D01*
X006920Y003683D01*
X006901Y003615D01*
X006877Y003547D01*
X006850Y003482D01*
X006820Y003417D01*
X006786Y003355D01*
X006748Y003294D01*
X006707Y003236D01*
X006663Y003180D01*
X006616Y003127D01*
X006566Y003076D01*
X006513Y003028D01*
X006458Y002984D01*
X006400Y002942D01*
X006340Y002904D01*
X006278Y002869D01*
X006215Y002837D01*
X006149Y002809D01*
X006082Y002785D01*
X006014Y002764D01*
X005945Y002748D01*
X005875Y002735D01*
X005804Y002726D01*
X005733Y002721D01*
X005662Y002720D01*
X005591Y002723D01*
X005520Y002730D01*
X005450Y002741D01*
X005380Y002756D01*
X005312Y002774D01*
X005244Y002797D01*
X005178Y002823D01*
X005113Y002852D01*
X005050Y002886D01*
X004989Y002922D01*
X004931Y002962D01*
X004874Y003006D01*
X004820Y003052D01*
X004769Y003101D01*
X004720Y003153D01*
X004675Y003208D01*
X004632Y003265D01*
X004593Y003324D01*
X004557Y003386D01*
X004525Y003449D01*
X004496Y003514D01*
X004471Y003581D01*
X004449Y003649D01*
X004432Y003718D01*
X004418Y003787D01*
X004408Y003858D01*
X004402Y003929D01*
X004400Y004000D01*
X005930Y003500D02*
X006430Y003500D01*
X006423Y002553D02*
X006283Y002553D01*
X006353Y002553D02*
X006353Y002132D01*
X006283Y002132D02*
X006423Y002132D01*
X006590Y002202D02*
X006660Y002132D01*
X006800Y002132D01*
X006870Y002202D01*
X007051Y002132D02*
X007331Y002412D01*
X007331Y002483D01*
X007261Y002553D01*
X007121Y002553D01*
X007051Y002483D01*
X006870Y002483D02*
X006800Y002553D01*
X006660Y002553D01*
X006590Y002483D01*
X006590Y002202D01*
X007051Y002132D02*
X007331Y002132D01*
X008980Y002500D02*
X008980Y002600D01*
X008980Y002500D02*
X011380Y002500D01*
X011380Y002600D01*
X012670Y003540D02*
X012670Y003750D01*
X012740Y003820D01*
X012880Y003820D01*
X012950Y003750D01*
X012950Y003540D01*
X013090Y003540D02*
X012670Y003540D01*
X012950Y003680D02*
X013090Y003820D01*
X013090Y004000D02*
X013090Y004281D01*
X013090Y004141D02*
X012670Y004141D01*
X012810Y004000D01*
X015408Y004616D02*
X015408Y002884D01*
X015999Y002884D01*
X015999Y004616D01*
X015408Y004616D01*
X015408Y006726D01*
X018912Y006726D01*
X018952Y006726D02*
X018952Y000774D01*
X015408Y000774D01*
X015408Y002884D01*
X015841Y002884D02*
X015841Y001207D01*
X018519Y001207D01*
X018519Y006293D01*
X015841Y006293D01*
X015841Y004616D01*
X016157Y004500D02*
X016157Y005000D01*
X019180Y004628D02*
X019180Y004418D01*
X019600Y004418D01*
X019460Y004418D02*
X019460Y004628D01*
X019390Y004698D01*
X019250Y004698D01*
X019180Y004628D01*
X019250Y004238D02*
X019180Y004168D01*
X019180Y004027D01*
X019250Y003957D01*
X019320Y003957D01*
X019390Y004027D01*
X019390Y004168D01*
X019460Y004238D01*
X019530Y004238D01*
X019600Y004168D01*
X019600Y004027D01*
X019530Y003957D01*
X019530Y003777D02*
X019600Y003707D01*
X019600Y003567D01*
X019530Y003497D01*
X019250Y003497D01*
X019180Y003567D01*
X019180Y003707D01*
X019250Y003777D01*
X019180Y003330D02*
X019180Y003190D01*
X019180Y003260D02*
X019600Y003260D01*
X019600Y003190D02*
X019600Y003330D01*
X013100Y008470D02*
X012680Y008470D01*
X012680Y008680D01*
X012750Y008750D01*
X012890Y008750D01*
X012960Y008680D01*
X012960Y008470D01*
X012960Y008610D02*
X013100Y008750D01*
X013100Y008930D02*
X012820Y009211D01*
X012750Y009211D01*
X012680Y009141D01*
X012680Y009000D01*
X012750Y008930D01*
X013100Y008930D02*
X013100Y009211D01*
X013090Y010819D02*
X013020Y010889D01*
X013020Y011029D01*
X013090Y011099D01*
X013090Y011280D02*
X013020Y011350D01*
X013020Y011490D01*
X013090Y011560D01*
X013160Y011560D01*
X013230Y011490D01*
X013300Y011560D01*
X013370Y011560D01*
X013440Y011490D01*
X013440Y011350D01*
X013370Y011280D01*
X013370Y011099D02*
X013440Y011029D01*
X013440Y010889D01*
X013370Y010819D01*
X013090Y010819D01*
X013230Y011420D02*
X013230Y011490D01*
X013090Y014190D02*
X013370Y014190D01*
X013440Y014260D01*
X013440Y014400D01*
X013370Y014470D01*
X013230Y014650D02*
X013230Y014931D01*
X013440Y014861D02*
X013020Y014861D01*
X013230Y014650D01*
X013090Y014470D02*
X013020Y014400D01*
X013020Y014260D01*
X013090Y014190D01*
X007340Y013600D02*
X007270Y013600D01*
X006990Y013881D01*
X006920Y013881D01*
X006920Y013600D01*
X006990Y013420D02*
X006920Y013350D01*
X006920Y013210D01*
X006990Y013140D01*
X007270Y013140D01*
X007340Y013210D01*
X007340Y013350D01*
X007270Y013420D01*
X004771Y013230D02*
X004771Y013160D01*
X004701Y013090D01*
X004771Y013020D01*
X004771Y012950D01*
X004701Y012880D01*
X004561Y012880D01*
X004491Y012950D01*
X004631Y013090D02*
X004701Y013090D01*
X004771Y013230D02*
X004701Y013300D01*
X004561Y013300D01*
X004491Y013230D01*
X004311Y013230D02*
X004241Y013300D01*
X004030Y013300D01*
X004030Y012880D01*
X004030Y013020D02*
X004241Y013020D01*
X004311Y013090D01*
X004311Y013230D01*
X003850Y013300D02*
X003710Y013300D01*
X003780Y013300D02*
X003780Y012950D01*
X003710Y012880D01*
X003640Y012880D01*
X003570Y012950D01*
X000940Y012832D02*
X000620Y012832D01*
X000620Y013072D01*
X000700Y013152D01*
X000940Y013152D01*
X000940Y013347D02*
X000940Y013587D01*
X000860Y013668D01*
X000540Y013668D01*
X000460Y013587D01*
X000460Y013347D01*
X000940Y013347D01*
X000860Y013863D02*
X000460Y013863D01*
X000460Y014183D02*
X000860Y014183D01*
X000940Y014103D01*
X000940Y013943D01*
X000860Y013863D01*
X000940Y014379D02*
X000940Y014539D01*
X000940Y014459D02*
X000460Y014459D01*
X000460Y014379D02*
X000460Y014539D01*
X000460Y014722D02*
X000940Y015043D01*
X000460Y015043D01*
X000540Y015238D02*
X000860Y015238D01*
X000940Y015318D01*
X000940Y015478D01*
X000860Y015558D01*
X000540Y015558D01*
X000460Y015478D01*
X000460Y015318D01*
X000540Y015238D01*
X000460Y014722D02*
X000940Y014722D01*
X000620Y016269D02*
X000940Y016429D01*
X000620Y016589D01*
X000620Y016785D02*
X000460Y016945D01*
X000940Y016945D01*
X000940Y016785D02*
X000940Y017105D01*
X000940Y017300D02*
X000940Y017381D01*
X000860Y017381D01*
X000860Y017300D01*
X000940Y017300D01*
X000860Y017558D02*
X000700Y017558D01*
X000700Y017799D01*
X000780Y017879D01*
X000860Y017879D01*
X000940Y017799D01*
X000940Y017638D01*
X000860Y017558D01*
X000700Y017558D02*
X000540Y017718D01*
X000460Y017879D01*
X000940Y012648D02*
X000940Y012488D01*
X000940Y012568D02*
X000620Y012568D01*
X000620Y012488D01*
X000460Y012568D02*
X000380Y012568D01*
X000700Y012292D02*
X000620Y012212D01*
X000700Y012132D01*
X000940Y012132D01*
X000940Y011972D02*
X000620Y011972D01*
X000620Y012052D01*
X000700Y012132D01*
X000700Y012292D02*
X000940Y012292D01*
X006080Y010200D02*
X006132Y010190D01*
X006183Y010176D01*
X006233Y010158D01*
X006281Y010137D01*
X006328Y010112D01*
X006372Y010084D01*
X006415Y010052D01*
X006455Y010018D01*
X006492Y009980D01*
X006526Y009940D01*
X006558Y009898D01*
X006586Y009853D01*
X006610Y009806D01*
X006631Y009758D01*
X006649Y009708D01*
X006662Y009657D01*
X006672Y009605D01*
X006678Y009553D01*
X006680Y009500D01*
X006678Y009447D01*
X006672Y009395D01*
X006662Y009343D01*
X006649Y009292D01*
X006631Y009242D01*
X006610Y009194D01*
X006586Y009147D01*
X006558Y009102D01*
X006526Y009060D01*
X006492Y009020D01*
X006455Y008982D01*
X006415Y008948D01*
X006372Y008916D01*
X006328Y008888D01*
X006281Y008863D01*
X006233Y008842D01*
X006183Y008824D01*
X006132Y008810D01*
X006080Y008800D01*
X006080Y010200D02*
X005721Y010232D01*
X005360Y010248D01*
X005000Y010248D01*
X004639Y010232D01*
X004280Y010200D01*
D12*
X004030Y010200D02*
X006330Y010200D01*
X006530Y010900D02*
X003830Y010900D01*
X003813Y010902D01*
X003796Y010906D01*
X003780Y010913D01*
X003766Y010923D01*
X003753Y010936D01*
X003743Y010950D01*
X003736Y010966D01*
X003732Y010983D01*
X003730Y011000D01*
X003730Y012000D01*
X003732Y012017D01*
X003736Y012034D01*
X003743Y012050D01*
X003753Y012064D01*
X003766Y012077D01*
X003780Y012087D01*
X003796Y012094D01*
X003813Y012098D01*
X003830Y012100D01*
X006530Y012100D01*
X006547Y012098D01*
X006564Y012094D01*
X006580Y012087D01*
X006594Y012077D01*
X006607Y012064D01*
X006617Y012050D01*
X006624Y012034D01*
X006628Y012017D01*
X006630Y012000D01*
X006630Y011000D01*
X006628Y010983D01*
X006624Y010966D01*
X006617Y010950D01*
X006607Y010936D01*
X006594Y010923D01*
X006580Y010913D01*
X006564Y010906D01*
X006547Y010902D01*
X006530Y010900D01*
X005780Y011500D02*
X005300Y011500D01*
X005050Y011500D02*
X004580Y011500D01*
X005680Y013050D02*
X006680Y013050D01*
X006697Y013052D01*
X006714Y013056D01*
X006730Y013063D01*
X006744Y013073D01*
X006757Y013086D01*
X006767Y013100D01*
X006774Y013116D01*
X006778Y013133D01*
X006780Y013150D01*
X006780Y015850D01*
X006778Y015867D01*
X006774Y015884D01*
X006767Y015900D01*
X006757Y015914D01*
X006744Y015927D01*
X006730Y015937D01*
X006714Y015944D01*
X006697Y015948D01*
X006680Y015950D01*
X005680Y015950D01*
X005663Y015948D01*
X005646Y015944D01*
X005630Y015937D01*
X005616Y015927D01*
X005603Y015914D01*
X005593Y015900D01*
X005586Y015884D01*
X005582Y015867D01*
X005580Y015850D01*
X005580Y013150D01*
X005582Y013133D01*
X005586Y013116D01*
X005593Y013100D01*
X005603Y013086D01*
X005616Y013073D01*
X005630Y013063D01*
X005646Y013056D01*
X005663Y013052D01*
X005680Y013050D01*
X006180Y013900D02*
X006180Y014380D01*
X006180Y014630D02*
X006180Y015100D01*
X005680Y016550D02*
X006680Y016550D01*
X006697Y016552D01*
X006714Y016556D01*
X006730Y016563D01*
X006744Y016573D01*
X006757Y016586D01*
X006767Y016600D01*
X006774Y016616D01*
X006778Y016633D01*
X006780Y016650D01*
X006780Y019350D01*
X006778Y019367D01*
X006774Y019384D01*
X006767Y019400D01*
X006757Y019414D01*
X006744Y019427D01*
X006730Y019437D01*
X006714Y019444D01*
X006697Y019448D01*
X006680Y019450D01*
X005680Y019450D01*
X005663Y019448D01*
X005646Y019444D01*
X005630Y019437D01*
X005616Y019427D01*
X005603Y019414D01*
X005593Y019400D01*
X005586Y019384D01*
X005582Y019367D01*
X005580Y019350D01*
X005580Y016650D01*
X005582Y016633D01*
X005586Y016616D01*
X005593Y016600D01*
X005603Y016586D01*
X005616Y016573D01*
X005630Y016563D01*
X005646Y016556D01*
X005663Y016552D01*
X005680Y016550D01*
X006180Y017400D02*
X006180Y017880D01*
X006180Y018130D02*
X006180Y018600D01*
X002150Y017610D02*
X002093Y017667D01*
X001810Y017667D01*
X001810Y017610D02*
X001810Y017724D01*
X002150Y017610D02*
X002150Y017554D01*
X002093Y017497D01*
X002093Y017355D02*
X001866Y017355D01*
X001810Y017299D01*
X001810Y017129D01*
X002150Y017129D01*
X002150Y017299D01*
X002093Y017355D01*
X001810Y016987D02*
X001810Y016760D01*
X001810Y016874D02*
X002150Y016874D01*
X002093Y016619D02*
X001866Y016619D01*
X002093Y016392D01*
X002150Y016449D01*
X002150Y016562D01*
X002093Y016619D01*
X001866Y016619D02*
X001810Y016562D01*
X001810Y016449D01*
X001866Y016392D01*
X002093Y016392D01*
X002093Y016251D02*
X001980Y016251D01*
X001980Y016137D01*
X002093Y016024D02*
X001866Y016024D01*
X001810Y016080D01*
X001810Y016194D01*
X001866Y016251D01*
X002093Y016251D02*
X002150Y016194D01*
X002150Y016080D01*
X002093Y016024D01*
X002150Y015514D02*
X001980Y015514D01*
X001923Y015457D01*
X001923Y015344D01*
X001980Y015287D01*
X001923Y015155D02*
X001923Y015041D01*
X001866Y015098D02*
X002093Y015098D01*
X002150Y015155D01*
X002150Y015287D02*
X001810Y015287D01*
X001663Y015646D02*
X001663Y015703D01*
X001607Y015759D01*
X001323Y015759D01*
X001323Y015533D02*
X001493Y015533D01*
X001550Y015589D01*
X001550Y015759D01*
X001493Y015391D02*
X001380Y015391D01*
X001323Y015334D01*
X001323Y015164D01*
X001210Y015164D02*
X001550Y015164D01*
X001550Y015334D01*
X001493Y015391D01*
X001753Y014853D02*
X001810Y014853D01*
X001923Y014853D02*
X002150Y014853D01*
X002150Y014909D02*
X002150Y014796D01*
X002150Y014654D02*
X001980Y014654D01*
X001923Y014598D01*
X001980Y014541D01*
X002150Y014541D01*
X002150Y014428D02*
X001923Y014428D01*
X001923Y014484D01*
X001980Y014541D01*
X002037Y014286D02*
X002093Y014286D01*
X002150Y014229D01*
X002150Y014116D01*
X002093Y014059D01*
X001980Y014116D02*
X001980Y014229D01*
X002037Y014286D01*
X001866Y014286D02*
X001810Y014229D01*
X001810Y014116D01*
X001866Y014059D01*
X001923Y014059D01*
X001980Y014116D01*
X001550Y014116D02*
X001493Y014059D01*
X001380Y014059D01*
X001323Y014116D01*
X001323Y014229D01*
X001380Y014286D01*
X001437Y014286D01*
X001437Y014059D01*
X001550Y014116D02*
X001550Y014229D01*
X001493Y014428D02*
X001380Y014428D01*
X001323Y014484D01*
X001323Y014654D01*
X001210Y014654D02*
X001550Y014654D01*
X001550Y014484D01*
X001493Y014428D01*
X001550Y013918D02*
X001380Y013918D01*
X001323Y013861D01*
X001323Y013691D01*
X001550Y013691D01*
X001550Y013550D02*
X001550Y013379D01*
X001493Y013323D01*
X001380Y013323D01*
X001323Y013379D01*
X001323Y013550D01*
X001607Y013550D01*
X001663Y013493D01*
X001663Y013436D01*
X001923Y013379D02*
X001923Y013493D01*
X001980Y013550D01*
X002037Y013550D01*
X002037Y013323D01*
X002093Y013323D02*
X001980Y013323D01*
X001923Y013379D01*
X002093Y013323D02*
X002150Y013379D01*
X002150Y013493D01*
X001923Y013181D02*
X002150Y013068D01*
X001923Y012954D01*
X001980Y012813D02*
X002037Y012813D01*
X002037Y012586D01*
X002093Y012586D02*
X001980Y012586D01*
X001923Y012643D01*
X001923Y012756D01*
X001980Y012813D01*
X002150Y012756D02*
X002150Y012643D01*
X002093Y012586D01*
X002150Y012454D02*
X002093Y012397D01*
X001866Y012397D01*
X001923Y012341D02*
X001923Y012454D01*
X001866Y012199D02*
X001810Y012142D01*
X001810Y012029D01*
X001866Y011972D01*
X001923Y011972D01*
X001980Y012029D01*
X001980Y012142D01*
X002037Y012199D01*
X002093Y012199D01*
X002150Y012142D01*
X002150Y012029D01*
X002093Y011972D01*
X001550Y011972D02*
X001550Y012142D01*
X001493Y012199D01*
X001266Y012199D01*
X001210Y012142D01*
X001210Y011972D01*
X001550Y011972D01*
X001493Y012341D02*
X001380Y012341D01*
X001323Y012397D01*
X001323Y012511D01*
X001380Y012567D01*
X001437Y012567D01*
X001437Y012341D01*
X001493Y012341D02*
X001550Y012397D01*
X001550Y012511D01*
X001550Y012709D02*
X001550Y012879D01*
X001493Y012936D01*
X001437Y012879D01*
X001437Y012766D01*
X001380Y012709D01*
X001323Y012766D01*
X001323Y012936D01*
X001323Y013077D02*
X001323Y013134D01*
X001550Y013134D01*
X001550Y013077D02*
X001550Y013191D01*
X001210Y013134D02*
X001153Y013134D01*
X001923Y014796D02*
X001923Y014853D01*
X004030Y010200D02*
X003979Y010198D01*
X003928Y010193D01*
X003878Y010183D01*
X003828Y010170D01*
X003780Y010154D01*
X003733Y010134D01*
X003687Y010110D01*
X003644Y010084D01*
X003602Y010054D01*
X003563Y010021D01*
X003526Y009986D01*
X003492Y009948D01*
X003461Y009907D01*
X003432Y009865D01*
X003407Y009820D01*
X003386Y009774D01*
X003367Y009726D01*
X003353Y009677D01*
X003342Y009627D01*
X003334Y009577D01*
X003330Y009526D01*
X003330Y009474D01*
X003334Y009423D01*
X003342Y009373D01*
X003353Y009323D01*
X003367Y009274D01*
X003386Y009226D01*
X003407Y009180D01*
X003432Y009135D01*
X003461Y009093D01*
X003492Y009052D01*
X003526Y009014D01*
X003563Y008979D01*
X003602Y008946D01*
X003644Y008916D01*
X003687Y008890D01*
X003733Y008866D01*
X003780Y008846D01*
X003828Y008830D01*
X003878Y008817D01*
X003928Y008807D01*
X003979Y008802D01*
X004030Y008800D01*
X006330Y008800D01*
X006381Y008802D01*
X006432Y008807D01*
X006482Y008817D01*
X006532Y008830D01*
X006580Y008846D01*
X006627Y008866D01*
X006673Y008890D01*
X006716Y008916D01*
X006758Y008946D01*
X006797Y008979D01*
X006834Y009014D01*
X006868Y009052D01*
X006899Y009093D01*
X006928Y009135D01*
X006953Y009180D01*
X006974Y009226D01*
X006993Y009274D01*
X007007Y009323D01*
X007018Y009373D01*
X007026Y009423D01*
X007030Y009474D01*
X007030Y009526D01*
X007026Y009577D01*
X007018Y009627D01*
X007007Y009677D01*
X006993Y009726D01*
X006974Y009774D01*
X006953Y009820D01*
X006928Y009865D01*
X006899Y009907D01*
X006868Y009948D01*
X006834Y009986D01*
X006797Y010021D01*
X006758Y010054D01*
X006716Y010084D01*
X006673Y010110D01*
X006627Y010134D01*
X006580Y010154D01*
X006532Y010170D01*
X006482Y010183D01*
X006432Y010193D01*
X006381Y010198D01*
X006330Y010200D01*
X006530Y007850D02*
X003830Y007850D01*
X003813Y007848D01*
X003796Y007844D01*
X003780Y007837D01*
X003766Y007827D01*
X003753Y007814D01*
X003743Y007800D01*
X003736Y007784D01*
X003732Y007767D01*
X003730Y007750D01*
X003730Y006750D01*
X003732Y006733D01*
X003736Y006716D01*
X003743Y006700D01*
X003753Y006686D01*
X003766Y006673D01*
X003780Y006663D01*
X003796Y006656D01*
X003813Y006652D01*
X003830Y006650D01*
X006530Y006650D01*
X006547Y006652D01*
X006564Y006656D01*
X006580Y006663D01*
X006594Y006673D01*
X006607Y006686D01*
X006617Y006700D01*
X006624Y006716D01*
X006628Y006733D01*
X006630Y006750D01*
X006630Y007750D01*
X006628Y007767D01*
X006624Y007784D01*
X006617Y007800D01*
X006607Y007814D01*
X006594Y007827D01*
X006580Y007837D01*
X006564Y007844D01*
X006547Y007848D01*
X006530Y007850D01*
X005780Y007250D02*
X005310Y007250D01*
X005060Y007250D02*
X004580Y007250D01*
X000380Y007250D02*
X000382Y007306D01*
X000388Y007363D01*
X000398Y007418D01*
X000412Y007473D01*
X000429Y007527D01*
X000451Y007579D01*
X000476Y007629D01*
X000504Y007678D01*
X000536Y007725D01*
X000571Y007769D01*
X000609Y007811D01*
X000650Y007850D01*
X000694Y007885D01*
X000740Y007918D01*
X000788Y007947D01*
X000838Y007973D01*
X000890Y007996D01*
X000944Y008014D01*
X000998Y008029D01*
X001053Y008040D01*
X001109Y008047D01*
X001166Y008050D01*
X001222Y008049D01*
X001279Y008044D01*
X001334Y008035D01*
X001389Y008022D01*
X001443Y008005D01*
X001496Y007985D01*
X001547Y007961D01*
X001596Y007933D01*
X001643Y007902D01*
X001688Y007868D01*
X001731Y007830D01*
X001770Y007790D01*
X001807Y007747D01*
X001840Y007702D01*
X001870Y007654D01*
X001897Y007604D01*
X001920Y007553D01*
X001940Y007500D01*
X001956Y007446D01*
X001968Y007390D01*
X001976Y007335D01*
X001980Y007278D01*
X001980Y007222D01*
X001976Y007165D01*
X001968Y007110D01*
X001956Y007054D01*
X001940Y007000D01*
X001920Y006947D01*
X001897Y006896D01*
X001870Y006846D01*
X001840Y006798D01*
X001807Y006753D01*
X001770Y006710D01*
X001731Y006670D01*
X001688Y006632D01*
X001643Y006598D01*
X001596Y006567D01*
X001547Y006539D01*
X001496Y006515D01*
X001443Y006495D01*
X001389Y006478D01*
X001334Y006465D01*
X001279Y006456D01*
X001222Y006451D01*
X001166Y006450D01*
X001109Y006453D01*
X001053Y006460D01*
X000998Y006471D01*
X000944Y006486D01*
X000890Y006504D01*
X000838Y006527D01*
X000788Y006553D01*
X000740Y006582D01*
X000694Y006615D01*
X000650Y006650D01*
X000609Y006689D01*
X000571Y006731D01*
X000536Y006775D01*
X000504Y006822D01*
X000476Y006871D01*
X000451Y006921D01*
X000429Y006973D01*
X000412Y007027D01*
X000398Y007082D01*
X000388Y007137D01*
X000382Y007194D01*
X000380Y007250D01*
X012805Y007264D02*
X012861Y007208D01*
X012805Y007264D02*
X012805Y007378D01*
X012861Y007434D01*
X012918Y007434D01*
X013145Y007208D01*
X013145Y007434D01*
X013088Y007066D02*
X012861Y007066D01*
X012805Y007009D01*
X012805Y006839D01*
X013145Y006839D01*
X013145Y007009D01*
X013088Y007066D01*
X013145Y006698D02*
X013145Y006471D01*
X012805Y006471D01*
X012805Y006698D01*
X012975Y006584D02*
X012975Y006471D01*
X013145Y006329D02*
X013145Y006103D01*
X012805Y006103D01*
X013380Y003750D02*
X013382Y003806D01*
X013388Y003863D01*
X013398Y003918D01*
X013412Y003973D01*
X013429Y004027D01*
X013451Y004079D01*
X013476Y004129D01*
X013504Y004178D01*
X013536Y004225D01*
X013571Y004269D01*
X013609Y004311D01*
X013650Y004350D01*
X013694Y004385D01*
X013740Y004418D01*
X013788Y004447D01*
X013838Y004473D01*
X013890Y004496D01*
X013944Y004514D01*
X013998Y004529D01*
X014053Y004540D01*
X014109Y004547D01*
X014166Y004550D01*
X014222Y004549D01*
X014279Y004544D01*
X014334Y004535D01*
X014389Y004522D01*
X014443Y004505D01*
X014496Y004485D01*
X014547Y004461D01*
X014596Y004433D01*
X014643Y004402D01*
X014688Y004368D01*
X014731Y004330D01*
X014770Y004290D01*
X014807Y004247D01*
X014840Y004202D01*
X014870Y004154D01*
X014897Y004104D01*
X014920Y004053D01*
X014940Y004000D01*
X014956Y003946D01*
X014968Y003890D01*
X014976Y003835D01*
X014980Y003778D01*
X014980Y003722D01*
X014976Y003665D01*
X014968Y003610D01*
X014956Y003554D01*
X014940Y003500D01*
X014920Y003447D01*
X014897Y003396D01*
X014870Y003346D01*
X014840Y003298D01*
X014807Y003253D01*
X014770Y003210D01*
X014731Y003170D01*
X014688Y003132D01*
X014643Y003098D01*
X014596Y003067D01*
X014547Y003039D01*
X014496Y003015D01*
X014443Y002995D01*
X014389Y002978D01*
X014334Y002965D01*
X014279Y002956D01*
X014222Y002951D01*
X014166Y002950D01*
X014109Y002953D01*
X014053Y002960D01*
X013998Y002971D01*
X013944Y002986D01*
X013890Y003004D01*
X013838Y003027D01*
X013788Y003053D01*
X013740Y003082D01*
X013694Y003115D01*
X013650Y003150D01*
X013609Y003189D01*
X013571Y003231D01*
X013536Y003275D01*
X013504Y003322D01*
X013476Y003371D01*
X013451Y003421D01*
X013429Y003473D01*
X013412Y003527D01*
X013398Y003582D01*
X013388Y003637D01*
X013382Y003694D01*
X013380Y003750D01*
X013142Y002534D02*
X013142Y002307D01*
X013142Y002421D02*
X012802Y002421D01*
X012915Y002307D01*
X012859Y002166D02*
X012802Y002109D01*
X012802Y001939D01*
X013142Y001939D01*
X013142Y002109D01*
X013085Y002166D01*
X012859Y002166D01*
X012802Y001797D02*
X012802Y001571D01*
X013142Y001571D01*
X013142Y001797D01*
X012972Y001684D02*
X012972Y001571D01*
X013142Y001429D02*
X013142Y001202D01*
X012802Y001202D01*
X016430Y007500D02*
X017930Y007500D01*
X018180Y007750D01*
X018180Y008250D01*
X017930Y008500D01*
X016430Y008500D01*
X016180Y008250D01*
X016180Y007750D01*
X016430Y007500D01*
X016430Y008500D02*
X016180Y008750D01*
X016180Y009250D01*
X016430Y009500D01*
X017930Y009500D01*
X018180Y009250D01*
X018180Y008750D01*
X017930Y008500D01*
X018700Y008554D02*
X018700Y008440D01*
X018756Y008383D01*
X018983Y008383D01*
X019040Y008440D01*
X019040Y008554D01*
X018983Y008610D01*
X018983Y008752D02*
X019040Y008808D01*
X019040Y008922D01*
X018983Y008979D01*
X018756Y008979D02*
X018700Y008922D01*
X018700Y008808D01*
X018756Y008752D01*
X018983Y008752D01*
X018756Y008610D02*
X018700Y008554D01*
X018700Y008242D02*
X018927Y008242D01*
X019040Y008128D01*
X018927Y008015D01*
X018700Y008015D01*
X017930Y009500D02*
X018180Y009750D01*
X018180Y010250D01*
X017930Y010500D01*
X016430Y010500D01*
X016180Y010750D01*
X016180Y011250D01*
X016430Y011500D01*
X017930Y011500D01*
X018180Y011250D01*
X018180Y010750D01*
X017930Y010500D01*
X017930Y011500D02*
X018180Y011750D01*
X018180Y012250D01*
X017930Y012500D01*
X016430Y012500D01*
X016180Y012250D01*
X016180Y011750D01*
X016430Y011500D01*
X016430Y010500D02*
X016180Y010250D01*
X016180Y009750D01*
X016430Y009500D01*
X014780Y010850D02*
X014780Y013550D01*
X014778Y013567D01*
X014774Y013584D01*
X014767Y013600D01*
X014757Y013614D01*
X014744Y013627D01*
X014730Y013637D01*
X014714Y013644D01*
X014697Y013648D01*
X014680Y013650D01*
X013680Y013650D01*
X013663Y013648D01*
X013646Y013644D01*
X013630Y013637D01*
X013616Y013627D01*
X013603Y013614D01*
X013593Y013600D01*
X013586Y013584D01*
X013582Y013567D01*
X013580Y013550D01*
X013580Y010850D01*
X013582Y010833D01*
X013586Y010816D01*
X013593Y010800D01*
X013603Y010786D01*
X013616Y010773D01*
X013630Y010763D01*
X013646Y010756D01*
X013663Y010752D01*
X013680Y010750D01*
X014680Y010750D01*
X014697Y010752D01*
X014714Y010756D01*
X014730Y010763D01*
X014744Y010773D01*
X014757Y010786D01*
X014767Y010800D01*
X014774Y010816D01*
X014778Y010833D01*
X014780Y010850D01*
X014180Y011600D02*
X014180Y012070D01*
X014180Y012320D02*
X014180Y012800D01*
X013680Y014050D02*
X014680Y014050D01*
X014697Y014052D01*
X014714Y014056D01*
X014730Y014063D01*
X014744Y014073D01*
X014757Y014086D01*
X014767Y014100D01*
X014774Y014116D01*
X014778Y014133D01*
X014780Y014150D01*
X014780Y016850D01*
X014778Y016867D01*
X014774Y016884D01*
X014767Y016900D01*
X014757Y016914D01*
X014744Y016927D01*
X014730Y016937D01*
X014714Y016944D01*
X014697Y016948D01*
X014680Y016950D01*
X013680Y016950D01*
X013663Y016948D01*
X013646Y016944D01*
X013630Y016937D01*
X013616Y016927D01*
X013603Y016914D01*
X013593Y016900D01*
X013586Y016884D01*
X013582Y016867D01*
X013580Y016850D01*
X013580Y014150D01*
X013582Y014133D01*
X013586Y014116D01*
X013593Y014100D01*
X013603Y014086D01*
X013616Y014073D01*
X013630Y014063D01*
X013646Y014056D01*
X013663Y014052D01*
X013680Y014050D01*
X014180Y014900D02*
X014180Y015380D01*
X014180Y015630D02*
X014180Y016100D01*
X016180Y016250D02*
X016180Y015750D01*
X016430Y015500D01*
X017930Y015500D01*
X018180Y015250D01*
X018180Y014750D01*
X017930Y014500D01*
X016430Y014500D01*
X016180Y014250D01*
X016180Y013750D01*
X016430Y013500D01*
X017930Y013500D01*
X018180Y013250D01*
X018180Y012750D01*
X017930Y012500D01*
X017930Y013500D02*
X018180Y013750D01*
X018180Y014250D01*
X017930Y014500D01*
X017930Y015500D02*
X018180Y015750D01*
X018180Y016250D01*
X017930Y016500D01*
X016430Y016500D01*
X016180Y016250D01*
X016430Y016500D02*
X016180Y016750D01*
X016180Y017250D01*
X016430Y017500D01*
X017930Y017500D01*
X018180Y017250D01*
X018180Y016750D01*
X017930Y016500D01*
X018642Y016193D02*
X018813Y016193D01*
X018869Y016136D01*
X018869Y016023D01*
X018813Y015966D01*
X018642Y015966D01*
X018642Y015852D02*
X018642Y016193D01*
X018756Y015966D02*
X018869Y015852D01*
X019011Y015852D02*
X019238Y015852D01*
X019379Y015909D02*
X019436Y015852D01*
X019549Y015852D01*
X019606Y015909D01*
X019606Y015966D01*
X019549Y016023D01*
X019436Y016023D01*
X019379Y016079D01*
X019379Y016136D01*
X019436Y016193D01*
X019549Y016193D01*
X019606Y016136D01*
X019238Y016193D02*
X019011Y016193D01*
X019011Y015852D01*
X019011Y016023D02*
X019124Y016023D01*
X019228Y016802D02*
X019228Y017143D01*
X019369Y017143D02*
X019539Y017143D01*
X019596Y017086D01*
X019596Y016859D01*
X019539Y016802D01*
X019369Y016802D01*
X019369Y017143D01*
X019001Y017143D02*
X019001Y016802D01*
X018859Y016859D02*
X018859Y016973D01*
X018746Y016973D01*
X018859Y017086D02*
X018803Y017143D01*
X018689Y017143D01*
X018632Y017086D01*
X018632Y016859D01*
X018689Y016802D01*
X018803Y016802D01*
X018859Y016859D01*
X019001Y017143D02*
X019228Y016802D01*
X016430Y015500D02*
X016180Y015250D01*
X016180Y014750D01*
X016430Y014500D01*
X016430Y013500D02*
X016180Y013250D01*
X016180Y012750D01*
X016430Y012500D01*
X013380Y008750D02*
X013382Y008806D01*
X013388Y008863D01*
X013398Y008918D01*
X013412Y008973D01*
X013429Y009027D01*
X013451Y009079D01*
X013476Y009129D01*
X013504Y009178D01*
X013536Y009225D01*
X013571Y009269D01*
X013609Y009311D01*
X013650Y009350D01*
X013694Y009385D01*
X013740Y009418D01*
X013788Y009447D01*
X013838Y009473D01*
X013890Y009496D01*
X013944Y009514D01*
X013998Y009529D01*
X014053Y009540D01*
X014109Y009547D01*
X014166Y009550D01*
X014222Y009549D01*
X014279Y009544D01*
X014334Y009535D01*
X014389Y009522D01*
X014443Y009505D01*
X014496Y009485D01*
X014547Y009461D01*
X014596Y009433D01*
X014643Y009402D01*
X014688Y009368D01*
X014731Y009330D01*
X014770Y009290D01*
X014807Y009247D01*
X014840Y009202D01*
X014870Y009154D01*
X014897Y009104D01*
X014920Y009053D01*
X014940Y009000D01*
X014956Y008946D01*
X014968Y008890D01*
X014976Y008835D01*
X014980Y008778D01*
X014980Y008722D01*
X014976Y008665D01*
X014968Y008610D01*
X014956Y008554D01*
X014940Y008500D01*
X014920Y008447D01*
X014897Y008396D01*
X014870Y008346D01*
X014840Y008298D01*
X014807Y008253D01*
X014770Y008210D01*
X014731Y008170D01*
X014688Y008132D01*
X014643Y008098D01*
X014596Y008067D01*
X014547Y008039D01*
X014496Y008015D01*
X014443Y007995D01*
X014389Y007978D01*
X014334Y007965D01*
X014279Y007956D01*
X014222Y007951D01*
X014166Y007950D01*
X014109Y007953D01*
X014053Y007960D01*
X013998Y007971D01*
X013944Y007986D01*
X013890Y008004D01*
X013838Y008027D01*
X013788Y008053D01*
X013740Y008082D01*
X013694Y008115D01*
X013650Y008150D01*
X013609Y008189D01*
X013571Y008231D01*
X013536Y008275D01*
X013504Y008322D01*
X013476Y008371D01*
X013451Y008421D01*
X013429Y008473D01*
X013412Y008527D01*
X013398Y008582D01*
X013388Y008637D01*
X013382Y008694D01*
X013380Y008750D01*
D13*
X006330Y008600D02*
X004030Y008600D01*
X003971Y008602D01*
X003913Y008608D01*
X003854Y008617D01*
X003797Y008631D01*
X003741Y008648D01*
X003686Y008669D01*
X003632Y008693D01*
X003580Y008721D01*
X003530Y008752D01*
X003482Y008786D01*
X003437Y008823D01*
X003394Y008864D01*
X003353Y008907D01*
X003316Y008952D01*
X003282Y009000D01*
X003251Y009050D01*
X003223Y009102D01*
X003199Y009156D01*
X003178Y009211D01*
X003161Y009267D01*
X003147Y009324D01*
X003138Y009383D01*
X003132Y009441D01*
X003130Y009500D01*
X003132Y009559D01*
X003138Y009617D01*
X003147Y009676D01*
X003161Y009733D01*
X003178Y009789D01*
X003199Y009844D01*
X003223Y009898D01*
X003251Y009950D01*
X003282Y010000D01*
X003316Y010048D01*
X003353Y010093D01*
X003394Y010136D01*
X003437Y010177D01*
X003482Y010214D01*
X003530Y010248D01*
X003580Y010279D01*
X003632Y010307D01*
X003686Y010331D01*
X003741Y010352D01*
X003797Y010369D01*
X003854Y010383D01*
X003913Y010392D01*
X003971Y010398D01*
X004030Y010400D01*
X006330Y010400D01*
X006389Y010398D01*
X006447Y010392D01*
X006506Y010383D01*
X006563Y010369D01*
X006619Y010352D01*
X006674Y010331D01*
X006728Y010307D01*
X006780Y010279D01*
X006830Y010248D01*
X006878Y010214D01*
X006923Y010177D01*
X006966Y010136D01*
X007007Y010093D01*
X007044Y010048D01*
X007078Y010000D01*
X007109Y009950D01*
X007137Y009898D01*
X007161Y009844D01*
X007182Y009789D01*
X007199Y009733D01*
X007213Y009676D01*
X007222Y009617D01*
X007228Y009559D01*
X007230Y009500D01*
X007228Y009441D01*
X007222Y009383D01*
X007213Y009324D01*
X007199Y009267D01*
X007182Y009211D01*
X007161Y009156D01*
X007137Y009102D01*
X007109Y009050D01*
X007078Y009000D01*
X007044Y008952D01*
X007007Y008907D01*
X006966Y008864D01*
X006923Y008823D01*
X006878Y008786D01*
X006830Y008752D01*
X006780Y008721D01*
X006728Y008693D01*
X006674Y008669D01*
X006619Y008648D01*
X006563Y008631D01*
X006506Y008617D01*
X006447Y008608D01*
X006389Y008602D01*
X006330Y008600D01*
X016010Y016700D02*
X016010Y017300D01*
D14*
X014430Y015630D02*
X014180Y015630D01*
X013930Y015630D01*
X013930Y015380D02*
X014180Y015380D01*
X014430Y015380D01*
X014430Y012320D02*
X014180Y012320D01*
X013930Y012320D01*
X013930Y012070D02*
X014180Y012070D01*
X014430Y012070D01*
X018550Y008950D02*
X018550Y008050D01*
X006430Y014380D02*
X006180Y014380D01*
X005930Y014380D01*
X005930Y014630D02*
X006180Y014630D01*
X006430Y014630D01*
X005300Y011750D02*
X005300Y011500D01*
X005300Y011250D01*
X005050Y011250D02*
X005050Y011500D01*
X005050Y011750D01*
X005060Y007500D02*
X005060Y007250D01*
X005060Y007000D01*
X005310Y007000D02*
X005310Y007250D01*
X005310Y007500D01*
X005930Y017880D02*
X006180Y017880D01*
X006430Y017880D01*
X006430Y018130D02*
X006180Y018130D01*
X005930Y018130D01*
D15*
X010096Y014275D02*
X010190Y014182D01*
X010470Y014182D01*
X010470Y014369D02*
X010190Y014369D01*
X010096Y014275D01*
X010190Y014182D02*
X010096Y014088D01*
X010096Y013995D01*
X010470Y013995D01*
X010377Y013761D02*
X010190Y013761D01*
X010096Y013667D01*
X010096Y013481D01*
X010190Y013387D01*
X010377Y013387D01*
X010470Y013481D01*
X010470Y013667D01*
X010377Y013761D01*
X010470Y013153D02*
X010470Y012873D01*
X010377Y012779D01*
X010190Y012779D01*
X010096Y012873D01*
X010096Y013153D01*
X010377Y012569D02*
X010470Y012569D01*
X010470Y012476D01*
X010377Y012476D01*
X010377Y012569D01*
X010470Y012241D02*
X010283Y012055D01*
X010283Y012148D02*
X010283Y011868D01*
X010470Y011868D02*
X009910Y011868D01*
X009910Y012148D01*
X010003Y012241D01*
X010190Y012241D01*
X010283Y012148D01*
X010283Y011634D02*
X009910Y011634D01*
X010283Y011634D02*
X010470Y011447D01*
X010283Y011260D01*
X009910Y011260D01*
X010096Y011026D02*
X010470Y011026D01*
X010190Y011026D02*
X010190Y010652D01*
X010096Y010652D02*
X009910Y010839D01*
X010096Y011026D01*
X010096Y010652D02*
X010470Y010652D01*
X010470Y010434D02*
X010377Y010341D01*
X010003Y010341D01*
X010096Y010434D02*
X010096Y010247D01*
X010096Y010013D02*
X010096Y009733D01*
X010190Y009640D01*
X010377Y009640D01*
X010470Y009733D01*
X010470Y010013D01*
X010283Y009405D02*
X010190Y009405D01*
X010096Y009312D01*
X010096Y009125D01*
X010190Y009032D01*
X010377Y009032D01*
X010470Y009125D01*
X010470Y009312D01*
X010283Y009405D02*
X010283Y009032D01*
X010096Y008814D02*
X010563Y008814D01*
X010657Y008720D01*
X010657Y008627D01*
X010377Y008393D02*
X010470Y008299D01*
X010470Y008112D01*
X010377Y008019D01*
X010190Y008019D01*
X010096Y008112D01*
X010096Y008299D01*
X010190Y008393D01*
X010377Y008393D01*
X009910Y008814D02*
X009816Y008814D01*
X010096Y007793D02*
X010096Y007699D01*
X010283Y007513D01*
X010470Y007513D02*
X010096Y007513D01*
X010003Y007278D02*
X010190Y007278D01*
X010283Y007185D01*
X010283Y006905D01*
X010470Y006905D02*
X009910Y006905D01*
X009910Y007185D01*
X010003Y007278D01*
X010377Y006694D02*
X010470Y006694D01*
X010470Y006601D01*
X010377Y006601D01*
X010377Y006694D01*
X010377Y006367D02*
X010096Y006367D01*
X010377Y006367D02*
X010470Y006273D01*
X010377Y006180D01*
X010470Y006087D01*
X010377Y005993D01*
X010096Y005993D01*
X010096Y005759D02*
X010377Y005759D01*
X010470Y005666D01*
X010377Y005572D01*
X010470Y005479D01*
X010377Y005386D01*
X010096Y005386D01*
X010096Y005151D02*
X010377Y005151D01*
X010470Y005058D01*
X010377Y004965D01*
X010470Y004871D01*
X010377Y004778D01*
X010096Y004778D01*
X014800Y006240D02*
X014800Y006420D01*
X014800Y007060D02*
X014800Y007260D01*
X014800Y002260D02*
X014800Y002060D01*
X014800Y001420D02*
X014800Y001240D01*
D16*
X010863Y001695D02*
X010483Y001695D01*
X010673Y001695D02*
X010673Y002265D01*
X010483Y002075D01*
X010255Y002265D02*
X010255Y001790D01*
X010160Y001695D01*
X009970Y001695D01*
X009875Y001790D01*
X009875Y002265D01*
D17*
X014180Y004500D03*
X014180Y009500D03*
D18*
X013449Y006327D02*
X013527Y006372D01*
X013527Y006371D02*
X013555Y006327D01*
X013586Y006285D01*
X013619Y006245D01*
X013655Y006207D01*
X013694Y006172D01*
X013735Y006140D01*
X013779Y006110D01*
X013824Y006084D01*
X013871Y006061D01*
X013919Y006041D01*
X013969Y006025D01*
X014019Y006012D01*
X014071Y006003D01*
X014123Y005997D01*
X014175Y005995D01*
X014176Y005906D01*
X014175Y005905D01*
X014120Y005907D01*
X014066Y005913D01*
X014011Y005922D01*
X013958Y005935D01*
X013906Y005951D01*
X013854Y005970D01*
X013804Y005993D01*
X013756Y006019D01*
X013709Y006048D01*
X013665Y006080D01*
X013622Y006115D01*
X013582Y006153D01*
X013545Y006193D01*
X013510Y006235D01*
X013478Y006280D01*
X013449Y006326D01*
X013457Y006331D01*
X013485Y006285D01*
X013517Y006241D01*
X013552Y006199D01*
X013589Y006159D01*
X013628Y006122D01*
X013670Y006087D01*
X013714Y006056D01*
X013760Y006027D01*
X013808Y006001D01*
X013858Y005979D01*
X013908Y005959D01*
X013960Y005943D01*
X014013Y005931D01*
X014067Y005922D01*
X014121Y005916D01*
X014175Y005914D01*
X014175Y005923D01*
X014121Y005925D01*
X014068Y005931D01*
X014015Y005940D01*
X013963Y005952D01*
X013911Y005968D01*
X013861Y005987D01*
X013812Y006009D01*
X013765Y006035D01*
X013719Y006063D01*
X013676Y006095D01*
X013634Y006129D01*
X013595Y006165D01*
X013558Y006205D01*
X013524Y006246D01*
X013493Y006290D01*
X013464Y006335D01*
X013472Y006340D01*
X013502Y006292D01*
X013536Y006246D01*
X013572Y006203D01*
X013612Y006162D01*
X013654Y006124D01*
X013698Y006089D01*
X013745Y006057D01*
X013794Y006029D01*
X013845Y006004D01*
X013898Y005982D01*
X013951Y005965D01*
X014006Y005951D01*
X014062Y005941D01*
X014118Y005934D01*
X014175Y005932D01*
X014175Y005941D01*
X014119Y005943D01*
X014063Y005949D01*
X014008Y005959D01*
X013954Y005973D01*
X013901Y005991D01*
X013849Y006012D01*
X013798Y006037D01*
X013750Y006065D01*
X013704Y006096D01*
X013659Y006131D01*
X013618Y006168D01*
X013579Y006209D01*
X013543Y006251D01*
X013510Y006297D01*
X013480Y006344D01*
X013488Y006349D01*
X013517Y006302D01*
X013550Y006257D01*
X013586Y006215D01*
X013624Y006175D01*
X013665Y006138D01*
X013709Y006103D01*
X013755Y006072D01*
X013803Y006045D01*
X013852Y006020D01*
X013904Y005999D01*
X013956Y005982D01*
X014010Y005968D01*
X014065Y005958D01*
X014120Y005952D01*
X014175Y005950D01*
X014175Y005959D01*
X014120Y005961D01*
X014066Y005967D01*
X014012Y005977D01*
X013959Y005991D01*
X013907Y006008D01*
X013856Y006028D01*
X013807Y006053D01*
X013760Y006080D01*
X013714Y006111D01*
X013671Y006144D01*
X013630Y006181D01*
X013592Y006221D01*
X013557Y006263D01*
X013525Y006307D01*
X013496Y006353D01*
X013504Y006358D01*
X013532Y006312D01*
X013564Y006268D01*
X013599Y006227D01*
X013637Y006188D01*
X013677Y006151D01*
X013719Y006118D01*
X013764Y006088D01*
X013811Y006060D01*
X013860Y006037D01*
X013910Y006016D01*
X013961Y005999D01*
X014014Y005986D01*
X014067Y005976D01*
X014121Y005970D01*
X014175Y005968D01*
X014175Y005977D01*
X014122Y005979D01*
X014068Y005985D01*
X014016Y005995D01*
X013964Y006008D01*
X013913Y006025D01*
X013863Y006045D01*
X013815Y006068D01*
X013769Y006095D01*
X013725Y006125D01*
X013683Y006158D01*
X013643Y006194D01*
X013606Y006233D01*
X013571Y006274D01*
X013540Y006317D01*
X013511Y006362D01*
X013519Y006367D01*
X013547Y006322D01*
X013578Y006279D01*
X013612Y006239D01*
X013649Y006201D01*
X013688Y006165D01*
X013730Y006133D01*
X013774Y006103D01*
X013820Y006076D01*
X013867Y006053D01*
X013916Y006033D01*
X013966Y006016D01*
X014018Y006003D01*
X014070Y005994D01*
X014122Y005988D01*
X014175Y005986D01*
X014175Y007594D02*
X014175Y007504D01*
X014175Y007505D02*
X014121Y007503D01*
X014068Y007497D01*
X014015Y007487D01*
X013963Y007473D01*
X013912Y007456D01*
X013863Y007435D01*
X013815Y007411D01*
X013769Y007383D01*
X013725Y007352D01*
X013683Y007318D01*
X013644Y007282D01*
X013607Y007242D01*
X013574Y007200D01*
X013543Y007156D01*
X013516Y007110D01*
X013437Y007152D01*
X013465Y007201D01*
X013497Y007247D01*
X013532Y007292D01*
X013569Y007334D01*
X013610Y007374D01*
X013653Y007410D01*
X013698Y007444D01*
X013745Y007475D01*
X013795Y007502D01*
X013846Y007526D01*
X013898Y007547D01*
X013952Y007564D01*
X014007Y007577D01*
X014062Y007587D01*
X014119Y007593D01*
X014175Y007595D01*
X014175Y007586D01*
X014119Y007584D01*
X014064Y007578D01*
X014009Y007568D01*
X013954Y007555D01*
X013901Y007538D01*
X013849Y007518D01*
X013799Y007494D01*
X013750Y007467D01*
X013703Y007437D01*
X013658Y007403D01*
X013616Y007367D01*
X013576Y007328D01*
X013539Y007286D01*
X013504Y007242D01*
X013473Y007196D01*
X013445Y007148D01*
X013453Y007144D01*
X013481Y007191D01*
X013512Y007237D01*
X013546Y007280D01*
X013582Y007322D01*
X013622Y007360D01*
X013664Y007396D01*
X013708Y007429D01*
X013754Y007459D01*
X013803Y007486D01*
X013853Y007509D01*
X013904Y007530D01*
X013957Y007546D01*
X014010Y007559D01*
X014065Y007569D01*
X014120Y007575D01*
X014175Y007577D01*
X014175Y007568D01*
X014120Y007566D01*
X014066Y007560D01*
X014012Y007551D01*
X013959Y007538D01*
X013907Y007521D01*
X013856Y007501D01*
X013807Y007478D01*
X013759Y007451D01*
X013713Y007422D01*
X013669Y007389D01*
X013628Y007354D01*
X013589Y007315D01*
X013552Y007275D01*
X013519Y007232D01*
X013488Y007186D01*
X013461Y007139D01*
X013469Y007135D01*
X013496Y007182D01*
X013526Y007226D01*
X013559Y007269D01*
X013595Y007309D01*
X013634Y007347D01*
X013675Y007382D01*
X013718Y007414D01*
X013764Y007444D01*
X013811Y007470D01*
X013860Y007493D01*
X013910Y007513D01*
X013962Y007529D01*
X014014Y007542D01*
X014067Y007551D01*
X014121Y007557D01*
X014175Y007559D01*
X014175Y007550D01*
X014122Y007548D01*
X014069Y007542D01*
X014016Y007533D01*
X013964Y007520D01*
X013913Y007504D01*
X013863Y007485D01*
X013815Y007462D01*
X013768Y007436D01*
X013724Y007407D01*
X013681Y007375D01*
X013640Y007340D01*
X013602Y007303D01*
X013566Y007263D01*
X013533Y007221D01*
X013503Y007177D01*
X013476Y007131D01*
X013484Y007127D01*
X013511Y007172D01*
X013541Y007216D01*
X013573Y007257D01*
X013608Y007297D01*
X013646Y007334D01*
X013686Y007368D01*
X013729Y007400D01*
X013773Y007428D01*
X013819Y007454D01*
X013867Y007476D01*
X013916Y007496D01*
X013966Y007512D01*
X014018Y007524D01*
X014070Y007533D01*
X014122Y007539D01*
X014175Y007541D01*
X014175Y007532D01*
X014119Y007530D01*
X014064Y007523D01*
X014009Y007513D01*
X013955Y007499D01*
X013903Y007481D01*
X013851Y007460D01*
X013802Y007434D01*
X013754Y007406D01*
X013708Y007374D01*
X013665Y007339D01*
X013625Y007301D01*
X013587Y007260D01*
X013552Y007216D01*
X013521Y007170D01*
X013492Y007122D01*
X013500Y007118D01*
X013528Y007166D01*
X013559Y007211D01*
X013594Y007254D01*
X013631Y007294D01*
X013671Y007332D01*
X013714Y007367D01*
X013759Y007398D01*
X013806Y007427D01*
X013855Y007451D01*
X013906Y007473D01*
X013958Y007490D01*
X014011Y007504D01*
X014065Y007514D01*
X014120Y007521D01*
X014175Y007523D01*
X014175Y007514D01*
X014121Y007512D01*
X014067Y007506D01*
X014013Y007496D01*
X013961Y007482D01*
X013909Y007464D01*
X013859Y007443D01*
X013810Y007419D01*
X013764Y007391D01*
X013719Y007359D01*
X013677Y007325D01*
X013638Y007288D01*
X013601Y007248D01*
X013567Y007206D01*
X013536Y007161D01*
X013508Y007114D01*
X014825Y007294D02*
X014756Y007237D01*
X014757Y007237D02*
X014720Y007277D01*
X014681Y007315D01*
X014639Y007349D01*
X014595Y007381D01*
X014549Y007409D01*
X014500Y007434D01*
X014450Y007455D01*
X014399Y007473D01*
X014346Y007486D01*
X014293Y007496D01*
X014239Y007503D01*
X014185Y007505D01*
X014184Y007594D01*
X014185Y007595D01*
X014241Y007593D01*
X014297Y007587D01*
X014352Y007577D01*
X014407Y007564D01*
X014460Y007547D01*
X014513Y007527D01*
X014564Y007503D01*
X014613Y007476D01*
X014660Y007445D01*
X014705Y007412D01*
X014748Y007376D01*
X014788Y007337D01*
X014826Y007295D01*
X014819Y007289D01*
X014782Y007330D01*
X014742Y007369D01*
X014700Y007405D01*
X014655Y007438D01*
X014608Y007468D01*
X014560Y007495D01*
X014509Y007518D01*
X014457Y007539D01*
X014404Y007555D01*
X014350Y007568D01*
X014296Y007578D01*
X014241Y007584D01*
X014185Y007586D01*
X014185Y007577D01*
X014240Y007575D01*
X014295Y007569D01*
X014349Y007560D01*
X014402Y007547D01*
X014454Y007530D01*
X014506Y007510D01*
X014555Y007487D01*
X014604Y007460D01*
X014650Y007431D01*
X014694Y007398D01*
X014736Y007362D01*
X014775Y007324D01*
X014812Y007283D01*
X014805Y007278D01*
X014769Y007318D01*
X014730Y007356D01*
X014688Y007391D01*
X014645Y007423D01*
X014599Y007453D01*
X014551Y007479D01*
X014502Y007502D01*
X014452Y007522D01*
X014400Y007538D01*
X014347Y007551D01*
X014293Y007560D01*
X014239Y007566D01*
X014185Y007568D01*
X014185Y007559D01*
X014239Y007557D01*
X014292Y007551D01*
X014345Y007542D01*
X014397Y007529D01*
X014449Y007513D01*
X014499Y007494D01*
X014547Y007471D01*
X014594Y007445D01*
X014640Y007416D01*
X014683Y007384D01*
X014724Y007349D01*
X014762Y007312D01*
X014798Y007272D01*
X014791Y007266D01*
X014756Y007305D01*
X014718Y007342D01*
X014677Y007377D01*
X014634Y007408D01*
X014590Y007437D01*
X014543Y007463D01*
X014495Y007485D01*
X014446Y007505D01*
X014395Y007521D01*
X014343Y007533D01*
X014291Y007542D01*
X014238Y007548D01*
X014185Y007550D01*
X014185Y007541D01*
X014237Y007539D01*
X014290Y007533D01*
X014341Y007524D01*
X014392Y007512D01*
X014443Y007496D01*
X014492Y007477D01*
X014539Y007455D01*
X014585Y007429D01*
X014629Y007401D01*
X014671Y007370D01*
X014712Y007336D01*
X014749Y007299D01*
X014784Y007260D01*
X014778Y007254D01*
X014743Y007293D01*
X014705Y007329D01*
X014666Y007363D01*
X014624Y007394D01*
X014580Y007422D01*
X014535Y007447D01*
X014488Y007469D01*
X014440Y007488D01*
X014390Y007503D01*
X014340Y007516D01*
X014288Y007524D01*
X014237Y007530D01*
X014185Y007532D01*
X014185Y007523D01*
X014236Y007521D01*
X014287Y007516D01*
X014338Y007507D01*
X014388Y007495D01*
X014437Y007479D01*
X014484Y007461D01*
X014531Y007439D01*
X014576Y007414D01*
X014619Y007386D01*
X014660Y007356D01*
X014699Y007323D01*
X014736Y007287D01*
X014771Y007249D01*
X014764Y007243D01*
X014727Y007284D01*
X014687Y007322D01*
X014645Y007356D01*
X014600Y007388D01*
X014553Y007417D01*
X014504Y007442D01*
X014453Y007463D01*
X014402Y007481D01*
X014348Y007495D01*
X014294Y007505D01*
X014240Y007512D01*
X014185Y007514D01*
X014184Y005906D02*
X014184Y005996D01*
X014185Y005995D02*
X014239Y005997D01*
X014292Y006003D01*
X014345Y006013D01*
X014397Y006027D01*
X014448Y006044D01*
X014498Y006065D01*
X014546Y006089D01*
X014592Y006117D01*
X014636Y006148D01*
X014677Y006182D01*
X014717Y006219D01*
X014753Y006258D01*
X014821Y006201D01*
X014822Y006200D01*
X014784Y006159D01*
X014744Y006121D01*
X014701Y006085D01*
X014656Y006052D01*
X014609Y006022D01*
X014561Y005996D01*
X014510Y005972D01*
X014458Y005952D01*
X014405Y005936D01*
X014351Y005922D01*
X014296Y005913D01*
X014241Y005907D01*
X014185Y005905D01*
X014185Y005914D01*
X014240Y005916D01*
X014295Y005922D01*
X014349Y005931D01*
X014403Y005944D01*
X014455Y005961D01*
X014507Y005980D01*
X014557Y006004D01*
X014605Y006030D01*
X014651Y006060D01*
X014696Y006092D01*
X014738Y006127D01*
X014778Y006166D01*
X014815Y006206D01*
X014808Y006212D01*
X014771Y006172D01*
X014732Y006134D01*
X014690Y006099D01*
X014646Y006067D01*
X014600Y006038D01*
X014552Y006012D01*
X014503Y005989D01*
X014452Y005969D01*
X014400Y005953D01*
X014347Y005940D01*
X014294Y005931D01*
X014239Y005925D01*
X014185Y005923D01*
X014185Y005932D01*
X014239Y005934D01*
X014292Y005940D01*
X014345Y005949D01*
X014398Y005962D01*
X014449Y005978D01*
X014500Y005997D01*
X014548Y006020D01*
X014596Y006045D01*
X014641Y006074D01*
X014685Y006106D01*
X014726Y006141D01*
X014765Y006178D01*
X014801Y006218D01*
X014794Y006224D01*
X014758Y006184D01*
X014720Y006147D01*
X014679Y006113D01*
X014636Y006082D01*
X014591Y006053D01*
X014544Y006028D01*
X014496Y006005D01*
X014446Y005986D01*
X014395Y005970D01*
X014344Y005958D01*
X014291Y005949D01*
X014238Y005943D01*
X014185Y005941D01*
X014185Y005950D01*
X014238Y005952D01*
X014290Y005958D01*
X014342Y005967D01*
X014393Y005979D01*
X014443Y005995D01*
X014493Y006014D01*
X014540Y006036D01*
X014587Y006061D01*
X014631Y006089D01*
X014673Y006120D01*
X014714Y006154D01*
X014752Y006191D01*
X014787Y006229D01*
X014781Y006235D01*
X014745Y006197D01*
X014708Y006161D01*
X014668Y006127D01*
X014626Y006097D01*
X014582Y006069D01*
X014536Y006044D01*
X014489Y006022D01*
X014440Y006003D01*
X014391Y005988D01*
X014340Y005975D01*
X014289Y005967D01*
X014237Y005961D01*
X014185Y005959D01*
X014185Y005968D01*
X014241Y005970D01*
X014296Y005977D01*
X014351Y005987D01*
X014405Y006001D01*
X014458Y006019D01*
X014509Y006041D01*
X014559Y006066D01*
X014607Y006095D01*
X014652Y006127D01*
X014695Y006162D01*
X014736Y006200D01*
X014774Y006241D01*
X014767Y006247D01*
X014730Y006206D01*
X014689Y006169D01*
X014647Y006134D01*
X014602Y006102D01*
X014554Y006074D01*
X014505Y006049D01*
X014454Y006027D01*
X014402Y006010D01*
X014349Y005996D01*
X014295Y005986D01*
X014240Y005979D01*
X014185Y005977D01*
X014185Y005986D01*
X014239Y005988D01*
X014293Y005994D01*
X014347Y006004D01*
X014400Y006018D01*
X014451Y006036D01*
X014501Y006057D01*
X014550Y006082D01*
X014597Y006110D01*
X014641Y006141D01*
X014683Y006175D01*
X014723Y006213D01*
X014760Y006253D01*
X014184Y000906D02*
X014184Y000996D01*
X014185Y000995D02*
X014239Y000997D01*
X014292Y001003D01*
X014345Y001013D01*
X014397Y001027D01*
X014448Y001044D01*
X014498Y001065D01*
X014546Y001089D01*
X014592Y001117D01*
X014636Y001148D01*
X014677Y001182D01*
X014717Y001219D01*
X014753Y001258D01*
X014821Y001201D01*
X014822Y001200D01*
X014784Y001159D01*
X014744Y001121D01*
X014701Y001085D01*
X014656Y001052D01*
X014609Y001022D01*
X014561Y000996D01*
X014510Y000972D01*
X014458Y000952D01*
X014405Y000936D01*
X014351Y000922D01*
X014296Y000913D01*
X014241Y000907D01*
X014185Y000905D01*
X014185Y000914D01*
X014240Y000916D01*
X014295Y000922D01*
X014349Y000931D01*
X014403Y000944D01*
X014455Y000961D01*
X014507Y000980D01*
X014557Y001004D01*
X014605Y001030D01*
X014651Y001060D01*
X014696Y001092D01*
X014738Y001127D01*
X014778Y001166D01*
X014815Y001206D01*
X014808Y001212D01*
X014771Y001172D01*
X014732Y001134D01*
X014690Y001099D01*
X014646Y001067D01*
X014600Y001038D01*
X014552Y001012D01*
X014503Y000989D01*
X014452Y000969D01*
X014400Y000953D01*
X014347Y000940D01*
X014294Y000931D01*
X014239Y000925D01*
X014185Y000923D01*
X014185Y000932D01*
X014239Y000934D01*
X014292Y000940D01*
X014345Y000949D01*
X014398Y000962D01*
X014449Y000978D01*
X014500Y000997D01*
X014548Y001020D01*
X014596Y001045D01*
X014641Y001074D01*
X014685Y001106D01*
X014726Y001141D01*
X014765Y001178D01*
X014801Y001218D01*
X014794Y001224D01*
X014758Y001184D01*
X014720Y001147D01*
X014679Y001113D01*
X014636Y001082D01*
X014591Y001053D01*
X014544Y001028D01*
X014496Y001005D01*
X014446Y000986D01*
X014395Y000970D01*
X014344Y000958D01*
X014291Y000949D01*
X014238Y000943D01*
X014185Y000941D01*
X014185Y000950D01*
X014238Y000952D01*
X014290Y000958D01*
X014342Y000967D01*
X014393Y000979D01*
X014443Y000995D01*
X014493Y001014D01*
X014540Y001036D01*
X014587Y001061D01*
X014631Y001089D01*
X014673Y001120D01*
X014714Y001154D01*
X014752Y001191D01*
X014787Y001229D01*
X014781Y001235D01*
X014745Y001197D01*
X014708Y001161D01*
X014668Y001127D01*
X014626Y001097D01*
X014582Y001069D01*
X014536Y001044D01*
X014489Y001022D01*
X014440Y001003D01*
X014391Y000988D01*
X014340Y000975D01*
X014289Y000967D01*
X014237Y000961D01*
X014185Y000959D01*
X014185Y000968D01*
X014241Y000970D01*
X014296Y000977D01*
X014351Y000987D01*
X014405Y001001D01*
X014458Y001019D01*
X014509Y001041D01*
X014559Y001066D01*
X014607Y001095D01*
X014652Y001127D01*
X014695Y001162D01*
X014736Y001200D01*
X014774Y001241D01*
X014767Y001247D01*
X014730Y001206D01*
X014689Y001169D01*
X014647Y001134D01*
X014602Y001102D01*
X014554Y001074D01*
X014505Y001049D01*
X014454Y001027D01*
X014402Y001010D01*
X014349Y000996D01*
X014295Y000986D01*
X014240Y000979D01*
X014185Y000977D01*
X014185Y000986D01*
X014239Y000988D01*
X014293Y000994D01*
X014347Y001004D01*
X014400Y001018D01*
X014451Y001036D01*
X014501Y001057D01*
X014550Y001082D01*
X014597Y001110D01*
X014641Y001141D01*
X014683Y001175D01*
X014723Y001213D01*
X014760Y001253D01*
X014175Y002594D02*
X014175Y002504D01*
X014175Y002505D02*
X014121Y002503D01*
X014068Y002497D01*
X014015Y002487D01*
X013963Y002473D01*
X013912Y002456D01*
X013863Y002435D01*
X013815Y002411D01*
X013769Y002383D01*
X013725Y002352D01*
X013683Y002318D01*
X013644Y002282D01*
X013607Y002242D01*
X013574Y002200D01*
X013543Y002156D01*
X013516Y002110D01*
X013437Y002152D01*
X013465Y002201D01*
X013497Y002247D01*
X013532Y002292D01*
X013569Y002334D01*
X013610Y002374D01*
X013653Y002410D01*
X013698Y002444D01*
X013745Y002475D01*
X013795Y002502D01*
X013846Y002526D01*
X013898Y002547D01*
X013952Y002564D01*
X014007Y002577D01*
X014062Y002587D01*
X014119Y002593D01*
X014175Y002595D01*
X014175Y002586D01*
X014119Y002584D01*
X014064Y002578D01*
X014009Y002568D01*
X013954Y002555D01*
X013901Y002538D01*
X013849Y002518D01*
X013799Y002494D01*
X013750Y002467D01*
X013703Y002437D01*
X013658Y002403D01*
X013616Y002367D01*
X013576Y002328D01*
X013539Y002286D01*
X013504Y002242D01*
X013473Y002196D01*
X013445Y002148D01*
X013453Y002144D01*
X013481Y002191D01*
X013512Y002237D01*
X013546Y002280D01*
X013582Y002322D01*
X013622Y002360D01*
X013664Y002396D01*
X013708Y002429D01*
X013754Y002459D01*
X013803Y002486D01*
X013853Y002509D01*
X013904Y002530D01*
X013957Y002546D01*
X014010Y002559D01*
X014065Y002569D01*
X014120Y002575D01*
X014175Y002577D01*
X014175Y002568D01*
X014120Y002566D01*
X014066Y002560D01*
X014012Y002551D01*
X013959Y002538D01*
X013907Y002521D01*
X013856Y002501D01*
X013807Y002478D01*
X013759Y002451D01*
X013713Y002422D01*
X013669Y002389D01*
X013628Y002354D01*
X013589Y002315D01*
X013552Y002275D01*
X013519Y002232D01*
X013488Y002186D01*
X013461Y002139D01*
X013469Y002135D01*
X013496Y002182D01*
X013526Y002226D01*
X013559Y002269D01*
X013595Y002309D01*
X013634Y002347D01*
X013675Y002382D01*
X013718Y002414D01*
X013764Y002444D01*
X013811Y002470D01*
X013860Y002493D01*
X013910Y002513D01*
X013962Y002529D01*
X014014Y002542D01*
X014067Y002551D01*
X014121Y002557D01*
X014175Y002559D01*
X014175Y002550D01*
X014122Y002548D01*
X014069Y002542D01*
X014016Y002533D01*
X013964Y002520D01*
X013913Y002504D01*
X013863Y002485D01*
X013815Y002462D01*
X013768Y002436D01*
X013724Y002407D01*
X013681Y002375D01*
X013640Y002340D01*
X013602Y002303D01*
X013566Y002263D01*
X013533Y002221D01*
X013503Y002177D01*
X013476Y002131D01*
X013484Y002127D01*
X013511Y002172D01*
X013541Y002216D01*
X013573Y002257D01*
X013608Y002297D01*
X013646Y002334D01*
X013686Y002368D01*
X013729Y002400D01*
X013773Y002428D01*
X013819Y002454D01*
X013867Y002476D01*
X013916Y002496D01*
X013966Y002512D01*
X014018Y002524D01*
X014070Y002533D01*
X014122Y002539D01*
X014175Y002541D01*
X014175Y002532D01*
X014119Y002530D01*
X014064Y002523D01*
X014009Y002513D01*
X013955Y002499D01*
X013903Y002481D01*
X013851Y002460D01*
X013802Y002434D01*
X013754Y002406D01*
X013708Y002374D01*
X013665Y002339D01*
X013625Y002301D01*
X013587Y002260D01*
X013552Y002216D01*
X013521Y002170D01*
X013492Y002122D01*
X013500Y002118D01*
X013528Y002166D01*
X013559Y002211D01*
X013594Y002254D01*
X013631Y002294D01*
X013671Y002332D01*
X013714Y002367D01*
X013759Y002398D01*
X013806Y002427D01*
X013855Y002451D01*
X013906Y002473D01*
X013958Y002490D01*
X014011Y002504D01*
X014065Y002514D01*
X014120Y002521D01*
X014175Y002523D01*
X014175Y002514D01*
X014121Y002512D01*
X014067Y002506D01*
X014013Y002496D01*
X013961Y002482D01*
X013909Y002464D01*
X013859Y002443D01*
X013810Y002419D01*
X013764Y002391D01*
X013719Y002359D01*
X013677Y002325D01*
X013638Y002288D01*
X013601Y002248D01*
X013567Y002206D01*
X013536Y002161D01*
X013508Y002114D01*
X013449Y001327D02*
X013527Y001372D01*
X013527Y001371D02*
X013555Y001327D01*
X013586Y001285D01*
X013619Y001245D01*
X013655Y001207D01*
X013694Y001172D01*
X013735Y001140D01*
X013779Y001110D01*
X013824Y001084D01*
X013871Y001061D01*
X013919Y001041D01*
X013969Y001025D01*
X014019Y001012D01*
X014071Y001003D01*
X014123Y000997D01*
X014175Y000995D01*
X014176Y000906D01*
X014175Y000905D01*
X014120Y000907D01*
X014066Y000913D01*
X014011Y000922D01*
X013958Y000935D01*
X013906Y000951D01*
X013854Y000970D01*
X013804Y000993D01*
X013756Y001019D01*
X013709Y001048D01*
X013665Y001080D01*
X013622Y001115D01*
X013582Y001153D01*
X013545Y001193D01*
X013510Y001235D01*
X013478Y001280D01*
X013449Y001326D01*
X013457Y001331D01*
X013485Y001285D01*
X013517Y001241D01*
X013552Y001199D01*
X013589Y001159D01*
X013628Y001122D01*
X013670Y001087D01*
X013714Y001056D01*
X013760Y001027D01*
X013808Y001001D01*
X013858Y000979D01*
X013908Y000959D01*
X013960Y000943D01*
X014013Y000931D01*
X014067Y000922D01*
X014121Y000916D01*
X014175Y000914D01*
X014175Y000923D01*
X014121Y000925D01*
X014068Y000931D01*
X014015Y000940D01*
X013963Y000952D01*
X013911Y000968D01*
X013861Y000987D01*
X013812Y001009D01*
X013765Y001035D01*
X013719Y001063D01*
X013676Y001095D01*
X013634Y001129D01*
X013595Y001165D01*
X013558Y001205D01*
X013524Y001246D01*
X013493Y001290D01*
X013464Y001335D01*
X013472Y001340D01*
X013502Y001292D01*
X013536Y001246D01*
X013572Y001203D01*
X013612Y001162D01*
X013654Y001124D01*
X013698Y001089D01*
X013745Y001057D01*
X013794Y001029D01*
X013845Y001004D01*
X013898Y000982D01*
X013951Y000965D01*
X014006Y000951D01*
X014062Y000941D01*
X014118Y000934D01*
X014175Y000932D01*
X014175Y000941D01*
X014119Y000943D01*
X014063Y000949D01*
X014008Y000959D01*
X013954Y000973D01*
X013901Y000991D01*
X013849Y001012D01*
X013798Y001037D01*
X013750Y001065D01*
X013704Y001096D01*
X013659Y001131D01*
X013618Y001168D01*
X013579Y001209D01*
X013543Y001251D01*
X013510Y001297D01*
X013480Y001344D01*
X013488Y001349D01*
X013517Y001302D01*
X013550Y001257D01*
X013586Y001215D01*
X013624Y001175D01*
X013665Y001138D01*
X013709Y001103D01*
X013755Y001072D01*
X013803Y001045D01*
X013852Y001020D01*
X013904Y000999D01*
X013956Y000982D01*
X014010Y000968D01*
X014065Y000958D01*
X014120Y000952D01*
X014175Y000950D01*
X014175Y000959D01*
X014120Y000961D01*
X014066Y000967D01*
X014012Y000977D01*
X013959Y000991D01*
X013907Y001008D01*
X013856Y001028D01*
X013807Y001053D01*
X013760Y001080D01*
X013714Y001111D01*
X013671Y001144D01*
X013630Y001181D01*
X013592Y001221D01*
X013557Y001263D01*
X013525Y001307D01*
X013496Y001353D01*
X013504Y001358D01*
X013532Y001312D01*
X013564Y001268D01*
X013599Y001227D01*
X013637Y001188D01*
X013677Y001151D01*
X013719Y001118D01*
X013764Y001088D01*
X013811Y001060D01*
X013860Y001037D01*
X013910Y001016D01*
X013961Y000999D01*
X014014Y000986D01*
X014067Y000976D01*
X014121Y000970D01*
X014175Y000968D01*
X014175Y000977D01*
X014122Y000979D01*
X014068Y000985D01*
X014016Y000995D01*
X013964Y001008D01*
X013913Y001025D01*
X013863Y001045D01*
X013815Y001068D01*
X013769Y001095D01*
X013725Y001125D01*
X013683Y001158D01*
X013643Y001194D01*
X013606Y001233D01*
X013571Y001274D01*
X013540Y001317D01*
X013511Y001362D01*
X013519Y001367D01*
X013547Y001322D01*
X013578Y001279D01*
X013612Y001239D01*
X013649Y001201D01*
X013688Y001165D01*
X013730Y001133D01*
X013774Y001103D01*
X013820Y001076D01*
X013867Y001053D01*
X013916Y001033D01*
X013966Y001016D01*
X014018Y001003D01*
X014070Y000994D01*
X014122Y000988D01*
X014175Y000986D01*
X014825Y002294D02*
X014756Y002237D01*
X014757Y002237D02*
X014720Y002277D01*
X014681Y002315D01*
X014639Y002349D01*
X014595Y002381D01*
X014549Y002409D01*
X014500Y002434D01*
X014450Y002455D01*
X014399Y002473D01*
X014346Y002486D01*
X014293Y002496D01*
X014239Y002503D01*
X014185Y002505D01*
X014184Y002594D01*
X014185Y002595D01*
X014241Y002593D01*
X014297Y002587D01*
X014352Y002577D01*
X014407Y002564D01*
X014460Y002547D01*
X014513Y002527D01*
X014564Y002503D01*
X014613Y002476D01*
X014660Y002445D01*
X014705Y002412D01*
X014748Y002376D01*
X014788Y002337D01*
X014826Y002295D01*
X014819Y002289D01*
X014782Y002330D01*
X014742Y002369D01*
X014700Y002405D01*
X014655Y002438D01*
X014608Y002468D01*
X014560Y002495D01*
X014509Y002518D01*
X014457Y002539D01*
X014404Y002555D01*
X014350Y002568D01*
X014296Y002578D01*
X014241Y002584D01*
X014185Y002586D01*
X014185Y002577D01*
X014240Y002575D01*
X014295Y002569D01*
X014349Y002560D01*
X014402Y002547D01*
X014454Y002530D01*
X014506Y002510D01*
X014555Y002487D01*
X014604Y002460D01*
X014650Y002431D01*
X014694Y002398D01*
X014736Y002362D01*
X014775Y002324D01*
X014812Y002283D01*
X014805Y002278D01*
X014769Y002318D01*
X014730Y002356D01*
X014688Y002391D01*
X014645Y002423D01*
X014599Y002453D01*
X014551Y002479D01*
X014502Y002502D01*
X014452Y002522D01*
X014400Y002538D01*
X014347Y002551D01*
X014293Y002560D01*
X014239Y002566D01*
X014185Y002568D01*
X014185Y002559D01*
X014239Y002557D01*
X014292Y002551D01*
X014345Y002542D01*
X014397Y002529D01*
X014449Y002513D01*
X014499Y002494D01*
X014547Y002471D01*
X014594Y002445D01*
X014640Y002416D01*
X014683Y002384D01*
X014724Y002349D01*
X014762Y002312D01*
X014798Y002272D01*
X014791Y002266D01*
X014756Y002305D01*
X014718Y002342D01*
X014677Y002377D01*
X014634Y002408D01*
X014590Y002437D01*
X014543Y002463D01*
X014495Y002485D01*
X014446Y002505D01*
X014395Y002521D01*
X014343Y002533D01*
X014291Y002542D01*
X014238Y002548D01*
X014185Y002550D01*
X014185Y002541D01*
X014237Y002539D01*
X014290Y002533D01*
X014341Y002524D01*
X014392Y002512D01*
X014443Y002496D01*
X014492Y002477D01*
X014539Y002455D01*
X014585Y002429D01*
X014629Y002401D01*
X014671Y002370D01*
X014712Y002336D01*
X014749Y002299D01*
X014784Y002260D01*
X014778Y002254D01*
X014743Y002293D01*
X014705Y002329D01*
X014666Y002363D01*
X014624Y002394D01*
X014580Y002422D01*
X014535Y002447D01*
X014488Y002469D01*
X014440Y002488D01*
X014390Y002503D01*
X014340Y002516D01*
X014288Y002524D01*
X014237Y002530D01*
X014185Y002532D01*
X014185Y002523D01*
X014236Y002521D01*
X014287Y002516D01*
X014338Y002507D01*
X014388Y002495D01*
X014437Y002479D01*
X014484Y002461D01*
X014531Y002439D01*
X014576Y002414D01*
X014619Y002386D01*
X014660Y002356D01*
X014699Y002323D01*
X014736Y002287D01*
X014771Y002249D01*
X014764Y002243D01*
X014727Y002284D01*
X014687Y002322D01*
X014645Y002356D01*
X014600Y002388D01*
X014553Y002417D01*
X014504Y002442D01*
X014453Y002463D01*
X014402Y002481D01*
X014348Y002495D01*
X014294Y002505D01*
X014240Y002512D01*
X014185Y002514D01*
D19*
X001930Y007250D03*
D20*
X004180Y000650D03*
D21*
X002455Y000900D03*
X005905Y000900D03*
D22*
X004680Y000900D03*
X003680Y000900D03*
D23*
X005927Y006045D02*
X006070Y006045D01*
X006142Y006117D01*
X006315Y006045D02*
X006602Y006332D01*
X006602Y006404D01*
X006531Y006475D01*
X006387Y006475D01*
X006315Y006404D01*
X006142Y006404D02*
X006070Y006475D01*
X005927Y006475D01*
X005855Y006404D01*
X005855Y006117D01*
X005927Y006045D01*
X006315Y006045D02*
X006602Y006045D01*
X006602Y012255D02*
X006315Y012255D01*
X006459Y012255D02*
X006459Y012685D01*
X006315Y012542D01*
X006142Y012614D02*
X006070Y012685D01*
X005927Y012685D01*
X005855Y012614D01*
X005855Y012327D01*
X005927Y012255D01*
X006070Y012255D01*
X006142Y012327D01*
X016215Y005468D02*
X016645Y005468D01*
X016645Y005325D02*
X016645Y005612D01*
X016358Y005325D02*
X016215Y005468D01*
M02*
