G75*
G70*
%OFA0B0*%
%FSLAX24Y24*%
%IPPOS*%
%LPD*%
%AMOC8*
5,1,8,0,0,1.08239X$1,22.5*
%
%ADD10C,0.0050*%
%ADD11C,0.0060*%
%ADD12C,0.0120*%
%ADD13C,0.0100*%
%ADD14C,0.0080*%
D10*
X015259Y007920D02*
X015259Y008100D01*
X015305Y008145D01*
X015395Y008145D01*
X015440Y008100D01*
X015440Y008055D01*
X015395Y008010D01*
X015259Y008010D01*
X015259Y007920D02*
X015305Y007875D01*
X015395Y007875D01*
X015440Y007920D01*
X015554Y007920D02*
X015554Y008100D01*
X015599Y008145D01*
X015734Y008145D01*
X015734Y007875D01*
X015599Y007875D01*
X015554Y007920D01*
X015599Y008858D02*
X015554Y008904D01*
X015554Y009084D01*
X015599Y009129D01*
X015734Y009129D01*
X015734Y008858D01*
X015599Y008858D01*
X015439Y008904D02*
X015439Y008949D01*
X015394Y008994D01*
X015304Y008994D01*
X015259Y008949D01*
X015259Y008904D01*
X015304Y008858D01*
X015394Y008858D01*
X015439Y008904D01*
X015394Y008994D02*
X015439Y009039D01*
X015439Y009084D01*
X015394Y009129D01*
X015304Y009129D01*
X015259Y009084D01*
X015259Y009039D01*
X015304Y008994D01*
X015439Y009853D02*
X015439Y009898D01*
X015259Y010078D01*
X015259Y010123D01*
X015439Y010123D01*
X015554Y010078D02*
X015554Y009898D01*
X015599Y009853D01*
X015734Y009853D01*
X015734Y010123D01*
X015599Y010123D01*
X015554Y010078D01*
X015599Y010857D02*
X015554Y010902D01*
X015554Y011082D01*
X015599Y011127D01*
X015734Y011127D01*
X015734Y010857D01*
X015599Y010857D01*
X015439Y010902D02*
X015394Y010857D01*
X015304Y010857D01*
X015259Y010902D01*
X015259Y010947D01*
X015304Y010992D01*
X015439Y010992D01*
X015439Y010902D01*
X015439Y010992D02*
X015349Y011082D01*
X015259Y011127D01*
X015294Y011841D02*
X015249Y011886D01*
X015249Y011976D01*
X015294Y012021D01*
X015339Y012021D01*
X015429Y011976D01*
X015429Y012111D01*
X015249Y012111D01*
X015294Y011841D02*
X015384Y011841D01*
X015429Y011886D01*
X015544Y011886D02*
X015544Y012066D01*
X015589Y012111D01*
X015724Y012111D01*
X015724Y011841D01*
X015589Y011841D01*
X015544Y011886D01*
X015569Y012865D02*
X015524Y012910D01*
X015524Y013090D01*
X015569Y013135D01*
X015704Y013135D01*
X015704Y012865D01*
X015569Y012865D01*
X015409Y013000D02*
X015274Y013135D01*
X015274Y012865D01*
X015229Y013000D02*
X015409Y013000D01*
X015355Y013890D02*
X015265Y013890D01*
X015220Y013935D01*
X015220Y013980D01*
X015265Y014025D01*
X015310Y014025D01*
X015265Y014025D02*
X015220Y014070D01*
X015220Y014115D01*
X015265Y014160D01*
X015355Y014160D01*
X015400Y014115D01*
X015514Y014115D02*
X015514Y013935D01*
X015559Y013890D01*
X015694Y013890D01*
X015694Y014160D01*
X015559Y014160D01*
X015514Y014115D01*
X015400Y013935D02*
X015355Y013890D01*
X015420Y014853D02*
X015240Y014853D01*
X015420Y014853D02*
X015240Y015033D01*
X015240Y015078D01*
X015285Y015123D01*
X015375Y015123D01*
X015420Y015078D01*
X015535Y015078D02*
X015535Y014898D01*
X015580Y014853D01*
X015715Y014853D01*
X015715Y015123D01*
X015580Y015123D01*
X015535Y015078D01*
X015569Y015837D02*
X015524Y015882D01*
X015524Y016062D01*
X015569Y016107D01*
X015704Y016107D01*
X015704Y015837D01*
X015569Y015837D01*
X015410Y015837D02*
X015230Y015837D01*
X015320Y015837D02*
X015320Y016107D01*
X015410Y016017D01*
X015365Y016852D02*
X015410Y016897D01*
X015230Y017077D01*
X015230Y016897D01*
X015275Y016852D01*
X015365Y016852D01*
X015410Y016897D02*
X015410Y017077D01*
X015365Y017122D01*
X015275Y017122D01*
X015230Y017077D01*
X015524Y017077D02*
X015524Y016897D01*
X015569Y016852D01*
X015704Y016852D01*
X015704Y017122D01*
X015569Y017122D01*
X015524Y017077D01*
X018640Y013898D02*
X018820Y013898D01*
X018730Y013898D02*
X018730Y014169D01*
X018820Y014079D01*
X018935Y014079D02*
X018935Y013898D01*
X018935Y014034D02*
X019115Y014034D01*
X019115Y014079D02*
X019115Y013898D01*
X019115Y014079D02*
X019025Y014169D01*
X018935Y014079D01*
X018977Y014858D02*
X018977Y015039D01*
X019067Y015129D01*
X019157Y015039D01*
X019157Y014858D01*
X019157Y014994D02*
X018977Y014994D01*
X018862Y015084D02*
X018817Y015129D01*
X018727Y015129D01*
X018682Y015084D01*
X018862Y014904D01*
X018817Y014858D01*
X018727Y014858D01*
X018682Y014904D01*
X018682Y015084D01*
X018862Y015084D02*
X018862Y014904D01*
X018805Y013155D02*
X018850Y013110D01*
X018805Y013155D02*
X018715Y013155D01*
X018670Y013110D01*
X018670Y013065D01*
X018850Y012885D01*
X018670Y012885D01*
X018965Y012885D02*
X018965Y013065D01*
X019055Y013155D01*
X019145Y013065D01*
X019145Y012885D01*
X019145Y013020D02*
X018965Y013020D01*
X019044Y012167D02*
X018954Y012077D01*
X018954Y011897D01*
X018840Y011942D02*
X018795Y011897D01*
X018705Y011897D01*
X018660Y011942D01*
X018660Y011987D01*
X018705Y012032D01*
X018750Y012032D01*
X018705Y012032D02*
X018660Y012077D01*
X018660Y012122D01*
X018705Y012167D01*
X018795Y012167D01*
X018840Y012122D01*
X018954Y012032D02*
X019134Y012032D01*
X019134Y012077D02*
X019044Y012167D01*
X019134Y012077D02*
X019134Y011897D01*
X019044Y011131D02*
X018954Y011041D01*
X018954Y010861D01*
X018954Y010996D02*
X019134Y010996D01*
X019134Y011041D02*
X019134Y010861D01*
X019134Y011041D02*
X019044Y011131D01*
X018840Y010996D02*
X018660Y010996D01*
X018705Y010861D02*
X018705Y011131D01*
X018840Y010996D01*
X018840Y010155D02*
X018660Y010155D01*
X018705Y010065D02*
X018660Y010020D01*
X018660Y009930D01*
X018705Y009885D01*
X018795Y009885D01*
X018840Y009930D01*
X018840Y010020D02*
X018750Y010065D01*
X018705Y010065D01*
X018840Y010020D02*
X018840Y010155D01*
X018954Y010065D02*
X018954Y009885D01*
X018954Y010020D02*
X019134Y010020D01*
X019134Y010065D02*
X019044Y010155D01*
X018954Y010065D01*
X019134Y010065D02*
X019134Y009885D01*
D11*
X018984Y008989D02*
X019040Y008932D01*
X019040Y008818D01*
X018984Y008762D01*
X018757Y008762D01*
X018700Y008818D01*
X018700Y008932D01*
X018757Y008989D01*
X018757Y008620D02*
X018700Y008564D01*
X018700Y008450D01*
X018757Y008393D01*
X018984Y008393D01*
X019040Y008450D01*
X019040Y008564D01*
X018984Y008620D01*
X019040Y008252D02*
X018813Y008252D01*
X018700Y008138D01*
X018813Y008025D01*
X019040Y008025D01*
X018982Y015852D02*
X019209Y015852D01*
X019209Y016193D01*
X018982Y016193D01*
X018841Y016136D02*
X018841Y016079D01*
X018784Y016023D01*
X018671Y016023D01*
X018614Y015966D01*
X018614Y015909D01*
X018671Y015852D01*
X018784Y015852D01*
X018841Y015909D01*
X018841Y016136D02*
X018784Y016193D01*
X018671Y016193D01*
X018614Y016136D01*
X019096Y016023D02*
X019209Y016023D01*
X019351Y016023D02*
X019351Y016136D01*
X019407Y016193D01*
X019578Y016193D01*
X019578Y015852D01*
X019578Y015966D02*
X019407Y015966D01*
X019351Y016023D01*
X019464Y015966D02*
X019351Y015852D01*
X019417Y016802D02*
X019361Y016859D01*
X019361Y016973D01*
X019474Y016973D01*
X019361Y017086D02*
X019417Y017143D01*
X019531Y017143D01*
X019588Y017086D01*
X019588Y016859D01*
X019531Y016802D01*
X019417Y016802D01*
X019219Y016802D02*
X019219Y017143D01*
X018992Y016802D01*
X018992Y017143D01*
X018851Y017143D02*
X018681Y017143D01*
X018624Y017086D01*
X018624Y016859D01*
X018681Y016802D01*
X018851Y016802D01*
X018851Y017143D01*
D12*
X018550Y008950D02*
X018550Y008050D01*
D13*
X010133Y004865D02*
X010040Y004771D01*
X010133Y004678D01*
X010414Y004678D01*
X010133Y004865D02*
X010040Y004958D01*
X010133Y005051D01*
X010414Y005051D01*
X010414Y005286D02*
X010133Y005286D01*
X010040Y005379D01*
X010133Y005472D01*
X010040Y005566D01*
X010133Y005659D01*
X010414Y005659D01*
X010414Y005893D02*
X010133Y005893D01*
X010040Y005987D01*
X010133Y006080D01*
X010040Y006173D01*
X010133Y006267D01*
X010414Y006267D01*
X010133Y006501D02*
X010133Y006594D01*
X010040Y006594D01*
X010040Y006501D01*
X010133Y006501D01*
X010040Y006805D02*
X010600Y006805D01*
X010600Y007085D01*
X010507Y007178D01*
X010320Y007178D01*
X010227Y007085D01*
X010227Y006805D01*
X010227Y007413D02*
X010414Y007599D01*
X010414Y007693D01*
X010320Y007919D02*
X010133Y007919D01*
X010040Y008012D01*
X010040Y008199D01*
X010133Y008293D01*
X010320Y008293D01*
X010414Y008199D01*
X010414Y008012D01*
X010320Y007919D01*
X010414Y007413D02*
X010040Y007413D01*
X009853Y008527D02*
X009853Y008620D01*
X009947Y008714D01*
X010414Y008714D01*
X010600Y008714D02*
X010694Y008714D01*
X010414Y009025D02*
X010414Y009212D01*
X010320Y009305D01*
X010227Y009305D01*
X010227Y008932D01*
X010320Y008932D02*
X010133Y008932D01*
X010040Y009025D01*
X010040Y009212D01*
X010133Y009540D02*
X010040Y009633D01*
X010040Y009913D01*
X010133Y010241D02*
X010040Y010334D01*
X010133Y010241D02*
X010507Y010241D01*
X010414Y010334D02*
X010414Y010147D01*
X010414Y009913D02*
X010414Y009633D01*
X010320Y009540D01*
X010133Y009540D01*
X010414Y009025D02*
X010320Y008932D01*
X010320Y010552D02*
X010320Y010926D01*
X010414Y010926D02*
X010040Y010926D01*
X010227Y011160D02*
X010040Y011347D01*
X010227Y011534D01*
X010600Y011534D01*
X010600Y011768D02*
X010600Y012048D01*
X010507Y012141D01*
X010320Y012141D01*
X010227Y012048D01*
X010227Y011768D01*
X010227Y011955D02*
X010040Y012141D01*
X010040Y012376D02*
X010040Y012469D01*
X010133Y012469D01*
X010133Y012376D01*
X010040Y012376D01*
X010133Y012679D02*
X010040Y012773D01*
X010040Y013053D01*
X010133Y013287D02*
X010040Y013381D01*
X010040Y013567D01*
X010133Y013661D01*
X010320Y013661D01*
X010414Y013567D01*
X010414Y013381D01*
X010320Y013287D01*
X010133Y013287D01*
X010414Y013053D02*
X010414Y012773D01*
X010320Y012679D01*
X010133Y012679D01*
X010040Y011768D02*
X010600Y011768D01*
X010600Y011160D02*
X010227Y011160D01*
X010414Y010926D02*
X010600Y010739D01*
X010414Y010552D01*
X010040Y010552D01*
X010040Y013895D02*
X010414Y013895D01*
X010414Y013988D01*
X010320Y014082D01*
X010414Y014175D01*
X010320Y014269D01*
X010040Y014269D01*
X010040Y014082D02*
X010320Y014082D01*
D14*
X005317Y015362D02*
X005317Y015642D01*
X005317Y015822D02*
X005317Y016102D01*
X005317Y015962D02*
X004897Y015962D01*
X004897Y016283D02*
X004897Y016493D01*
X004967Y016563D01*
X005247Y016563D01*
X005317Y016493D01*
X005317Y016283D01*
X004897Y016283D01*
X004897Y016743D02*
X004897Y016883D01*
X004897Y016813D02*
X005317Y016813D01*
X005317Y016743D02*
X005317Y016883D01*
X005107Y015502D02*
X005107Y015362D01*
X004897Y015362D02*
X005317Y015362D01*
X018420Y004388D02*
X018840Y004388D01*
X018840Y004598D01*
X018770Y004668D01*
X018630Y004668D01*
X018560Y004598D01*
X018560Y004388D01*
X018560Y004208D02*
X018490Y004208D01*
X018420Y004138D01*
X018420Y003997D01*
X018490Y003927D01*
X018630Y003997D02*
X018630Y004138D01*
X018560Y004208D01*
X018770Y004208D02*
X018840Y004138D01*
X018840Y003997D01*
X018770Y003927D01*
X018700Y003927D01*
X018630Y003997D01*
X018490Y003747D02*
X018420Y003677D01*
X018420Y003537D01*
X018490Y003467D01*
X018770Y003467D01*
X018840Y003537D01*
X018840Y003677D01*
X018770Y003747D01*
X018840Y003300D02*
X018840Y003160D01*
X018840Y003230D02*
X018420Y003230D01*
X018420Y003160D02*
X018420Y003300D01*
M02*
